<svg id="Layer_1" data-name="Layer 1" xmlns="http://www.w3.org/2000/svg" viewBox="0 0 493.06 590.88"><defs><style>.cls-1,.cls-5{fill:#a7a9ac;}.cls-2{fill:#fefefe;}.cls-3{fill:#979797;}.cls-4{fill:#a0a0a0;}.cls-5{opacity:0.76;}.cls-6{fill:#6d6e71;}</style></defs><path class="cls-1" d="M519.81,381.92c24.44-7.2,24.4-7.19,16.16-30.6q-9.13-25.92-18.07-51.92c-7.72-22.52-19.69-42.76-33.32-62.06-7.87-11.15-9.15-11.24-21.88-5.83-3.21,1.36-6.29,3.38-11.31,3.18,3.95-6.07,9.48-8.85,14.06-12.49,4.9-3.9,5.37-6.75,1.14-11.91A278.87,278.87,0,0,0,431,173.79c-23.93-20.28-45.86-43-72.24-60.29-12.69-8.31-26.91-13.21-42-15.67-8.07-1.31-12.5,1.6-14.49,9.24q-1.86,7.13-4.17,14.12c-.77,2.36-1.23,5.81-4.76,5-2.84-.65-2-3.65-2-5.88.14-5.55.25-11.11.5-16.66.32-7.18-2.17-10.32-10-8.52-26.67,6.16-51.15,17.72-76,28.84-39.84,17.84-66.43,51.32-97.48,79.59-6,5.5-11.74,11.38-17.73,17-4.06,3.78-3.76,6.17,1.6,8.3,14.51,5.78,28.92,11.83,43,19.46-15-2.21-29.94-4.28-44.86-6.69-6.11-1-10,0-11.16,7-4.86,29-11.42,57.53-7.14,87.56,4.8,33.78,20.26,61.88,41.16,87.6,10.31,12.69,22.4,23.75,34.78,34.52,6.47,5.62,12.07,6.4,19.31,2.29,5-2.84,10.55-4.77,15.85-7.1l1.54,2c-3.6,3.36-7.14,6.81-10.82,10.08-4.69,4.15-5.41,8.11-1.31,13.5,21.39,28.11,41.51,57.37,67.85,81.21,23.73,21.48,50.44,38.36,81.58,47.47,7.21,2.11,11.43,1.08,14.17-6.73C340,590.37,345,580.12,350.33,570c-.1,10.39-4.3,19.78-7.4,29.32-2.18,6.73-.78,9.49,6.11,10.84,31.67,6.18,63.24,3.81,94.57-1.77a253.33,253.33,0,0,0,58.91-18.11c30.94-13.78,43.43-38.51,46.19-70.52,3.4-39.59,2.32-79-1.89-118.46-1.66-15.56-1.57-15.57-17.13-17.84C526.86,383,524,382.56,519.81,381.92Z" transform="translate(-70.77 -94.62)"/><path class="cls-2" d="M334,347.28c-.94,22.88.36,45.38,12.71,65.89,4.19,7,10.56,8.39,17.89,6a72.45,72.45,0,0,0,21.76-11.09c15.12-11.61,31.78-20.63,48.5-29.58a51.67,51.67,0,0,0,6.68-4.09c14.45-10.82,15.8-20.18,3.8-33.66-15.22-17.1-36.13-24.59-57.07-31.94,11.55,12.27,23.19,24.45,34.62,36.83,9.69,10.49,8.54,15.6-5.11,20.18-11.25,3.78-19.56,11.63-28.57,18.59-22.22,17.14-28.29,15.73-39.76-9.47-4.29-9.42-8.36-18.94-12.53-28.41Z" transform="translate(-70.77 -94.62)"/><path class="cls-2" d="M405.52,490.74c11.76-1.37,21.84-6.82,31.19-13.54,15.38-11.05,28.44-24.15,34.57-42.75,1.65-5,3-10.06,2.16-15.41-.88-5.68-4.08-8.47-9.62-6.21-26.19,10.68-51.09,23.59-72,43.11a20,20,0,0,0-4.25,5.38c-3.59,7.17-9.71,14.48-4.33,22.73C388.39,491.9,397.12,491.64,405.52,490.74Z" transform="translate(-70.77 -94.62)"/><path class="cls-2" d="M216.62,374.48c16.36-15.49,36.58-15.88,54.27-23,12.42-5,21.55-13.8,26.19-26.4,6.07-16.5-2.83-27.72-20.64-27-20.91.82-33.43,13.1-41.92,30.65-2.11,4.36-4.06,9.34-4.08,14.05-.05,9.36-4.54,16-10.41,22.45C218.55,366.79,216.58,368.28,216.62,374.48Z" transform="translate(-70.77 -94.62)"/><path class="cls-2" d="M429.64,225.36c-13.73,7.62-25.17.91-37.22-3.94-25.15-10.14-48.32,14.06-46.33,39.57,1.06,13.6,21.92,20.7,36,12.85A53.19,53.19,0,0,0,401,255.59c6.3-10.13,14.52-17.43,24.08-23.86C426.76,230.57,429.29,229.77,429.64,225.36Z" transform="translate(-70.77 -94.62)"/><path class="cls-3" d="M505.68,494l17.16,15.26C518.77,502.27,511.76,498.63,505.68,494Z" transform="translate(-70.77 -94.62)"/><path class="cls-4" d="M349.39,306.42c1.21,7,5.17,12.1,11.24,15.72Z" transform="translate(-70.77 -94.62)"/><path class="cls-5" d="M532.92,382.93c24.44-7.2,24.4-7.19,16.16-30.59q-9.14-25.93-18.07-51.92c-7.72-22.52-19.69-42.76-33.32-62.07-7.87-11.15-9.15-11.23-21.88-5.83-3.21,1.37-6.29,3.38-11.31,3.18,3.95-6.06,9.48-8.84,14.06-12.48,4.9-3.91,5.37-6.75,1.14-11.92a279.5,279.5,0,0,0-35.55-36.5c-23.93-20.27-45.86-43-72.24-60.28-12.69-8.31-26.91-13.21-42-15.67-8.07-1.31-12.5,1.59-14.49,9.24q-1.86,7.13-4.17,14.12c-.77,2.35-1.23,5.81-4.76,5-2.84-.66-2-3.66-2-5.88.14-5.55.25-11.11.5-16.66.32-7.18-2.17-10.33-10-8.52-26.67,6.16-51.15,17.72-76,28.83-39.84,17.85-66.43,51.32-97.48,79.59-6,5.51-11.74,11.39-17.73,17-4.06,3.79-3.76,6.18,1.6,8.31,14.51,5.77,28.92,11.82,43,19.46-15-2.21-29.94-4.28-44.86-6.7-6.11-1-10,0-11.16,7-4.86,29-11.42,57.52-7.14,87.55,4.8,33.78,20.26,61.89,41.16,87.61,10.31,12.68,22.4,23.75,34.78,34.51,6.47,5.63,12.07,6.4,19.31,2.3,5-2.85,10.55-4.77,15.85-7.11l1.54,2c-3.6,3.37-7.14,6.81-10.82,10.08-4.69,4.16-5.41,8.12-1.31,13.5,21.39,28.11,41.51,57.38,67.85,81.22,23.73,21.47,50.44,38.36,81.58,47.47,7.21,2.11,11.43,1.08,14.17-6.73,3.75-10.69,8.76-20.94,14.06-31.11-.1,10.4-4.3,19.79-7.4,29.33-2.18,6.72-.78,9.49,6.11,10.83,31.67,6.19,63.24,3.81,94.57-1.76a253.36,253.36,0,0,0,58.91-18.12c30.94-13.78,43.43-38.5,46.19-70.51,3.4-39.59,2.32-79-1.89-118.47-1.66-15.55-1.57-15.56-17.13-17.83C540,384,537.15,383.58,532.92,382.93Z" transform="translate(-70.77 -94.62)"/><path class="cls-2" d="M347.13,348.3c-.94,22.88.36,45.38,12.71,65.89,4.19,6.95,10.56,8.38,17.89,6a72.47,72.47,0,0,0,21.76-11.1c15.12-11.61,31.78-20.63,48.5-29.57a52.81,52.81,0,0,0,6.68-4.09c14.45-10.82,15.8-20.18,3.8-33.67-15.22-17.1-36.13-24.59-57.07-31.93C413,322.07,424.59,334.26,436,346.63c9.69,10.49,8.54,15.61-5.11,20.19-11.25,3.77-19.56,11.63-28.57,18.58-22.22,17.15-28.29,15.73-39.76-9.46-4.29-9.42-8.36-18.94-12.53-28.42Z" transform="translate(-70.77 -94.62)"/><path class="cls-2" d="M418.63,491.76c11.76-1.37,21.84-6.83,31.19-13.54,15.38-11.05,28.44-24.16,34.57-42.75,1.65-5,3-10.06,2.16-15.42-.88-5.68-4.08-8.47-9.62-6.2-26.19,10.68-51.09,23.58-72,43.11a19.85,19.85,0,0,0-4.25,5.38c-3.59,7.17-9.71,14.47-4.33,22.73C401.5,492.92,410.23,492.65,418.63,491.76Z" transform="translate(-70.77 -94.62)"/><path class="cls-2" d="M229.73,375.5c16.36-15.49,36.58-15.88,54.27-23,12.42-5,21.55-13.81,26.19-26.41,6.07-16.5-2.83-27.71-20.64-27-20.91.83-33.43,13.1-41.92,30.65-2.11,4.36-4.06,9.35-4.08,14.05-.05,9.37-4.54,16.06-10.41,22.45C231.66,367.8,229.69,369.3,229.73,375.5Z" transform="translate(-70.77 -94.62)"/><path class="cls-2" d="M442.75,226.37c-13.73,7.62-25.17.92-37.22-3.94C380.38,212.29,357.21,236.5,359.2,262c1.06,13.6,21.92,20.69,36,12.84a53.16,53.16,0,0,0,18.89-18.24c6.3-10.14,14.52-17.43,24.08-23.86C439.87,231.58,442.4,230.78,442.75,226.37Z" transform="translate(-70.77 -94.62)"/><path class="cls-3" d="M518.79,495,536,510.26C531.88,503.28,524.87,499.64,518.79,495Z" transform="translate(-70.77 -94.62)"/><path class="cls-4" d="M362.5,307.43c1.21,7,5.17,12.1,11.24,15.72Z" transform="translate(-70.77 -94.62)"/><path class="cls-6" d="M87.26,594.24l7.82-9.34c4.28,3.72,9.84,6.29,14.79,6.29,5.69,0,8.47-2.24,8.47-5.81,0-3.8-3.43-5-8.69-7.17l-7.82-3.34c-6.24-2.54-12.16-7.66-12.16-16.41,0-10,8.92-18,21.45-18a27.81,27.81,0,0,1,19.37,7.89L123.62,557c-4-3-7.74-4.72-12.5-4.72s-7.68,2-7.68,5.4c0,3.7,3.94,5,9.2,7.13l7.67,3.11c7.35,3,11.94,7.87,11.94,16.38,0,10-8.33,18.66-22.68,18.66A33.15,33.15,0,0,1,87.26,594.24Z" transform="translate(-70.77 -94.62)"/><path class="cls-6" d="M142.52,541.62h13.61v24.6h.34l17.95-24.6h15l-18.21,24,21.56,36.18H177.8l-14.64-25.44-7,9.31v16.13H142.52Z" transform="translate(-70.77 -94.62)"/><path class="cls-6" d="M191.34,573.64H214v9.62H191.34Z" transform="translate(-70.77 -94.62)"/><path class="cls-6" d="M223.64,541.62h13.61v60.21H223.64Z" transform="translate(-70.77 -94.62)"/><path class="cls-6" d="M243.68,541.62h14.4l7.26,28.06c1.8,6.58,3,12.66,4.83,19.31h.37c1.82-6.65,3.11-12.73,4.82-19.31l7.11-28.06h13.92l-18.16,60.21H261.87Z" transform="translate(-70.77 -94.62)"/><path class="cls-6" d="M87.26,676.8l7.82-9.34c4.28,3.72,9.84,6.29,14.79,6.29,5.69,0,8.47-2.24,8.47-5.81,0-3.8-3.43-5-8.69-7.17l-7.82-3.34c-6.24-2.54-12.16-7.67-12.16-16.42,0-10,8.92-17.94,21.45-17.94A27.81,27.81,0,0,1,130.49,631l-6.87,8.58c-4-3-7.74-4.72-12.5-4.72s-7.68,2-7.68,5.4c0,3.7,3.94,5,9.2,7.13l7.67,3.11c7.35,3,11.94,7.87,11.94,16.38,0,10-8.33,18.66-22.68,18.66A33.15,33.15,0,0,1,87.26,676.8Z" transform="translate(-70.77 -94.62)"/><path class="cls-6" d="M142.52,624.18h13.61v24.6h.34l17.95-24.6h15l-18.21,24,21.56,36.18H177.8L163.16,659l-7,9.3v16.14H142.52Z" transform="translate(-70.77 -94.62)"/><path class="cls-6" d="M199.25,624.18h13.61v60.21H199.25Z" transform="translate(-70.77 -94.62)"/><path class="cls-6" d="M227.06,624.18H241l15.71,29.94,5.95,13.23H263c-.64-6.37-1.74-14.8-1.74-21.9V624.18h13v60.21H260.33l-15.72-30-6-13.16h-.37c.64,6.65,1.74,14.71,1.74,21.81v21.37h-13Z" transform="translate(-70.77 -94.62)"/><path class="cls-6" d="M285.65,654.63c0-20,13.2-31.56,28.42-31.56a25.41,25.41,0,0,1,18.11,7.81L325,639.61c-3-2.81-6.27-4.79-10.62-4.79-8.26,0-14.78,7.28-14.78,19.36,0,12.37,5.76,19.57,14.56,19.57,4.94,0,8.84-2.44,11.78-5.63l7.18,8.55a24.81,24.81,0,0,1-19.45,8.83C298.4,685.5,285.65,674.92,285.65,654.63Z" transform="translate(-70.77 -94.62)"/><path class="cls-6" d="M353.47,624.18h16.29l18.91,60.21H374.26l-7.88-30.49c-1.67-6-3.28-13.15-4.89-19.43h-.37c-1.45,6.36-3.06,13.41-4.74,19.43l-7.91,30.49H334.56ZM347,659.47h29v10.58H347Z" transform="translate(-70.77 -94.62)"/><path class="cls-6" d="M394.46,624.18h21.69c12.77,0,23.24,4.43,23.24,18.75,0,13.84-10.47,19.79-23.24,19.79h-8.07v21.67H394.46ZM415,651.91c7.16,0,11-3.06,11-9S422.2,635,415,635h-7v16.93Zm-1.38,7.22,9.42-8.71,19.21,34H427.06Z" transform="translate(-70.77 -94.62)"/><path class="cls-6" d="M451.09,624.18h37.74v11.41H464.71v12.1h20.53V659.1H464.71V673h25v11.41H451.09Z" transform="translate(-70.77 -94.62)"/></svg>