<?xml version="1.0" encoding="utf-8"?>
<!-- Generator: Adobe Illustrator 25.2.1, SVG Export Plug-In . SVG Version: 6.00 Build 0)  -->
<svg version="1.1" id="Layer_1" xmlns="http://www.w3.org/2000/svg" xmlns:xlink="http://www.w3.org/1999/xlink" x="0px" y="0px"
	 viewBox="0 0 241.4 364.5" style="enable-background:new 0 0 241.4 364.5;" xml:space="preserve">
<style type="text/css">
	.st0{fill:#D1EAF8;}
	.st1{clip-path:url(#SVGID_2_);}
	.st2{fill-rule:evenodd;clip-rule:evenodd;fill:#7EB1D7;}
	.st3{clip-path:url(#SVGID_4_);}
	.st4{fill:#A4D5F0;}
	.st5{fill-rule:evenodd;clip-rule:evenodd;fill:#A4D5F0;}
	.st6{fill-rule:evenodd;clip-rule:evenodd;fill:#FEF6F0;}
	.st7{fill:#100F0D;}
	.st8{clip-path:url(#SVGID_6_);}
	.st9{fill:#FEF6F0;}
	.st10{fill:#7EB1D7;}
	.st11{font-family:'OpenSans-Bold';}
	.st12{font-size:25px;}
</style>
<g id="Layer_2_1_">
	<g id="Layer_1-2">
		<rect y="0" class="st0" width="241.4" height="364.5"/>
		<g>
			<defs>
				<rect id="SVGID_1_" x="75.4" y="156.1" width="90" height="179.2"/>
			</defs>
			<clipPath id="SVGID_2_">
				<use xlink:href="#SVGID_1_"  style="overflow:visible;"/>
			</clipPath>
			<g class="st1">
				<path class="st2" d="M97.7,156.5c11.1-0.5,46.2,0.5,46.2,0.5c10.9,0.5,19,6.5,20,14.8c3.3,28.5,0.4,147.8,0,155.9
					c-0.6,10.1-85.8,10.6-86.3-0.5c-0.3-8.1-4-124.2-0.7-152.6C78,165.4,86.7,157,97.7,156.5"/>
			</g>
		</g>
		<g>
			<defs>
				<rect id="SVGID_3_" x="75.4" y="90.5" width="90" height="245.2"/>
			</defs>
			<clipPath id="SVGID_4_">
				<use xlink:href="#SVGID_3_"  style="overflow:visible;"/>
			</clipPath>
			<g class="st3">
				<path class="st4" d="M162.9,328.5c0.1,0.1,0,0.3-0.1,0.4c0,0,0,0,0,0c0,0-0.1,0-0.1,0c-0.1,0-0.2-0.1-0.3-0.2
					c-3-7.7-42.8-7.4-43.2-7.4s-35,0.6-40.4,7.1c-0.1,0.1-0.3,0.1-0.4,0c0,0,0,0,0,0c-0.1-0.1-0.1-0.3,0-0.4c0,0,0,0,0,0
					c5.6-6.7,39.4-7.3,40.8-7.3C120.8,320.8,159.8,320.4,162.9,328.5"/>
				<path class="st5" d="M122,161.3c0,10.1,1.4,140.5,1.4,140.5s-5.5,0.6-6,0.2s-1-140.9-1-140.9L122,161.3"/>
				<path class="st6" d="M103.3,113.8c0,0-3.6,0.3-3.6-0.3c0-1.5-0.1-8-0.1-8s14.5-2.3,21.8-2.2c8.1,0.1,27,2.9,27,2.9l0.5,6.1
					l-3,2.2l-11.6-1.4l-0.7,15.6c3.8,0.3,8.2,1.1,8.2,1.9c0.3,5.1,1.7,27.4,1.7,27.4c0.2,7.9-46.3,6.5-46.5,1.1c0-1.3-1-24,0-28.1
					c0.2-1,3-1.5,5.7-1.9L103.3,113.8"/>
				<path class="st7" d="M103.3,114.1c-0.2,0-0.3-0.1-0.3-0.3c0-0.2,0.1-0.3,0.3-0.3c0.9,0,1.7,0.1,2.6,0.3c0.9,0.1,1.8,0.2,2.7,0.3
					c8.5,0.3,17-0.1,25.4-1.3c0.1,0,0.3,0.1,0.3,0.2c0,0.2-0.1,0.3-0.2,0.3c-6.6,1-13.4,1.5-20.1,1.4c-1.7,0-3.5,0-5.4-0.1
					c-0.9,0-1.8-0.1-2.8-0.3C105,114.2,104.2,114.1,103.3,114.1 M141.3,130.7c-2.2,1.9-13.1,4.1-23.6,4.2h-0.2
					c-10.2,0-19.3-3.3-19.9-3.7c-0.1-0.1-0.3-0.1-0.4,0c-0.1,0.1-0.1,0.2,0,0.3c0.5,0.6,10.3,4,20.3,4h0.2c10.9-0.1,21.6-2.3,24-4.3
					c0.1-0.1,0.1-0.3,0-0.4c0,0,0,0,0,0C141.6,130.6,141.5,130.6,141.3,130.7L141.3,130.7z M102.5,128.6c-0.1,0.1-0.1,0.3,0,0.4
					c0,0,0,0,0,0c0,0,0.1,0,0.2,0.1l0.4,0.1c3.9,1.1,7.9,1.7,11.9,1.8h0.1c7.8,0,17.2-1.3,18.7-2c0.1-0.1,0.2-0.2,0.1-0.4
					c-0.1-0.1-0.2-0.2-0.4-0.1c0,0,0,0,0,0c-1.3,0.7-10.4,2-18.4,2H115c-4-0.1-7.9-0.7-11.7-1.8
					C102.7,128.4,102.6,128.4,102.5,128.6L102.5,128.6z M153.2,160c0,0.3-0.2,0.6-0.4,0.8c-2.5,2.6-17.9,7.9-31.5,7.9h-0.2
					c-15,0-31.3-5.9-33.9-8.3c-0.1,0-0.1-0.1-0.1-0.2c0-0.5,0.1-46.1,0.5-60.9c0-2.1,4-4.2,10.7-5.8c7.5-1.7,15.3-2.5,23-2.2
					c15,0.4,30.9,3,32,6.8c0,0,0,0.1,0.1,0.2v0.1c0,0.1,0,0.2,0,0.3C153,111.5,153.1,154.6,153.2,160z M152.8,99.3
					c-1.5,1.4-5.7,2.7-12.8,3.8c-7,1.2-14.1,1.9-21.3,2.1h-3.1c-10.2,0.2-22.8,0.3-27.5-5.9c-0.4,14.4-0.5,58.1-0.5,60.8
					c2.9,2.4,18.8,8,33.5,8h0.2c13.7,0,28.9-5.5,31.1-7.8c0.2-0.2,0.3-0.4,0.3-0.4C152.5,154.8,152.4,113.1,152.8,99.3L152.8,99.3z
					 M152.8,98.3c-0.6-3.1-14.5-6-31.5-6.5c-7.7-0.2-15.4,0.5-22.9,2.3c-5.5,1.3-9.2,3.1-10.1,4.6c4.4,6.4,17.1,6.2,27.3,6h3.1
					c7.1-0.2,14.2-0.8,21.2-2C151.4,100.7,152.7,99,152.8,98.3L152.8,98.3z M147.9,108c0.1,0.4,0.7,4.3,0.4,4.9
					c-0.1,0.1-0.2,0.1-0.2,0.2c0,0-0.1,0-0.2,0.1c-0.3,0.1-0.5,0.2-0.8,0.3c-0.1,0-0.2,0-0.3-0.1c-0.1-0.1-0.2-0.3-0.1-0.5
					c0.1-1.3,0.1-2.5,0-3.8c0-0.2,0-0.4,0-0.4c0-0.1,0-0.1,0.1-0.2c0.7-0.8,0.9-0.7,1-0.7C147.8,107.8,147.9,107.9,147.9,108z
					 M147.5,108.4c-0.1,0.1-0.2,0.2-0.3,0.3c0,0.1,0,0.2,0,0.3c0.1,1.3,0.1,2.5,0,3.8c0.1-0.1,0.3-0.1,0.4-0.2l0.2-0.1
					C147.8,111.1,147.7,109.7,147.5,108.4L147.5,108.4z M148,106.3l-2.7,2c-1.1-0.1-10.2-1-16.1-0.9c-3.8,0.1-7.7,0.2-11,0.4
					c-3.1,0.2-5.7,0.3-7.6,0.3c-3.1,0-6.2-0.7-9-2.1c-0.8-0.3-1-0.4-1.2-0.3c-0.1,0.1-0.2,0.2-0.1,0.4c0,0,0,0,0,0
					c0.1,0.1,0.2,0.2,0.3,0.1c0.3,0.1,0.6,0.2,0.8,0.3c2.9,1.4,6,2.1,9.2,2.1c1.9,0,4.5-0.1,7.6-0.3c3.4-0.2,7.2-0.4,11-0.4
					c5.8-0.1,15,0.8,16,0.9v0.4v1v1.2c0,1,0,2.2,0,2.9c0,0.2,0.1,0.3,0.3,0.3c0.1,0,0.3-0.1,0.3-0.3c0,0,0,0,0,0c0-0.8,0-1.9,0-2.9
					v-1.2c0-0.3,0-0.7,0-1v-0.4c0-0.1,0-0.1,0-0.2l2.5-1.8c0.1-0.1,0.2-0.3,0.1-0.4C148.3,106.3,148.2,106.2,148,106.3
					C148,106.3,148,106.3,148,106.3L148,106.3z"/>
			</g>
		</g>
		<g>
			<defs>
				<rect id="SVGID_5_" x="80.1" y="165.4" width="80.9" height="170"/>
			</defs>
			<clipPath id="SVGID_6_">
				<use xlink:href="#SVGID_5_"  style="overflow:visible;"/>
			</clipPath>
			<g class="st8">
				<path class="st9" d="M158.7,185.9c0.1,0,0.3,0.1,0.3,0.3c0,0,0,0,0,0l0.1,5.1c0,0.2-0.1,0.3-0.3,0.3c-0.1,0-0.3-0.1-0.3-0.3
					c0,0,0,0,0,0l-0.1-5.1C158.4,186.1,158.5,185.9,158.7,185.9C158.7,185.9,158.7,185.9,158.7,185.9 M153.1,166.7
					c0.2,0.1,0.5,0.2,0.7,0.4c0.9,1,1.7,2,2.3,3.2c1.9,3.4,2.2,7.2,2.2,10.5c0,0.2,0.1,0.3,0.3,0.3c0.2,0,0.3-0.1,0.3-0.3
					c0-3.4-0.3-7.3-2.3-10.8c-0.6-1.2-1.4-2.3-2.4-3.3c-0.3-0.2-0.5-0.4-0.8-0.5c-0.2-0.1-0.3-0.2-0.5-0.3c0.1-0.1,0.1-0.2,0-0.3
					c-0.1-0.1-0.3-0.1-0.4,0c0,0,0,0,0,0c-0.1,0.1-0.2,0.2-0.2,0.4C152.3,166.3,152.7,166.5,153.1,166.7z M108.9,222.5
					c1.1,0,2,0.6,2.5,1.6c1.4,2.4,0.3,7.1-0.4,8.5c-0.9,2-2.9,3.3-5.1,3.5c-0.5,0-1-0.1-1.5-0.3c-1.6-0.6-3.2-2.4-2.5-5.8
					C102.5,227.6,104.9,222.3,108.9,222.5z M108.5,226c-1.1,0.4-2.7,2.8-3.1,4.7c-0.2,0.9-0.1,1.6,0.2,1.7s1.5-0.1,2.3-1.6
					C108.5,229.3,108.7,227.6,108.5,226L108.5,226z M113.8,233.2c-0.9-1.1-1.2-2.6-0.9-3.9c0.5-2.2,2-4.1,3.9-5.3
					c2-1.1,3.9-1.1,5.4-0.1c0.4,0.3,0.7,0.6,0.8,1h0.1c0.8,0.6,0.8,1.2,1,4.4c0,0.2,0,0.4,0,0.6c1.6-1.5,3.1-3.1,4.6-4.8l0.9-1
					c0.1-1.1,0.3-2.2,1.6-2.4c0.9,0,1.6,0.5,1.9,1.3c0.6-0.7,1.5-1.1,2.4-1.2c1.3,0.1,2.5,0.9,3.1,2.1c0.6-0.7,1-1.2,1-1.2
					c1.9-2,3.4-1.9,4.2-1.5c1.9,0.9,1.6,3.2,1.4,4.8c-0.1,0.7-0.2,1.4-0.1,2.1c0.4,0,0.8-0.1,1.2-0.2c0.9-0.2,1.9,0.4,2.1,1.3
					s-0.4,1.9-1.3,2.1c-0.7,0.2-2.9,0.7-4.4-0.7s-1.2-3.4-0.9-5.1c-0.6,0.8-1.2,1.7-1.7,2.6c0.2,2.8-1.7,3.3-2.1,3.4
					c-0.8,0.1-1.6-0.3-1.9-0.9c-0.4-0.7-0.1-1.9,0.4-3c-0.2-0.7-0.4-1.4-0.8-2c-0.8,1.2-1.5,2.4-2.1,3.7L133,230l-0.1,0.2
					c-0.5,1.3-1,2.4-2.2,2.5c-0.7,0.1-1.3-0.2-1.8-0.7c-0.3-0.5-0.5-1-0.4-1.6c-2.7,2.9-4.4,4.1-5.9,3.8c-0.8-0.2-1.5-0.8-1.8-1.6
					c-0.1-0.2-0.1-0.5-0.2-0.7c-1.2,1.4-2.7,2.6-4.2,2.7h-0.2C115.4,234.5,114.4,234,113.8,233.2z M116.5,230.9
					c1.1-0.7,1.9-1.7,2.6-2.8c0.3-0.5,0.6-0.9,0.8-1.4h-0.1c-0.4,0-0.9,0.2-1.2,0.4c-1.1,0.7-1.8,1.7-2.2,2.9
					C116.3,230.3,116.3,230.7,116.5,230.9z M95.2,247.1c1.6-0.1,1.8-1.7,1.9-3.5l0.1-1.1c0.2-1.6,0.4-3.2,0.6-4.8v-0.4
					c0.5-4,1-8,1.8-11.9c0.9-0.3,1.8-0.5,2.9-0.8c0.9-0.3,1.5-1.2,1.2-2.2s-1.2-1.5-2.2-1.2l0,0l-1,0.3c0.6-2.3,1.5-4.5,2.5-6.6
					c2-4.2,3.3-4.1,3.6-4c0.9,0.4,1.9,0,2.3-0.9c0.4-0.9,0-1.9-0.9-2.3c-0.1,0-0.2-0.1-0.2-0.1c-2.9-1.1-5.6,0.9-8,5.8
					c-1.4,3-2.5,6.1-3.2,9.3c-1.2,0.4-2.4,0.8-3.5,1.2c0,0-4,1.5-4.2,3.1c-0.1,0.7,0.2,1.3,0.8,1.7c0.6,0.4,1.3,0.4,1.9,0
					c0.1-0.1,0.2-0.1,0.3-0.2c0.6-0.4,2.1-1.2,2.4-1.4l1.4-0.5c-0.7,3.5-1.1,7-1.5,10.2v0.4c-0.2,1.6-0.4,3.2-0.6,4.9l-0.1,1.2
					c0,0.2-0.1,0.8-0.1,1.2c-0.1,0.3-0.2,0.6-0.2,0.9c0.1,0.9,0.8,1.6,1.8,1.6L95.2,247.1z M141.2,239.7c-0.5,0.3-0.9,0.5-1,0.9
					c0,0.5,0.5,0.7,0.9,0.8c0.2,0,0.4,0.1,0.5,0.2c1.1,0.8,2,1.6,2.9,2.6c0.1,0.1,0.1,0.1,0.2,0.1c0.2,0,0.3-0.1,0.3-0.3
					c0-0.1,0-0.1-0.1-0.2c-0.9-1-1.9-1.9-3-2.7c-0.2-0.1-0.4-0.2-0.7-0.2c-0.2,0-0.3-0.1-0.5-0.2c0-0.1,0.4-0.3,0.7-0.4
					c0.8-0.4,2-1.1,1.4-2.3c-0.4-0.8-1.5-0.7-2.2-0.5c-0.1,0-0.2,0.1-0.2,0.1c-0.1-0.1-0.2-0.1-0.3-0.1c-0.1,0-0.2,0.2-0.2,0.3
					c0,0,0,0,0,0l0,0c-0.1,0.1-0.1,0.2-0.1,0.3c0,0.3,0,0.6-0.1,0.9v0.2c-0.1,1.3-0.1,2.5,0,3.6c0,0.2,0.1,0.2,0.3,0.3
					c0.2,0,0.3-0.1,0.3-0.3c-0.1-1.1-0.1-2.3,0-3.6V239v-0.5c0.1,0,0.2,0,0.2,0c0.1-0.1,0.2-0.2,0.1-0.4c0-0.1,0.1-0.3,0.2-0.3
					c0.5-0.2,1.2-0.2,1.5,0.2C142.8,238.8,142.2,239.2,141.2,239.7L141.2,239.7z M137.1,238.1c0.1,0,0.3-0.1,0.3-0.3
					c0-0.2-0.1-0.3-0.3-0.3c-0.5,0-2.6,0.1-3.3,0.7c-0.1,0.1-0.1,0.3,0,0.4l0.1,0.1c-0.1,0.2,0,0.5,0.1,1c0.1,0.2,0.1,0.5,0.2,0.8
					v0.2c-0.1,0-0.2,0-0.2,0.1c-0.1,0.1-0.2,0.2-0.1,0.4c0.1,0.1,0.1,0.2,0.3,0.2c-0.1,1.3-0.1,2.4,0.2,2.9c0.1,0.1,0.3,0.2,0.5,0.2
					c0.4,0,0.8-0.1,1.2-0.2c0.3,0,0.8-0.1,0.8-0.1c0.1,0,0.3-0.1,0.3-0.2c0,0,0,0,0,0c0-0.2-0.1-0.3-0.2-0.3c-0.3,0-0.7,0.1-1,0.1
					c-0.4,0.1-0.8,0.1-1.2,0.1c-0.2-0.8-0.2-1.6-0.1-2.4c0,0,0-0.1,0-0.1c0.1,0,0.3-0.1,0.4-0.1l0.6-0.1l1.1-0.1
					c0.2,0,0.3-0.1,0.2-0.3c0-0.1-0.1-0.3-0.3-0.3c0,0,0,0,0,0l-1.1,0.1l-0.6,0.1l-0.3,0.1v-0.1c0-0.3-0.1-0.6-0.2-0.9
					c0-0.2-0.1-0.4-0.1-0.5c0.1,0,0.1-0.1,0.1-0.1c0.1-0.1,0-0.3-0.1-0.4c0,0-0.1,0-0.1,0C135.2,238.2,136.1,238.1,137.1,238.1
					L137.1,238.1z M131,239.6c0.4-0.2,0.8-0.3,1.2-0.3c0,0,0.1,0.1,0.1,0.1c0.1,0.1,0.3,0,0.4-0.1c0.1-0.1,0.1-0.3,0-0.4
					c-0.2-0.3-1-0.2-1.5,0c-0.6,0.1-1.1,0.7-1.2,1.3c0,0.3,0.3,0.7,0.8,1.4s1,1.3,0.9,1.5c0,0-0.2,0.2-1.1,0.2
					c-0.2,0-0.3,0.1-0.3,0.3c0,0.2,0.1,0.3,0.3,0.3h0.4c0.7,0,1.1-0.2,1.3-0.5c0.3-0.6-0.3-1.4-1-2.1c-0.3-0.3-0.5-0.6-0.7-1
					C130.6,240,130.8,239.8,131,239.6z M124.8,257.3c0.1,0,0.3-0.1,0.3-0.2c0-0.2-0.1-0.3-0.2-0.3c-3.9-0.4-7.9-0.5-11.8-0.4
					c-0.3,0-0.6,0-0.9,0c-1.6-0.1-2.9-0.1-3.5,0.3c-0.1,0.1-0.1,0.3,0,0.4c0.1,0.1,0.3,0.1,0.4,0c0.4-0.3,2.2-0.2,3.1-0.2h0.9
					C117,256.8,120.9,256.9,124.8,257.3L124.8,257.3z M125.3,240.9c0.1,0.1,0.2,0.4,0.3,0.6c0.6,1.3,1.2,2.2,1.7,2.4h0.1
					c0.1,0,0.1,0,0.2-0.1c0.2-0.1,0.3-0.5,0.5-1.4l0.1-0.7c0.2-1.1,0.4-2.2,0.6-3.2c0.1-0.1,0-0.3-0.2-0.4s-0.3,0-0.4,0.2
					c0,0,0,0,0,0.1c-0.3,1.1-0.4,2.2-0.7,3.3l-0.2,0.8c0,0.3-0.1,0.6-0.2,0.9c-0.5-0.6-0.9-1.3-1.2-2c-0.1-0.3-0.2-0.5-0.3-0.7
					c-0.2-0.3-0.4-0.7-0.7-1l-0.3-0.3l0,0c-0.1,0-0.1-0.1-0.2-0.1c0-0.1,0-0.1,0-0.2c0-0.1-0.2-0.2-0.3-0.2c-0.1,0-0.2,0.1-0.3,0.2
					c-0.1,0.2-0.1,0.5,0,0.8c0,0.1,0.1,0.3,0.1,0.4l-0.1,0.7c0,0.5-0.1,0.9-0.1,1.4c0,0.2,0.1,0.3,0.3,0.3c0.1,0,0.3-0.1,0.3-0.3
					l0.1-1.4l0.1-0.8c0-0.1,0-0.2,0-0.3c0,0,0.1,0.1,0.1,0.1C124.9,240.3,125.1,240.6,125.3,240.9L125.3,240.9z M150.8,316.6
					c0-0.1-0.2-0.2-0.3-0.2c-1.6,0.4-3.3,0.3-4.8-0.3c-0.3-0.2-0.6-0.4-0.9-0.6c-0.9-0.7-1.5-1.1-1.9-1c-0.7,0.2-1.4,0.6-1.9,1.2
					c-0.5,0.5-1,0.8-1.7,1.1c-0.7,0.3-1.6,0.1-2.1-0.6c-0.1-0.2-0.2-0.4-0.2-0.5c0.2-0.3,0.2-0.7,0-1c-0.1-0.2-0.3-0.2-0.5-0.1
					c0,0,0,0,0,0c-0.2,0.1-0.2,0.6-0.1,1c-0.2,0.4-0.4,0.7-0.7,1.1c-1,1.1-3,2.6-4.6,2.1c-0.4-0.1-0.5-0.7-0.6-1.7
					c-0.1-1.1-0.3-2.6-1.7-3.1c-1.8-0.6-4,0.7-5.3,2.1c-0.4,0.5-0.7,1-0.9,1.6c-0.1,0.2-0.1,0.5-0.1,0.8l0,0c0,0.1,0,0.2,0.1,0.2
					c0.1,0.1,0.2,0.1,0.3,0c0.1-0.1,0.2-0.2,0.2-0.3c0,0,0,0,0-0.1c0-0.2,0-0.4,0-0.5c0.2-0.5,0.4-1,0.8-1.4
					c1.1-1.3,3.1-2.5,4.7-1.9c1.1,0.4,1.2,1.5,1.4,2.6c0.1,0.9,0.2,1.9,1,2.1c0.3,0.1,0.6,0.1,0.9,0.1c1.7,0,3.5-1.5,4.3-2.4
					c0.2-0.2,0.4-0.5,0.5-0.7c0,0.1,0.1,0.1,0.1,0.2c0.6,0.9,1.7,1.2,2.7,0.8c0.7-0.3,1.3-0.7,1.9-1.2c0.5-0.5,1-0.8,1.6-1l0,0
					c0.5,0.2,1,0.5,1.5,0.9c0.3,0.3,0.7,0.5,1.1,0.7c1.6,0.6,3.4,0.7,5.1,0.3C150.7,317,150.8,316.9,150.8,316.6
					C150.8,316.7,150.8,316.7,150.8,316.6L150.8,316.6z M160.3,327.6c-0.2-0.2-0.4-0.1-0.9,0.3c-0.2,0.1-0.4,0.3-0.6,0.4
					c-0.6,0.3-1.3,0.6-2.2,0.9c-2.3,0.8-4.7,1.4-7.2,1.7c-0.1,0-0.3,0.2-0.2,0.3c0,0,0,0,0,0c0,0.1,0.1,0.2,0.3,0.2l0,0
					c2.5-0.3,4.9-0.9,7.3-1.8c0.9-0.3,1.6-0.6,2.2-0.9c0.2-0.1,0.5-0.3,0.7-0.4l0.3-0.2c0.1,0,0.2,0,0.3-0.1
					C160.4,327.8,160.4,327.7,160.3,327.6L160.3,327.6z M107.6,241.2c0,0.3,0,0.6-0.1,0.9c-0.1,0.6-0.1,1.2,0,1.9
					c0,0.4,0.5,0.4,1.4,0.4h0.9h0.4c0.2,0,0.3-0.1,0.3-0.3c0-0.1-0.1-0.3-0.2-0.3c0,0,0,0,0,0h-0.4c-0.6,0.1-1.1,0.1-1.7,0
					c0-0.5,0-1.1,0.1-1.6c0-0.3,0.1-0.6,0.1-0.9c0-0.2,0-0.3,0.1-0.5c0.1-0.7,0.1-1-0.1-1.1c-0.2-0.1-0.3,0-0.4,0.1
					c-0.1,0.1-0.1,0.3,0,0.4c0,0,0,0,0,0l0,0c0,0.1,0,0.4-0.1,0.5S107.7,241.1,107.6,241.2z M104.9,241.4c0.1,0,0.3,0,0.4-0.2
					c0.3-0.6,0-0.9-0.2-1c-0.6-0.3-1.6,0.1-2,0.6c-0.8,0.8-1,2-0.4,3c0.5,0.6,1.2,1,2,1c0.4,0,0.7-0.1,1.1-0.2
					c0.1,0,0.2-0.2,0.2-0.3c0,0,0,0,0,0c0-0.1-0.2-0.2-0.3-0.2c0,0,0,0,0,0c-0.9,0.4-1.8,0.1-2.4-0.6c-0.4-0.8-0.3-1.8,0.4-2.4
					c0.3-0.3,0.8-0.5,1.3-0.5c0,0,0,0.2,0,0.4C104.7,241.2,104.8,241.3,104.9,241.4z M90.3,331.9c-3.4-0.3-6.7-1.3-9.7-3
					c-0.1-0.1-0.3,0-0.4,0.1c0,0,0,0,0,0c-0.1,0.1,0,0.3,0.1,0.4c0,0,0,0,0,0c3.1,1.7,6.4,2.8,9.9,3.1l0,0c0.1,0,0.3-0.1,0.3-0.2
					C90.6,332.1,90.5,331.9,90.3,331.9C90.3,331.9,90.3,331.9,90.3,331.9z M112.1,239.6c0,0.1,0.1,0.1,0.2,0.1c0,0.2,0,0.5,0,0.7
					c0,0.1,0,0.1,0,0.2s0,0.3,0,0.6c-0.1,1.4-0.2,2.8,0.4,3.3c0.2,0.1,0.3,0.2,0.5,0.1c0.5,0,0.9-0.1,1.3-0.3
					c0.2-0.1,0.5-0.1,0.7-0.2c0.2,0,0.3-0.1,0.3-0.3c0,0,0,0,0,0c0-0.1-0.1-0.3-0.3-0.3l0,0c-0.3,0-0.6,0.1-0.9,0.2
					c-0.4,0.1-1.2,0.4-1.4,0.2c-0.3-0.2-0.3-1.3-0.2-2.1c0.3,0,0.7,0,1.5-0.1h0.4c0.2,0,0.3-0.1,0.2-0.3c0-0.1-0.2-0.3-0.3-0.2h-0.4
					c-0.3,0-1,0.1-1.4,0.1c0,0,0-0.1,0-0.1c0-0.2,0-0.4,0-0.6v-0.1c0-0.3,0-0.5,0.1-0.6h0.1l0.9-0.1c0.3,0,0.5-0.1,0.8-0.1
					c0.1,0,0.3-0.1,0.3-0.3c0,0,0,0,0,0c0-0.1-0.1-0.3-0.3-0.3c0,0,0,0,0,0c-0.3,0-0.6,0.1-0.8,0.1l-0.8,0.1c-0.1,0-0.2-0.1-0.3-0.1
					c-0.2-0.1-0.4-0.2-0.6,0C112,239.4,112,239.5,112.1,239.6z M122.1,243v0.2c0,0.2-0.1,0.3-0.2,0.3c-0.1,0-0.3-0.1-0.3-0.2
					c0,0,0,0,0-0.1v-0.2c0-0.5-0.1-0.9-0.1-1.2c-0.8,0-1.6,0.2-2.4,0.5c-0.1,0.1-0.3,0.1-0.4,0c0,0.1-0.1,0.1-0.1,0.2
					c-0.2,0.4-0.3,0.7-0.4,1.1c-0.1,0.1-0.1,0.2-0.2,0.3c0,0,0,0.1-0.1,0.1c0,0.1,0,0.3-0.2,0.3c0,0-0.1,0-0.1,0
					c-0.1,0-0.2,0-0.2-0.1c-0.2-0.2,0-0.4,0.1-0.7c0-0.1,0.1-0.2,0.1-0.2l0.4-1.1c0.1-0.1,0.1-0.3,0.2-0.5c0.6-1.5,1.2-3,2.2-3h0.1
					C121.6,238.7,121.9,240.9,122.1,243L122.1,243z M121.3,241.3c-0.3-1.8-0.7-2-0.9-2l0,0c-0.7,0.1-1.3,1.6-1.6,2.5
					C119.6,241.5,120.5,241.3,121.3,241.3L121.3,241.3z M115.3,334.4h-0.3h-0.2l0,0c-0.1,0-0.3,0.1-0.3,0.2c0,0,0,0,0,0
					c0,0.1,0.1,0.3,0.3,0.3c0,0,0,0,0,0l0,0h0.3h0.2c0.1,0,0.3-0.1,0.3-0.3c0,0,0,0,0,0C115.6,334.5,115.5,334.4,115.3,334.4
					C115.3,334.4,115.3,334.4,115.3,334.4L115.3,334.4z M121,252.2c6-0.1,12.1-0.3,18.1-0.7c0.1,0,0.3-0.1,0.3-0.3c0,0,0,0,0,0
					c0-0.2-0.1-0.3-0.3-0.3c0,0-0.1,0-0.1,0l0,0c-6,0.4-12.2,0.5-18.1,0.7c-3.8,0.1-7.8,0.2-11.6,0.4c-3.3,0.1-6.6,0.2-9.8,0.3
					c-1.1,0-2.4,0-3.7,0c-0.2,0-0.5-0.1-0.7-0.1c-0.7-0.1-0.9-0.2-1,0.1c0,0.1-0.1,0.2,0.2,0.4c0.1,0.1,0.2,0.1,0.3,0l0.4,0.1
					c0.3,0.1,0.6,0.1,0.8,0.1c0.5,0,1.1,0,1.6,0c0.7,0,1.4,0,2.1,0c3.2-0.1,6.5-0.2,9.8-0.3C113.2,252.4,117.1,252.3,121,252.2
					L121,252.2z"/>
			</g>
		</g>
		<rect x="0.7" y="1.1" class="st10" width="240.1" height="70.1"/>
		<text transform="matrix(1 0 0 1 27.16 44.63)" class="st9 st11 st12">C</text>
		<text transform="matrix(1 0 0 1 51.44 44.63)" class="st9 st11 st12">L</text>
		<text transform="matrix(1 0 0 1 73.62 44.63)" class="st9 st11 st12">E</text>
		<text transform="matrix(1 0 0 1 95.65 44.63)" class="st9 st11 st12">A</text>
		<text transform="matrix(1 0 0 1 121.46 44.63)" class="st9 st11 st12">N</text>
		<text transform="matrix(1 0 0 1 150.83 44.63)" class="st9 st11 st12">S</text>
		<text transform="matrix(1 0 0 1 172.59 44.63)" class="st9 st11 st12">E</text>
		<text transform="matrix(1 0 0 1 194.63 44.63)" class="st9 st11 st12">R</text>
	</g>
</g>
</svg>
