<svg xmlns="http://www.w3.org/2000/svg" xmlns:xlink="http://www.w3.org/1999/xlink" viewBox="0 0 241.42 364.51"><defs><style>.cls-1{fill:none;}.cls-2{fill:#d9d9d9;}.cls-3{clip-path:url(#clip-path);}.cls-4{fill:#0f0e0c;}.cls-5{fill:#fff;}</style><clipPath id="clip-path"><rect class="cls-1" x="12.47" y="24.97" width="216" height="324"/></clipPath></defs><g id="Layer_2" data-name="Layer 2"><g id="Layer_1-2" data-name="Layer 1"><rect class="cls-2" width="241.42" height="364.51"/><g class="cls-3"><path class="cls-4" d="M212.67,236.5c-1.08-1.63-2.22-3.27-3.34-4.84-3.62-5.15-7-10-8.72-15.72-2.27-7.71-1-16.21.12-23.71l.19-1.35c3-19.91,6.05-40.5,5.1-60.95-1.09-23.63-7.77-44.12-19.28-59.27C174.77,54.94,157.05,45,139.24,44,124.49,29.45,99.46,25.13,78.1,33.54,57.93,41.48,40.34,59.65,28.57,84.72c-6.57,14-9.17,25.61-8.16,36.42,1,10.35,5.84,19.83,13.12,25.69.19.17.39.32.59.48q.18,3,.15,6c-.07,15.43-3.72,30.9-7.06,43.08-.94,3.44-1.94,7-2.9,10.34-5.83,20.44-11.85,41.57-10,63A89.82,89.82,0,0,0,39.15,324l.12.12.14.09A140.48,140.48,0,0,0,72.35,340.9c1.49.52,3,1,4.46,1.48a138.52,138.52,0,0,0,41.3,6.43,127.57,127.57,0,0,0,13.85-.75q2.85-.31,5.69-.76c1.6-.25,3.2-.53,4.79-.84a140.55,140.55,0,0,0,84.79-53.76l.29-.4,0-.48a93.59,93.59,0,0,0-14.88-55.32"/><path class="cls-5" d="M210,238.26a90.29,90.29,0,0,1,14.38,52.92,137.47,137.47,0,0,1-79.43,51.49A57.09,57.09,0,0,0,153,308.56a62.8,62.8,0,0,0-5.76-20.81c-3.28-7.27-7.18-14.34-9-22.16a61.56,61.56,0,0,1-1-21c.18-1.59.41-3.18.68-4.76a146.46,146.46,0,0,1,4.48-18.43q.9-3,1.82-5.85c5-15.6,9.74-31,10.37-47.46.55-14.42-1.25-29.35-6.16-43a19.82,19.82,0,0,0,3.17-1.53,32,32,0,0,0,13.62-17.61c3.32-10.25,1.61-21.21-2-31.13-.29-.82-1.79-.36-1.54.52,3.06,10.75,3.87,22.66-.93,33.05a29.57,29.57,0,0,1-8.92,11.24,22.11,22.11,0,0,1-4.49,2.62,12.66,12.66,0,0,1-2.68.82c-2.68.49-5.13-.3-6.06-3.89-.63-2.45-.3-5.31-.3-7.82,0-2.75,0-5.5-.17-8.25a64.17,64.17,0,0,0-2.41-15.21c-2-6.61-5.69-13.12-11.26-17.28a22.44,22.44,0,0,0-3.07-1.94c-.41-.22-.84-.43-1.27-.62-1.28-.57-3.2.92-1.66,1.91a30.61,30.61,0,0,1,2.88,2.13c-.81,15.59-9.57,30.25-22.68,39.42-8.85,6.19-18.91,9-29.21,11.8a109.1,109.1,0,0,0-12.62,4h0c-1.74.69-3.44,1.47-5.11,2.32a43.81,43.81,0,0,0-9,6.08c-.72.63-1.4,1.27-2.06,1.94-.83.83-1.64,1.7-2.4,2.59.36,1.48.66,2.95.93,4.46a54.11,54.11,0,0,1,.77,7.75c.18,7.34-.71,14.66-1.2,22-.92,14,.57,27.43,9,39.07a54.75,54.75,0,0,0,27.16,19.67A63.42,63.42,0,0,1,78.17,247c.1.79.17,1.57.23,2.36a52.75,52.75,0,0,1,0,7.95,57.5,57.5,0,0,1-4.29,17.31c-2.95-5.7-6.28-11.22-9.54-16.62-.47-.78-2.18-.33-1.7.59,3.27,6.4,6.68,13.07,9.58,19.94q.94,2.26,1.82,4.55c4.35,11.47,6.9,23.46,4.71,35.67-1.17,6.53-4,12.66-5.83,19A137.49,137.49,0,0,1,41.35,321.7a86.65,86.65,0,0,1-23.9-52.22c-1.76-20.84,4.19-41.68,9.93-61.84,1-3.4,2-6.91,2.92-10.37,3.81-13.94,8-32.12,7-49.87,0-.35,0-.69-.06-1.05l-.06-.74-.61-.44c-.46-.34-.91-.69-1.35-1.06-6.38-5.3-10.78-14.05-11.66-23.27-1-10.21,1.55-21.26,7.87-34.77,11.42-24.31,28.39-41.91,47.8-49.55,20.42-8,44.32-3.84,58.13,10.21l.44.44.63,0c17.08.75,34.18,10.24,45.72,25.41,11.12,14.62,17.56,34.49,18.63,57.47.93,20.14-2.11,40.57-5.06,60.32l-.2,1.35c-1.17,7.83-2.5,16.71,0,25.1,1.82,6.2,5.56,11.51,9.17,16.65,1.1,1.56,2.23,3.17,3.28,4.76m-34-52.12c11.32-9.34,19.61-24.68,17-39.12-1.34-7.39-6.92-14.57-14.66-15.73a15,15,0,0,0-11,2.75,68.32,68.32,0,0,0-5-8.06c-.5-.69-2.14-.07-1.68.8,1.67,3.11,3.2,6.26,4.56,9.47.29.67.56,1.33.84,2,1.1,2.75,2.09,5.54,2.95,8.37.42,1.38.81,2.78,1.16,4.18a85.86,85.86,0,0,1,2.46,14.82,84.83,84.83,0,0,1-.87,19.7c-.23,1.49-.49,3-.79,4.47-1.12,5.78-2.67,11.52-4.36,17.34-.39,1.34,1.94,1.25,2.44.38a59.45,59.45,0,0,0,7-21.37Zm16.7,108.78c.49-11.47-2.73-22.45-6.6-33.12-6.81-18.79-17-43.45-2-61.13.73-.86-.77-1.56-1.39-.86-14.06,15.75-8.79,38.43-2.64,56.35,3.86,11.22,8.25,22.57,8.49,34.6a59.61,59.61,0,0,1-2.14,17c-1.54,5.63-4.09,10.73-6.43,16.05-.71,1.61,1.87,2,2.69,1,6.64-8.14,9.55-19.55,10-29.88ZM116.31,56.47c1.34,0,2.5-2,.7-2.35-16.48-3.13-35.2,2.42-49.18,11.1a78,78,0,0,0-31.59,38.41C33,112.15,31,121.83,31.9,131c.08.84,1.66.78,1.77,0,1.37-10.22,3.19-20,7.4-29.49A75.92,75.92,0,0,1,58.76,76.55,74.88,74.88,0,0,1,86.23,60.46c9.9-3.25,19.76-3.84,30.08-4Zm-46,276c.92.84,3-.2,2-1.35-13.17-15.1-23.4-32.65-28-52.25a111.46,111.46,0,0,1-2.67-33,119.22,119.22,0,0,1,2.19-15.87c1.07-5.11,3.27-10.22,3.93-15.36.07-.55-.74-.67-1-.26-2.72,4.1-4.05,9.66-5.27,14.38a105.22,105.22,0,0,0-3,17.08,109.33,109.33,0,0,0,2.1,33.41c4.46,20.07,14.53,39.27,29.74,53.24Zm98.1-196.35a75,75,0,0,1,3.17,7.37,10.43,10.43,0,0,1,8.13-3.11c.62.06,1,.87.33,1.21-2.63,1.35-5.2,2.3-7.21,4.62a3,3,0,0,0-.22.26,86.14,86.14,0,0,1,3.88,19.14,93.34,93.34,0,0,1,.14,15.25c6.57-6.87,11.33-15.46,12.5-25,.9-7.19-.78-15.17-6.94-19.65a11.47,11.47,0,0,0-13.78-.09Zm-22.94-10.15c3.49,12.7,5.61,25.6,5.27,38.92-.4,16.2-4.71,31.37-9.72,46.67-.88,2.68-1.77,5.38-2.61,8.11-16.61,10.82-36.19,16.64-56.26,12.13a58.09,58.09,0,0,1-5.8-1.65q-1.54-.54-3.06-1.17A52,52,0,0,1,51.2,211.71c-8.29-11.35-9.57-24.34-8.69-38,.63-9.83,2.4-22.2-.62-32.43a41.6,41.6,0,0,1,5.25-4.94,42.42,42.42,0,0,1,9.7-5.63,20.38,20.38,0,0,1,3.69,1.52c3.22,1.7,5.71,4.36,8.26,6.89.86.84,3.53.06,2.95-1.38a16.89,16.89,0,0,0-9.66-9c5.16-1.73,10.53-3,15.73-4.45,18.77-5.32,36.34-16.9,43.57-35.78a45.77,45.77,0,0,0,3-13.56A36.17,36.17,0,0,1,133,91.31a73.67,73.67,0,0,1,1.74,16c.08,4.29-.61,9,.45,13.19,1.35,5.36,5.85,6.36,10.3,5.47ZM132,137.79c1,1.18,3.82.64,3.42-1.24-1.46-6.85-8.69-11.42-15.24-12.44-5.91-.92-15.89,1-18.59,7.23-.38.87.71,1.46,1.46,1.12,2.23-1,4.14-2.59,6.48-3.46a17.48,17.48,0,0,1,8.88-.93C124.55,129.11,128.23,133.32,132,137.79ZM118.17,154c0-5.47-1.88-9.92-4.2-9.92s-4.19,4.45-4.19,9.92,1.87,9.93,4.19,9.93S118.17,159.46,118.17,154ZM103.26,192.9c.79-1.85-2.25-2.28-3.13-1a36.8,36.8,0,0,1-5.48,6.24c-6.39-2.74-17.11-1.36-21,5-2-.55-4-1.31-6.12-1.79-.6-.13-1.69.37-1.08,1.09,4.61,5.41,14.61,5.59,20.87,3.82C94.13,204.25,100.47,199.48,103.26,192.9ZM100.47,214c1.68-1.36-.45-3.15-2-2.29a30.09,30.09,0,0,1-8.55,3.35c-2.76.55-5.53.32-8.3.64-.59.07-1.08.78-.46,1.19,5.59,3.71,14.59,1,19.35-2.89ZM76.39,187.66c1.12.16,3.47-1.27,1.91-2.43C74.74,182.6,70,182.07,68,177.57s1.91-7.87,4.51-11.14a18.59,18.59,0,0,0,3.11-18.52c-.26-.69-1.72-.42-1.59.36a21.7,21.7,0,0,1-2.33,13.9c-2,3.56-5.64,6-7.33,9.73C61,179.55,69.4,186.72,76.39,187.66ZM59.86,153.52c0-5.48-1.87-9.93-4.19-9.93s-4.2,4.45-4.2,9.93,1.88,9.92,4.2,9.92S59.86,159,59.86,153.52Zm59.67,79.37a71.66,71.66,0,0,1-41.13,1.37,50,50,0,0,1,3.74,14.51,55.35,55.35,0,0,0,25.68,3.93c9.22-.85,17.45-4.29,25-9.22a123.51,123.51,0,0,1,4-18.52A88.57,88.57,0,0,1,119.53,232.89Z"/><path class="cls-4" d="M212.67,236.5c-1.08-1.63-2.22-3.27-3.34-4.84-3.62-5.15-7-10-8.72-15.72-2.27-7.71-1-16.21.12-23.71l.19-1.35c3-19.91,6.05-40.5,5.1-60.95-1.09-23.63-7.77-44.12-19.28-59.27C174.77,54.94,157.05,45,139.24,44,124.49,29.45,99.46,25.13,78.1,33.54,57.93,41.48,40.34,59.65,28.57,84.72c-6.57,14-9.17,25.61-8.16,36.42,1,10.35,5.84,19.83,13.12,25.69.19.17.39.32.59.48q.18,3,.15,6c-.07,15.43-3.72,30.9-7.06,43.08-.94,3.44-1.94,7-2.91,10.34-5.82,20.44-11.84,41.57-10,63A89.82,89.82,0,0,0,39.15,324l.12.12.14.09A140.48,140.48,0,0,0,72.35,340.9c1.49.52,3,1,4.46,1.48a138.52,138.52,0,0,0,41.3,6.43,127.57,127.57,0,0,0,13.85-.75q2.85-.31,5.69-.76c1.6-.25,3.2-.53,4.79-.84a140.55,140.55,0,0,0,84.79-53.76l.29-.4,0-.48a93.59,93.59,0,0,0-14.88-55.32M41.89,141.27a41.6,41.6,0,0,1,5.25-4.94,42.42,42.42,0,0,1,9.7-5.63,20.38,20.38,0,0,1,3.69,1.52c3.21,1.7,5.71,4.36,8.26,6.89.86.84,3.53.06,2.95-1.38a16.89,16.89,0,0,0-9.66-9c5.16-1.73,10.53-3,15.72-4.45,18.78-5.32,36.35-16.9,43.58-35.78a45.44,45.44,0,0,0,3-13.56A36.09,36.09,0,0,1,133,91.31a73.67,73.67,0,0,1,1.74,16c.08,4.29-.61,9,.45,13.19,1.35,5.36,5.85,6.36,10.3,5.47,3.49,12.7,5.61,25.6,5.27,38.92C150.3,181,146,196.21,141,211.51c-.89,2.68-1.77,5.38-2.61,8.11-16.61,10.82-36.19,16.64-56.26,12.13a58.09,58.09,0,0,1-5.8-1.65q-1.54-.54-3.06-1.17a52,52,0,0,1-22.07-17.22c-8.28-11.35-9.56-24.34-8.68-38,.63-9.83,2.4-22.2-.62-32.43Zm77.64,91.62A88.57,88.57,0,0,0,136.77,225a123.51,123.51,0,0,0-4,18.52c-7.51,4.93-15.74,8.37-25,9.22a55.35,55.35,0,0,1-25.68-3.93,50,50,0,0,0-3.74-14.51A71.66,71.66,0,0,0,119.53,232.89Zm104.84,58.29a137.47,137.47,0,0,1-79.43,51.49A57.17,57.17,0,0,0,153,308.56a63.05,63.05,0,0,0-5.77-20.81c-3.28-7.27-7.18-14.34-9-22.16a61.3,61.3,0,0,1-1-21c.17-1.59.4-3.18.67-4.76a146.46,146.46,0,0,1,4.48-18.43q.9-3,1.82-5.85c5-15.6,9.74-31,10.37-47.46.55-14.42-1.25-29.35-6.15-43a20.13,20.13,0,0,0,3.16-1.53,32,32,0,0,0,13.62-17.61c3.33-10.25,1.61-21.21-2-31.13-.29-.82-1.79-.36-1.54.52,3.06,10.75,3.87,22.66-.93,33.05a29.57,29.57,0,0,1-8.92,11.24,21.66,21.66,0,0,1-4.49,2.62,11.94,11.94,0,0,1-2.68.82c-2.68.49-5.13-.3-6.05-3.89-.64-2.45-.31-5.31-.3-7.82,0-2.75,0-5.5-.18-8.25a63.67,63.67,0,0,0-2.41-15.21c-2-6.61-5.68-13.12-11.26-17.28a22.33,22.33,0,0,0-3.06-1.94c-.42-.22-.85-.43-1.28-.62-1.27-.57-3.2.92-1.66,1.91a29.36,29.36,0,0,1,2.88,2.13c-.81,15.59-9.57,30.25-22.68,39.42-8.85,6.19-18.91,9-29.2,11.8a108.64,108.64,0,0,0-12.63,4h0c-1.74.69-3.44,1.47-5.11,2.32a44.08,44.08,0,0,0-9,6.08c-.71.63-1.4,1.27-2.06,1.94-.83.83-1.64,1.7-2.4,2.59.36,1.48.67,2.95.93,4.46a54.11,54.11,0,0,1,.77,7.75c.18,7.34-.71,14.66-1.19,22-.93,14,.57,27.43,9,39.07a54.75,54.75,0,0,0,27.16,19.67A63.42,63.42,0,0,1,78.17,247c.1.79.17,1.57.23,2.36a52.75,52.75,0,0,1,0,7.95,57.78,57.78,0,0,1-4.28,17.31c-3-5.7-6.29-11.22-9.55-16.62-.47-.78-2.18-.33-1.7.59,3.27,6.4,6.68,13.07,9.58,19.94q.94,2.26,1.82,4.55c4.35,11.47,6.9,23.46,4.71,35.67-1.17,6.53-4,12.66-5.83,19A137.49,137.49,0,0,1,41.35,321.7a86.65,86.65,0,0,1-23.9-52.22c-1.75-20.84,4.19-41.68,9.94-61.84,1-3.4,2-6.91,2.91-10.37,3.81-13.94,8-32.12,7-49.87,0-.35,0-.69-.06-1.05l-.05-.74-.62-.44c-.46-.34-.91-.69-1.35-1.06-6.37-5.3-10.78-14.05-11.66-23.27-1-10.21,1.55-21.26,7.87-34.77,11.42-24.31,28.39-41.91,47.8-49.55,20.42-8,44.32-3.84,58.13,10.21l.44.44.63,0c17.08.75,34.18,10.24,45.72,25.41,11.12,14.62,17.57,34.49,18.63,57.47.94,20.14-2.11,40.57-5.06,60.32l-.2,1.35c-1.17,7.83-2.5,16.71,0,25.1,1.83,6.2,5.56,11.51,9.17,16.65,1.1,1.56,2.23,3.17,3.28,4.76a90.29,90.29,0,0,1,14.38,52.92Zm-46-159.89a15,15,0,0,0-11,2.75,68.39,68.39,0,0,0-5-8.06c-.5-.69-2.14-.07-1.68.8,1.67,3.11,3.2,6.26,4.56,9.47.29.67.56,1.33.85,2q1.65,4.13,2.94,8.37c.42,1.38.81,2.78,1.17,4.18a87.83,87.83,0,0,1,2.46,14.82,85.37,85.37,0,0,1-.88,19.7c-.23,1.49-.49,3-.79,4.47-1.12,5.78-2.67,11.52-4.35,17.34-.39,1.34,1.93,1.25,2.43.38a59.45,59.45,0,0,0,7-21.37c11.32-9.34,19.61-24.68,17-39.12-1.34-7.39-6.92-14.57-14.66-15.73Zm10.77,24.52c-1.17,9.54-5.93,18.13-12.5,25a93.34,93.34,0,0,0-.14-15.25,86.14,86.14,0,0,0-3.88-19.14,3,3,0,0,1,.22-.26c2-2.32,4.58-3.27,7.21-4.62.66-.34.29-1.15-.33-1.21a10.43,10.43,0,0,0-8.13,3.11,75,75,0,0,0-3.17-7.37,11.47,11.47,0,0,1,13.78.09c6.16,4.48,7.84,12.46,6.94,19.65Zm-3,106c3.87,10.67,7.09,21.65,6.6,33.12-.43,10.33-3.34,21.74-10,29.88-.82,1-3.4.63-2.69-1,2.35-5.32,4.89-10.42,6.44-16.05a59.6,59.6,0,0,0,2.13-17c-.24-12-4.63-23.38-8.49-34.6-6.15-17.92-11.42-40.6,2.64-56.35.62-.7,2.12,0,1.39.86-15.06,17.68-4.84,42.34,2,61.13ZM101.63,131.34c2.7-6.19,12.68-8.15,18.59-7.23,6.55,1,13.78,5.59,15.24,12.44.4,1.88-2.4,2.42-3.42,1.24-3.81-4.47-7.49-8.68-13.59-9.72a17.48,17.48,0,0,0-8.88.93c-2.34.87-4.25,2.42-6.48,3.46C102.34,132.8,101.25,132.21,101.63,131.34Zm14.68-74.87c-10.32.15-20.18.74-30.08,4A74.88,74.88,0,0,0,58.76,76.55a75.92,75.92,0,0,0-17.69,24.92c-4.21,9.49-6,19.27-7.4,29.49-.11.8-1.68.86-1.77,0-.93-9.15,1.09-18.83,4.34-27.35a78,78,0,0,1,31.6-38.41c14-8.68,32.69-14.23,49.17-11.1,1.8.34.64,2.33-.7,2.35Zm1.86,97.5c0,5.49-1.88,9.93-4.2,9.93s-4.19-4.44-4.19-9.93,1.87-9.92,4.19-9.92S118.17,148.5,118.17,154ZM94.65,198.1a36.8,36.8,0,0,0,5.48-6.24c.88-1.24,3.92-.81,3.13,1-2.79,6.58-9.13,11.35-15.92,13.27-6.26,1.77-16.26,1.59-20.87-3.82-.61-.72.48-1.22,1.08-1.09,2.1.48,4.07,1.24,6.12,1.79,3.87-6.31,14.59-7.69,21-5ZM100.47,214c-4.76,3.86-13.76,6.6-19.35,2.89-.62-.41-.13-1.12.46-1.19,2.77-.32,5.54-.09,8.3-.64a30.09,30.09,0,0,0,8.55-3.35c1.59-.86,3.72.93,2,2.29ZM64.39,171.9c1.69-3.77,5.31-6.17,7.33-9.73a21.7,21.7,0,0,0,2.33-13.9c-.13-.78,1.33-1.05,1.59-.36a18.59,18.59,0,0,1-3.11,18.52C69.93,169.7,66,173,68,177.57s6.72,5,10.28,7.66c1.56,1.16-.79,2.59-1.91,2.43-7-.94-15.4-8.11-12-15.76ZM38.44,245.77a105.22,105.22,0,0,1,3-17.08c1.23-4.72,2.55-10.28,5.27-14.38.27-.41,1.08-.29,1,.26-.66,5.14-2.86,10.25-3.93,15.36a120.89,120.89,0,0,0-2.19,15.87,111.47,111.47,0,0,0,2.68,33c4.61,19.6,14.84,37.15,28,52.25,1,1.15-1,2.19-2,1.35-15.21-14-25.28-33.17-29.74-53.24a109.33,109.33,0,0,1-2.1-33.41Zm13-92.25c0-5.48,1.88-9.93,4.2-9.93s4.19,4.45,4.19,9.93-1.87,9.92-4.19,9.92-4.2-4.44-4.2-9.92Z"/></g></g></g></svg>