<?xml version="1.0" encoding="utf-8"?>
<!-- Generator: Adobe Illustrator 25.2.1, SVG Export Plug-In . SVG Version: 6.00 Build 0)  -->
<svg version="1.1" id="Layer_1" xmlns="http://www.w3.org/2000/svg" xmlns:xlink="http://www.w3.org/1999/xlink" x="0px" y="0px"
	 viewBox="0 0 200.8 241.8" style="enable-background:new 0 0 200.8 241.8;" xml:space="preserve">
<style type="text/css">
	.st0{opacity:0.38;}
	.st1{clip-path:url(#SVGID_2_);}
	.st2{fill:#A7A9AC;}
	.st3{fill:#FEFEFE;}
	.st4{fill:#979797;}
	.st5{fill:#A0A0A0;}
	.st6{opacity:0.76;fill:#A7A9AC;enable-background:new    ;}
	.st7{fill:#6D6E71;}
</style>
<g id="Layer_2_1_" class="st0">
	<g id="Layer_1-2">
		<g>
			<defs>
				<rect id="SVGID_1_" x="-0.3" y="-0.4" width="200.8" height="241.5"/>
			</defs>
			<clipPath id="SVGID_2_">
				<use xlink:href="#SVGID_1_"  style="overflow:visible;"/>
			</clipPath>
			<g class="st1">
				<path class="st2" d="M182.6,117.2c10-3,9.9-2.9,6.6-12.5c-2.5-7.1-4.9-14.2-7.4-21.2c-3.1-9.2-8-17.5-13.6-25.4
					c-3.2-4.6-3.7-4.6-8.9-2.4c-1.3,0.6-2.6,1.4-4.6,1.3c1.6-2.5,3.9-3.6,5.7-5.1s2.2-2.8,0.5-4.9c-4.4-5.4-9.2-10.4-14.5-14.9
					c-9.7-8.3-18.7-17.6-29.4-24.7c-5.2-3.3-11-5.5-17.1-6.4c-3.3-0.5-5.1,0.6-5.9,3.8c-0.5,2-1.1,3.9-1.7,5.8
					c-0.3,1-0.5,2.4-1.9,2.1c-1.2-0.3-0.8-1.5-0.8-2.4c0.1-2.3,0.1-4.5,0.2-6.8c0.1-2.9-0.9-4.2-4-3.5c-10.9,2.5-20.9,7.2-31,11.8
					c-16.2,7.3-27,21-39.7,32.6c-2.4,2.2-4.8,4.7-7.2,7c-1.7,1.5-1.5,2.5,0.6,3.4c6,2.3,11.8,5,17.5,8c-6.1-1-12.2-1.8-18.2-2.8
					c-2.5-0.4-4.1,0-4.5,2.9c-2,11.9-4.7,23.5-2.9,35.8c2,13.8,8.2,25.3,16.8,35.8c4.3,5.1,9.1,9.8,14.2,14.1
					c2.6,2.3,4.9,2.6,7.9,0.9c2-1.2,4.3-2,6.5-2.9l0.6,0.8c-1.5,1.4-2.9,2.8-4.4,4.1c-1.9,1.7-2.2,3.3-0.5,5.5
					c8.7,11.5,16.9,23.5,27.6,33.2c9.7,8.8,20.5,15.7,33.2,19.4c2.9,0.9,4.7,0.4,5.8-2.8c1.6-4.4,3.5-8.6,5.8-12.7
					c0,4.2-1.8,8.1-3,12c-0.9,2.8-0.3,3.9,2.5,4.4c12.9,2.5,25.8,1.6,38.5-0.7c8.3-1.5,16.3-4,24-7.4c12.6-5.6,17.7-15.8,18.8-28.9
					c1.3-16.1,1-32.4-0.8-48.5c-0.7-6.4-0.6-6.4-7-7.3C185.4,117.6,184.3,117.4,182.6,117.2z"/>
				<path class="st3" d="M106.9,103c-0.4,9.4,0.1,18.6,5.2,27c1.7,2.9,4.3,3.4,7.3,2.5c3.2-1,6.2-2.5,8.9-4.5
					c6.2-4.8,12.9-8.4,19.8-12.1c0.9-0.5,1.9-1.1,2.7-1.7c5.9-4.4,6.4-8.3,1.5-13.8c-6.2-7-14.7-10.1-23.2-13.1
					c4.7,5,9.4,10,14.1,15.1c4,4.3,3.5,6.4-2.1,8.2c-4.6,1.6-8,4.8-11.6,7.6c-9,7-11.5,6.4-16.2-3.9c-1.8-3.8-3.4-7.8-5.1-11.6
					L106.9,103z"/>
				<path class="st3" d="M136,161.7c4.8-0.6,8.9-2.8,12.7-5.5c6.3-4.5,11.6-9.9,14.1-17.5c0.8-2,1.1-4.2,0.9-6.3
					c-0.4-2.3-1.7-3.5-3.9-2.5c-10.7,4.4-20.8,9.6-29.3,17.6c-0.7,0.6-1.3,1.4-1.7,2.2c-1.5,2.9-4,5.9-1.8,9.3
					C129,162.2,132.6,162.1,136,161.7z"/>
				<path class="st3" d="M59.1,114.1c6.7-6.3,14.9-6.5,22.1-9.4c5-1.9,8.9-5.8,10.7-10.8c2.5-6.8-1.2-11.3-8.4-11
					c-8.5,0.3-13.6,5.4-17.1,12.5c-1,1.8-1.5,3.7-1.7,5.7c0,3.8-1.8,6.5-4.2,9.2C59.9,111,59.1,111.6,59.1,114.1z"/>
				<path class="st3" d="M145.8,53.1c-5.6,3.1-10.2,0.4-15.2-1.6c-10.2-4.2-19.7,5.8-18.9,16.2c0.4,5.6,8.9,8.5,14.7,5.3
					c3.2-1.8,5.8-4.4,7.7-7.5c2.5-3.9,5.9-7.3,9.8-9.8C145.1,55.3,145.8,54.3,145.8,53.1z"/>
				<path class="st4" d="M176.8,163l7,6.2C182.1,166.4,179.3,164.9,176.8,163z"/>
				<path class="st5" d="M113.2,86.3c0.5,2.7,2.1,5.1,4.6,6.4L113.2,86.3z"/>
				<path class="st6" d="M187.9,117.6c10-2.9,9.9-2.9,6.6-12.5c-2.5-7.1-4.9-14.2-7.4-21.2c-3.1-9.2-8-17.5-13.6-25.4
					c-3.2-4.6-3.7-4.6-8.9-2.4c-1.4,0.8-3,1.3-4.6,1.3c1.6-2.5,3.9-3.6,5.7-5.1s2.2-2.8,0.5-4.9C161.9,42,157,37,151.8,32.5
					c-9.8-8.3-18.7-17.6-29.4-24.7c-5.2-3.3-11-5.5-17.1-6.4c-3.3-0.5-5.1,0.7-5.9,3.8c-0.5,2-1.1,3.9-1.7,5.8c-0.3,1-0.5,2.4-1.9,2
					c-1.2-0.3-0.8-1.5-0.8-2.4C94.9,8.3,95,6,95.1,3.7c0.1-2.9-0.9-4.2-4.1-3.5c-10.9,2.6-20.8,7.3-31,11.8
					c-16.2,7.3-27.1,21-39.7,32.6c-2.5,2.3-4.8,4.7-7.2,7c-1.6,1.5-1.5,2.5,0.7,3.4c6,2.3,11.8,5,17.5,8c-6.1-0.9-12.2-1.8-18.3-2.7
					c-2.5-0.4-4.1,0-4.6,2.9c-2,11.8-4.6,23.5-2.9,35.7c2,13.8,8.2,25.3,16.8,35.8c4.3,5.1,9,9.8,14.2,14.1c2.6,2.3,4.9,2.6,7.9,0.9
					c2.1-1.1,4.3-2.1,6.5-2.9l0.6,0.8c-1.5,1.4-2.9,2.8-4.4,4.1c-1.9,1.7-2.2,3.3-0.5,5.5c8.7,11.5,16.9,23.5,27.6,33.2
					c9.7,8.8,20.6,15.7,33.2,19.4c2.9,0.9,4.7,0.4,5.8-2.8c1.6-4.4,3.5-8.6,5.7-12.7c0,4.3-1.8,8.1-3,12c-0.9,2.8-0.3,3.9,2.5,4.4
					c12.9,2.5,25.8,1.6,38.5-0.7c8.3-1.5,16.3-4,24-7.4c12.6-5.6,17.7-15.8,18.8-28.9c1.3-16.1,1-32.4-0.8-48.5
					c-0.7-6.4-0.6-6.4-7-7.3C190.8,118,189.7,117.9,187.9,117.6z"/>
				<path class="st3" d="M112.2,103.4c-0.4,9.4,0.1,18.6,5.2,27c1.7,2.8,4.3,3.4,7.3,2.4c3.2-1,6.2-2.5,8.9-4.5
					c6.2-4.8,12.9-8.4,19.8-12.1c0.9-0.5,1.9-1.1,2.7-1.7c5.9-4.4,6.4-8.2,1.6-13.8c-6.2-7-14.7-10.1-23.2-13.1
					c4.7,5,9.4,10,14.1,15c3.9,4.3,3.5,6.4-2.1,8.3c-4.6,1.5-8,4.8-11.6,7.6c-9,7-11.5,6.4-16.2-3.9c-1.8-3.8-3.4-7.8-5.1-11.6
					L112.2,103.4z"/>
				<path class="st3" d="M141.4,162.1c4.8-0.6,8.9-2.8,12.7-5.5c6.3-4.5,11.6-9.9,14.1-17.5c0.8-2,1.1-4.2,0.9-6.3
					c-0.4-2.3-1.7-3.5-3.9-2.5c-10.7,4.4-20.8,9.6-29.3,17.6c-0.7,0.6-1.3,1.4-1.7,2.2c-1.5,2.9-4,5.9-1.8,9.3
					C134.4,162.6,137.9,162.5,141.4,162.1z"/>
				<path class="st3" d="M64.4,114.6c6.7-6.3,14.9-6.5,22.1-9.4c5-1.9,8.9-5.8,10.7-10.8c2.5-6.8-1.1-11.4-8.4-11.1
					c-8.5,0.3-13.6,5.4-17.1,12.5c-1,1.8-1.5,3.8-1.6,5.8c0,3.8-1.8,6.6-4.2,9.2C65.2,111.4,64.4,112,64.4,114.6z"/>
				<path class="st3" d="M151.2,53.5c-5.6,3.1-10.2,0.4-15.2-1.6c-10.2-4.2-19.7,5.8-18.9,16.2c0.4,5.6,8.9,8.5,14.7,5.2
					c3.2-1.8,5.8-4.4,7.7-7.5c2.5-3.9,5.9-7.3,9.8-9.8C150,55.7,151,55.4,151.2,53.5z"/>
				<path class="st4" d="M182.2,163.4l7,6.2C187.5,166.8,184.7,165.3,182.2,163.4z"/>
				<path class="st5" d="M118.5,86.7c0.5,2.7,2.1,5.1,4.6,6.4L118.5,86.7z"/>
				<path class="st7" d="M6.4,204l3.2-3.8c1.6,1.5,3.8,2.4,6,2.6c2.3,0,3.5-0.9,3.5-2.4s-1.4-2-3.5-2.9l-3.2-1.4
					c-2.5-1-4.9-3.1-4.9-6.7c0-4.1,3.6-7.4,8.7-7.4c3,0,5.8,1.2,7.9,3.2l-2.8,3.5c-1.4-1.2-3.2-1.9-5.1-1.9c-1.9,0-3.1,0.8-3.1,2.2
					s1.6,2.1,3.7,2.9l3.1,1.3c3,1.2,4.9,3.2,4.9,6.7c0,4.1-3.4,7.6-9.2,7.6C12.1,207.6,8.9,206.3,6.4,204L6.4,204z"/>
				<polygon class="st7" points="28.9,182.5 34.5,182.5 34.5,192.6 34.6,192.6 41.9,182.5 48,182.5 40.6,192.3 49.4,207.1 
					43.3,207.1 37.3,196.7 34.5,200.5 34.5,207.1 28.9,207.1 				"/>
				<rect x="48.8" y="195.6" class="st7" width="9.2" height="3.9"/>
				<rect x="62" y="182.5" class="st7" width="5.5" height="24.6"/>
				<path class="st7" d="M70.1,182.5H76l2.9,11.5c0.7,2.7,1.2,5.2,2,7.9h0.2c0.7-2.7,1.3-5.2,2-7.9l2.9-11.5h5.7l-7.4,24.6h-6.7
					L70.1,182.5z"/>
				<path class="st7" d="M6.4,237.8l3.2-3.8c1.6,1.5,3.8,2.4,6,2.6c2.3,0,3.5-0.9,3.5-2.4s-1.4-2-3.5-2.9l-3.2-1.4
					c-2.5-1-4.9-3.1-4.9-6.7c0-4.1,3.6-7.3,8.7-7.3c1.5,0,2.9,0.3,4.3,0.9c1.4,0.6,2.6,1.4,3.6,2.4l-2.8,3.5
					c-1.4-1.2-3.2-1.9-5.1-1.9c-1.9,0-3.1,0.8-3.1,2.2s1.6,2,3.7,2.9l3.1,1.3c3,1.2,4.9,3.2,4.9,6.7c0,4.1-3.4,7.6-9.2,7.6
					c-1.7,0-3.3-0.3-4.9-0.9C9.1,239.9,7.6,239,6.4,237.8z"/>
				<polygon class="st7" points="28.9,216.3 34.5,216.3 34.5,226.4 34.6,226.4 41.9,216.3 48,216.3 40.6,226.1 49.4,240.9 
					43.3,240.9 37.3,230.5 34.5,234.3 34.5,241 28.9,241 				"/>
				<rect x="52" y="216.3" class="st7" width="5.5" height="24.6"/>
				<path class="st7" d="M63.3,216.3H69l6.4,12.2l2.4,5.4H78c-0.3-2.6-0.7-6-0.7-9v-8.7h5.3v24.6h-5.7l-6.4-12.3l-2.4-5.4h-0.2
					c0.3,2.7,0.7,6,0.7,8.9v8.7h-5.3L63.3,216.3z"/>
				<path class="st7" d="M87.2,228.8c0-8.2,5.4-12.9,11.6-12.9c2.8,0,5.5,1.2,7.4,3.2l-2.9,3.6c-1.1-1.2-2.7-1.9-4.3-2
					c-3.4,0-6,3-6,7.9s2.3,8,5.9,8c1.9,0,3.6-0.9,4.8-2.3l2.9,3.5c-1,1.2-2.2,2.1-3.6,2.7c-1.4,0.6-2.9,0.9-4.4,0.9
					C92.4,241.4,87.2,237.1,87.2,228.8z"/>
				<path class="st7" d="M112.2,230.7H124v4.3h-11.8V230.7z M114.8,216.3h6.6l7.7,24.6h-5.9l-3.2-12.5c-0.7-2.5-1.3-5.4-2-7.9h-0.2
					c-0.6,2.6-1.2,5.5-1.9,7.9l-3.2,12.5h-5.7L114.8,216.3z"/>
				<path class="st7" d="M139.3,230.6l3.8-3.6l7.8,13.9h-6.2L139.3,230.6z M139.9,227.6c2.9,0,4.5-1.2,4.5-3.7s-1.6-3.2-4.5-3.2H137
					v6.9H139.9z M131.5,216.3h8.8c5.2,0,9.5,1.8,9.5,7.7c0,5.7-4.3,8.1-9.5,8.1h-3.3v8.9h-5.6V216.3z"/>
				<polygon class="st7" points="154.6,216.3 170,216.3 170,221 160.1,221 160.1,225.9 168.5,225.9 168.5,230.6 160.1,230.6 
					160.1,236.3 170.3,236.3 170.3,240.9 154.6,240.9 				"/>
			</g>
		</g>
	</g>
</g>
</svg>
