<?xml version="1.0" encoding="utf-8"?>
<!-- Generator: Adobe Illustrator 25.2.1, SVG Export Plug-In . SVG Version: 6.00 Build 0)  -->
<svg version="1.1" id="Layer_1" xmlns="http://www.w3.org/2000/svg" xmlns:xlink="http://www.w3.org/1999/xlink" x="0px" y="0px"
	 viewBox="0 0 1280 1024" style="enable-background:new 0 0 1280 1024;" xml:space="preserve">
<style type="text/css">
	.st0{opacity:0.38;}
	.st1{clip-path:url(#SVGID_2_);}
	.st2{fill:#A7A9AC;}
	.st3{fill:#FEFEFE;}
	.st4{fill:#979797;}
	.st5{fill:#A0A0A0;}
	.st6{opacity:0.76;fill:#A7A9AC;enable-background:new    ;}
	.st7{fill:#6D6E71;}
</style>
<g id="Layer_2_1_" class="st0">
	<g id="Layer_1-2">
		<g>
			<g>
				<defs>
					<rect id="SVGID_1_" x="253.1" y="110" width="200.8" height="241.5"/>
				</defs>
				<clipPath id="SVGID_2_">
					<use xlink:href="#SVGID_1_"  style="overflow:visible;"/>
				</clipPath>
				<g class="st1">
					<path class="st2" d="M436,227.6c10-3,9.9-2.9,6.6-12.5c-2.5-7.1-4.9-14.2-7.4-21.2c-3.1-9.2-8-17.5-13.6-25.4
						c-3.2-4.6-3.7-4.6-8.9-2.4c-1.3,0.6-2.6,1.4-4.6,1.3c1.6-2.5,3.9-3.6,5.7-5.1c1.8-1.5,2.2-2.8,0.5-4.9
						c-4.4-5.4-9.2-10.4-14.5-14.9c-9.7-8.3-18.7-17.6-29.4-24.7c-5.2-3.3-11-5.5-17.1-6.4c-3.3-0.5-5.1,0.6-5.9,3.8
						c-0.5,2-1.1,3.9-1.7,5.8c-0.3,1-0.5,2.4-1.9,2.1c-1.2-0.3-0.8-1.5-0.8-2.4c0.1-2.3,0.1-4.5,0.2-6.8c0.1-2.9-0.9-4.2-4-3.5
						c-10.9,2.5-20.9,7.2-31,11.8c-16.2,7.3-27,21-39.7,32.6c-2.4,2.2-4.8,4.7-7.2,7c-1.7,1.5-1.5,2.5,0.6,3.4c6,2.3,11.8,5,17.5,8
						c-6.1-1-12.2-1.8-18.2-2.8c-2.5-0.4-4.1,0-4.5,2.9c-2,11.9-4.7,23.5-2.9,35.8c2,13.8,8.2,25.3,16.8,35.8
						c4.3,5.1,9.1,9.8,14.2,14.1c2.6,2.3,4.9,2.6,7.9,0.9c2-1.2,4.3-2,6.5-2.9l0.6,0.8c-1.5,1.4-2.9,2.8-4.4,4.1
						c-1.9,1.7-2.2,3.3-0.5,5.5c8.7,11.5,16.9,23.5,27.6,33.2c9.7,8.8,20.5,15.7,33.2,19.4c2.9,0.9,4.7,0.4,5.8-2.8
						c1.6-4.4,3.5-8.6,5.8-12.7c0,4.2-1.8,8.1-3,12c-0.9,2.8-0.3,3.9,2.5,4.4c12.9,2.5,25.8,1.6,38.5-0.7c8.3-1.5,16.3-4,24-7.4
						c12.6-5.6,17.7-15.8,18.8-28.9c1.3-16.1,1-32.4-0.8-48.5c-0.7-6.4-0.6-6.4-7-7.3C438.8,228,437.7,227.8,436,227.6z"/>
					<path class="st3" d="M360.3,213.4c-0.4,9.4,0.1,18.6,5.2,27c1.7,2.9,4.3,3.4,7.3,2.5c3.2-1,6.2-2.5,8.9-4.5
						c6.2-4.8,12.9-8.4,19.8-12.1c0.9-0.5,1.9-1.1,2.7-1.7c5.9-4.4,6.4-8.3,1.5-13.8c-6.2-7-14.7-10.1-23.2-13.1
						c4.7,5,9.4,10,14.1,15.1c4,4.3,3.5,6.4-2.1,8.2c-4.6,1.6-8,4.8-11.6,7.6c-9,7-11.5,6.4-16.2-3.9c-1.8-3.8-3.4-7.8-5.1-11.6
						L360.3,213.4z"/>
					<path class="st3" d="M389.4,272.1c4.8-0.6,8.9-2.8,12.7-5.5c6.3-4.5,11.6-9.9,14.1-17.5c0.8-2,1.1-4.2,0.9-6.3
						c-0.4-2.3-1.7-3.5-3.9-2.5c-10.7,4.4-20.8,9.6-29.3,17.6c-0.7,0.6-1.3,1.4-1.7,2.2c-1.5,2.9-4,5.9-1.8,9.3
						C382.4,272.6,386,272.5,389.4,272.1z"/>
					<path class="st3" d="M312.5,224.5c6.7-6.3,14.9-6.5,22.1-9.4c5-1.9,8.9-5.8,10.7-10.8c2.5-6.8-1.2-11.3-8.4-11
						c-8.5,0.3-13.6,5.4-17.1,12.5c-1,1.8-1.5,3.7-1.7,5.7c0,3.8-1.8,6.5-4.2,9.2C313.3,221.4,312.5,222,312.5,224.5z"/>
					<path class="st3" d="M399.2,163.5c-5.6,3.1-10.2,0.4-15.2-1.6c-10.2-4.2-19.7,5.8-18.9,16.2c0.4,5.6,8.9,8.5,14.7,5.3
						c3.2-1.8,5.8-4.4,7.7-7.5c2.5-3.9,5.9-7.3,9.8-9.8C398.5,165.7,399.2,164.7,399.2,163.5z"/>
					<path class="st4" d="M430.2,273.4l7,6.2C435.5,276.8,432.7,275.3,430.2,273.4z"/>
					<path class="st5" d="M366.6,196.7c0.5,2.7,2.1,5.1,4.6,6.4L366.6,196.7z"/>
					<path class="st6" d="M441.3,228c10-2.9,9.9-2.9,6.6-12.5c-2.5-7.1-4.9-14.2-7.4-21.2c-3.1-9.2-8-17.5-13.6-25.4
						c-3.2-4.6-3.7-4.6-8.9-2.4c-1.4,0.8-3,1.3-4.6,1.3c1.6-2.5,3.9-3.6,5.7-5.1c1.8-1.5,2.2-2.8,0.5-4.9
						c-4.3-5.4-9.2-10.4-14.4-14.9c-9.8-8.3-18.7-17.6-29.4-24.7c-5.2-3.3-11-5.5-17.1-6.4c-3.3-0.5-5.1,0.7-5.9,3.8
						c-0.5,2-1.1,3.9-1.7,5.8c-0.3,1-0.5,2.4-1.9,2c-1.2-0.3-0.8-1.5-0.8-2.4c-0.1-2.3,0-4.6,0.1-6.9c0.1-2.9-0.9-4.2-4.1-3.5
						c-10.9,2.6-20.8,7.3-31,11.8c-16.2,7.3-27.1,21-39.7,32.6c-2.5,2.3-4.8,4.7-7.2,7c-1.6,1.5-1.5,2.5,0.7,3.4
						c6,2.3,11.8,5,17.5,8c-6.1-0.9-12.2-1.8-18.3-2.7c-2.5-0.4-4.1,0-4.6,2.9c-2,11.8-4.6,23.5-2.9,35.7c2,13.8,8.2,25.3,16.8,35.8
						c4.3,5.1,9,9.8,14.2,14.1c2.6,2.3,4.9,2.6,7.9,0.9c2.1-1.1,4.3-2.1,6.5-2.9l0.6,0.8c-1.5,1.4-2.9,2.8-4.4,4.1
						c-1.9,1.7-2.2,3.3-0.5,5.5c8.7,11.5,16.9,23.5,27.6,33.2c9.7,8.8,20.6,15.7,33.2,19.4c2.9,0.9,4.7,0.4,5.8-2.8
						c1.6-4.4,3.5-8.6,5.7-12.7c0,4.3-1.8,8.1-3,12c-0.9,2.8-0.3,3.9,2.5,4.4c12.9,2.5,25.8,1.6,38.5-0.7c8.3-1.5,16.3-4,24-7.4
						c12.6-5.6,17.7-15.8,18.8-28.9c1.3-16.1,1-32.4-0.8-48.5c-0.7-6.4-0.6-6.4-7-7.3C444.2,228.4,443.1,228.3,441.3,228z"/>
					<path class="st3" d="M365.6,213.8c-0.4,9.4,0.1,18.6,5.2,27c1.7,2.8,4.3,3.4,7.3,2.4c3.2-1,6.2-2.5,8.9-4.5
						c6.2-4.8,12.9-8.4,19.8-12.1c0.9-0.5,1.9-1.1,2.7-1.7c5.9-4.4,6.4-8.2,1.6-13.8c-6.2-7-14.7-10.1-23.2-13.1
						c4.7,5,9.4,10,14.1,15c3.9,4.3,3.5,6.4-2.1,8.3c-4.6,1.5-8,4.8-11.6,7.6c-9,7-11.5,6.4-16.2-3.9c-1.8-3.8-3.4-7.8-5.1-11.6
						L365.6,213.8z"/>
					<path class="st3" d="M394.8,272.5c4.8-0.6,8.9-2.8,12.7-5.5c6.3-4.5,11.6-9.9,14.1-17.5c0.8-2,1.1-4.2,0.9-6.3
						c-0.4-2.3-1.7-3.5-3.9-2.5c-10.7,4.4-20.8,9.6-29.3,17.6c-0.7,0.6-1.3,1.4-1.7,2.2c-1.5,2.9-4,5.9-1.8,9.3
						C387.8,273,391.3,272.9,394.8,272.5z"/>
					<path class="st3" d="M317.8,225c6.7-6.3,14.9-6.5,22.1-9.4c5-1.9,8.9-5.8,10.7-10.8c2.5-6.8-1.1-11.4-8.4-11.1
						c-8.5,0.3-13.6,5.4-17.1,12.5c-1,1.8-1.5,3.8-1.6,5.8c0,3.8-1.8,6.6-4.2,9.2C318.6,221.8,317.8,222.4,317.8,225z"/>
					<path class="st3" d="M404.6,163.9c-5.6,3.1-10.2,0.4-15.2-1.6c-10.2-4.2-19.7,5.8-18.9,16.2c0.4,5.6,8.9,8.5,14.7,5.2
						c3.2-1.8,5.8-4.4,7.7-7.5c2.5-3.9,5.9-7.3,9.8-9.8C403.4,166.1,404.4,165.8,404.6,163.9z"/>
					<path class="st4" d="M435.6,273.8l7,6.2C440.9,277.2,438.1,275.7,435.6,273.8z"/>
					<path class="st5" d="M371.9,197.1c0.5,2.7,2.1,5.1,4.6,6.4L371.9,197.1z"/>
					<path class="st7" d="M259.8,314.4l3.2-3.8c1.6,1.5,3.8,2.4,6,2.6c2.3,0,3.5-0.9,3.5-2.4s-1.4-2-3.5-2.9l-3.2-1.4
						c-2.5-1-4.9-3.1-4.9-6.7c0-4.1,3.6-7.4,8.7-7.4c3,0,5.8,1.2,7.9,3.2l-2.8,3.5c-1.4-1.2-3.2-1.9-5.1-1.9s-3.1,0.8-3.1,2.2
						s1.6,2.1,3.7,2.9l3.1,1.3c3,1.2,4.9,3.2,4.9,6.7c0,4.1-3.4,7.6-9.2,7.6C265.5,318,262.3,316.7,259.8,314.4L259.8,314.4z"/>
					<polygon class="st7" points="282.3,292.9 287.9,292.9 287.9,303 288,303 295.3,292.9 301.4,292.9 294,302.7 302.8,317.5 
						296.7,317.5 290.7,307.1 287.9,310.9 287.9,317.5 282.3,317.5 					"/>
					<rect x="302.2" y="306" class="st7" width="9.2" height="3.9"/>
					<rect x="315.4" y="292.9" class="st7" width="5.5" height="24.6"/>
					<path class="st7" d="M323.5,292.9h5.9l2.9,11.5c0.7,2.7,1.2,5.2,2,7.9h0.2c0.7-2.7,1.3-5.2,2-7.9l2.9-11.5h5.7l-7.4,24.6H331
						L323.5,292.9z"/>
					<path class="st7" d="M259.8,348.2l3.2-3.8c1.6,1.5,3.8,2.4,6,2.6c2.3,0,3.5-0.9,3.5-2.4s-1.4-2-3.5-2.9l-3.2-1.4
						c-2.5-1-4.9-3.1-4.9-6.7c0-4.1,3.6-7.3,8.7-7.3c1.5,0,2.9,0.3,4.3,0.9c1.4,0.6,2.6,1.4,3.6,2.4l-2.8,3.5
						c-1.4-1.2-3.2-1.9-5.1-1.9s-3.1,0.8-3.1,2.2s1.6,2,3.7,2.9l3.1,1.3c3,1.2,4.9,3.2,4.9,6.7c0,4.1-3.4,7.6-9.2,7.6
						c-1.7,0-3.3-0.3-4.9-0.9C262.5,350.3,261,349.4,259.8,348.2z"/>
					<polygon class="st7" points="282.3,326.7 287.9,326.7 287.9,336.8 288,336.8 295.3,326.7 301.4,326.7 294,336.5 302.8,351.3 
						296.7,351.3 290.7,340.9 287.9,344.7 287.9,351.4 282.3,351.4 					"/>
					<rect x="305.4" y="326.7" class="st7" width="5.5" height="24.6"/>
					<path class="st7" d="M316.7,326.7h5.7l6.4,12.2l2.4,5.4h0.2c-0.3-2.6-0.7-6-0.7-9v-8.7h5.3v24.6h-5.7l-6.4-12.3l-2.4-5.4h-0.2
						c0.3,2.7,0.7,6,0.7,8.9v8.7h-5.3V326.7z"/>
					<path class="st7" d="M340.6,339.2c0-8.2,5.4-12.9,11.6-12.9c2.8,0,5.5,1.2,7.4,3.2l-2.9,3.6c-1.1-1.2-2.7-1.9-4.3-2
						c-3.4,0-6,3-6,7.9s2.3,8,5.9,8c1.9,0,3.6-0.9,4.8-2.3l2.9,3.5c-1,1.2-2.2,2.1-3.6,2.7c-1.4,0.6-2.9,0.9-4.4,0.9
						C345.8,351.8,340.6,347.5,340.6,339.2z"/>
					<path class="st7" d="M365.6,341.1h11.8v4.3h-11.8V341.1z M368.2,326.7h6.6l7.7,24.6h-5.9l-3.2-12.5c-0.7-2.5-1.3-5.4-2-7.9
						h-0.2c-0.6,2.6-1.2,5.5-1.9,7.9l-3.2,12.5h-5.7L368.2,326.7z"/>
					<path class="st7" d="M392.7,341l3.8-3.6l7.8,13.9h-6.2L392.7,341z M393.3,338c2.9,0,4.5-1.2,4.5-3.7s-1.6-3.2-4.5-3.2h-2.9v6.9
						H393.3z M384.9,326.7h8.8c5.2,0,9.5,1.8,9.5,7.7c0,5.7-4.3,8.1-9.5,8.1h-3.3v8.9h-5.6v-24.7H384.9z"/>
					<polygon class="st7" points="408,326.7 423.4,326.7 423.4,331.4 413.5,331.4 413.5,336.3 421.9,336.3 421.9,341 413.5,341 
						413.5,346.7 423.7,346.7 423.7,351.3 408,351.3 					"/>
				</g>
			</g>
		</g>
	</g>
</g>
</svg>
