<svg xmlns="http://www.w3.org/2000/svg" xmlns:xlink="http://www.w3.org/1999/xlink" viewBox="0 0 241.42 364.51"><defs><style>.cls-1{fill:none;}.cls-2{fill:#d9d9d9;}.cls-3{fill:#0f0e0c;}.cls-4{clip-path:url(#clip-path);}.cls-5{fill:#fff;}</style><clipPath id="clip-path"><rect class="cls-1" x="9.11" y="17.59" width="223.5" height="324"/></clipPath></defs><g id="Layer_2" data-name="Layer 2"><g id="Layer_1-2" data-name="Layer 1"><rect class="cls-2" width="241.42" height="364.51"/><path class="cls-3" d="M232.6,299.73c-2.45-10.79-9-19.17-14.09-24.3a87.46,87.46,0,0,0-11.52-9.7c-1-.7-2-1.37-2.93-2-2.26-1.52-4.53-3-6.77-4.36.09-.62.15-1.23.2-1.83a34,34,0,0,0-.55-10.61,26,26,0,0,0-1.44-4.5c-2.84-6.74-8.45-11.87-13.57-16a158.83,158.83,0,0,0-17.85-12.47,117,117,0,0,1,.24-15,6,6,0,0,0,2.87-2.46c9.82-14.32,21-30.56,28.26-48.51,5.57-13.72,11.14-34.52,6-55.67-3.32-13.63-11.26-25.95-21.81-33.87C174.79,42,160.55,27.56,143.22,21.5c-19.09-6.67-41.95-4.77-64.34,5.37C68.43,31.6,61.35,36.79,56.62,43.19a31.52,31.52,0,0,0-2.15,3.34,29.27,29.27,0,0,0-15,18A29.09,29.09,0,0,0,41.66,85a135.22,135.22,0,0,0-4.18,37.51c.42,20.79,4.57,41.39,8.58,61.32,1.48,7.34,3.15,15.64,8.08,22.23,5.28,7.06,14.07,11.46,24.35,12.29a87.9,87.9,0,0,1-8.07,12.89c-3.34,4.72-6.8,9.6-9.11,15.06a50.89,50.89,0,0,0-3.55,23c-3.18,3.26-7.56,6.12-13.37,8.72-2.33,1-4.76,2-7.12,2.95a87.52,87.52,0,0,0-15,7.07c-7,4.47-11.8,10.74-13.16,17.2a1.62,1.62,0,0,0,.46,1.49C30.15,326.91,43.08,333.15,53,336.61c10.85,3.77,22.2,5,32.85,5a195.84,195.84,0,0,0,21.71-1.37q7-.81,14.15-1.93c1.72-.27,3.43-.56,5.15-.86,34.69-6.1,69.87-18.13,104.88-35.87a1.63,1.63,0,0,0,.84-1.81"/><g class="cls-4"><path class="cls-5" d="M168,296.56c.27-.19-.14-.48-.37-.35a139.68,139.68,0,0,0-29,22A152.84,152.84,0,0,0,127.18,331c-.93,1.16-1.84,2.34-2.74,3.52Q115.82,336,107.23,337c-22.59,2.55-39,1.49-53.14-3.43-16.74-5.81-29.88-17.06-41.56-28.46,1.41-5.31,5.57-10.48,11.53-14.28A85.81,85.81,0,0,1,38.47,284c2.39-.95,4.86-1.93,7.25-3a49.35,49.35,0,0,0,12.4-7.57c.1.9.22,1.81.37,2.72,1.54,9.93,4.88,19.44,8.12,28.64h0c1.75,6.64,4,13.19,6.36,19.52.22.61,1.56.4,1.41-.29-1.27-6.52-2.72-13.17-4.63-19.64a1.59,1.59,0,0,0-.08-.68L68,299a136.21,136.21,0,0,1-6.33-23.34c-.3-1.95-.52-3.88-.64-5.74,0,0,0-.07,0-.11h0c-.57-8.35.52-15.85,3.25-22.28,2.19-5.13,5.54-9.87,8.78-14.45s6.63-9.35,8.92-14.63h.09a44.53,44.53,0,0,0,7.1-.57c0,.35.07.7.1,1,.06.92.13,1.84.19,2.77-14.11,11.94-14.41,34-9.77,50.45,0,.1,0,.2.08.31.13.44.26.87.4,1.31,3,9.88,7.58,19.2,12.22,28.39,2.6,5.14,5.24,10.25,7.64,15.47,1.52,3.33,2.76,6.81,4.15,10.21-.5,1-1,2-1.45,3-.9,1.88,2,2.31,3.29,1.18a1.55,1.55,0,0,0,.38-.5c.73-1.41,1.45-2.8,2.2-4.2a293.89,293.89,0,0,1,30.53-47.1,283.82,283.82,0,0,1,20.73-23.11c2.65-2.64,5.41-5.15,8.13-7.72.81-.76,1.61-1.52,2.41-2.3.06,0,.1-.11.16-.16,2.53-2.47,5.1-5.41,5.59-9.06,1-7.47-5.27-11.33-11.26-14.85q-.35-2.55-.54-5.1a152.49,152.49,0,0,1,15.53,11c4.8,3.86,10.06,8.64,12.62,14.71a27.87,27.87,0,0,1,1.78,13.4,40,40,0,0,1-1.78,4.52c-2,4.36-5.36,7.62-7.76,11.69-.43.71.66,1,1.13.74,4.38-2.39,7.63-7.43,9.75-11.87,1.93,1.19,3.88,2.43,5.81,3.72a84.51,84.51,0,0,0-22.15,31.86c-1.81,4.71-4.49,11.25-3.4,16.35a.42.42,0,0,0,.74.12c1.42-2.41,2-5.27,2.85-7.91s1.81-5.28,2.9-7.86a84.28,84.28,0,0,1,19.06-27.89c1-.93,1.94-1.8,2.95-2.66a87.09,87.09,0,0,1,11.82,9.85c4.58,4.63,10.44,12.06,12.93,21.53-33.25,16.73-66.64,28.26-99.57,34.4a171.25,171.25,0,0,1,11.81-13.71A196,196,0,0,1,168,296.56M40.73,122.42A131.09,131.09,0,0,1,45,85.23a95.28,95.28,0,0,1,6.75-17.77h0c.34-.67.68-1.33,1-2,.62.93,1.23,1.78,1.72,2.51s.94,1.34,1.45,2a27.56,27.56,0,0,0,6.54,6.21c8,5.28,17.68,3.67,26.46,1.46A307.66,307.66,0,0,0,130.3,64.26c-1.26,11.42-.2,24.17,7.31,33,4.87,5.72,11,9.64,13.66,17,2.54,7.09,2.5,14.78,2.4,22.22,0,2.23,3.32,1.83,4,.22,2-4.74,4-9.5,6.06-14.24,1.45-3.4,3.13-8.43,7.17-9.43,4.31-1.07,8.16,3.21,10,6.62a26.33,26.33,0,0,1,2.76,12.85c-.36,14.25-9.69,24.55-21.38,30.93-1.1.61-2.23,1.17-3.38,1.7a62.81,62.81,0,0,1-6.39,2.59c-1.82.62-.7,2.95,1,2.51s3.22-.93,4.8-1.51a72.1,72.1,0,0,0,1.34,26.71,5.6,5.6,0,0,0,1.46,2.84,120.76,120.76,0,0,0-.22,16.7c.1,2,.27,3.95.49,5.91.08.85.17,1.69.29,2.53a117.13,117.13,0,0,0,5.22,22.82c-1.06.94-2.14,1.83-3.07,2.69q-5.28,4.89-10.32,10a277.85,277.85,0,0,0-35.06,44c-4.1,6.39-8,12.95-11.59,19.68-.74-1.72-1.53-3.41-2.29-5.08-2.11-4.6-4.38-9.12-6.69-13.62-4.69-9.14-9.51-18.27-12.88-28-.32-.94-.63-1.87-.93-2.81,3-.73,6.1-2.08,7.54-4.26,1.28-1.94,1.3-4.54,1.54-6.77.38-3.56.63-7.15.76-10.74.25-6.95.09-13.93-.28-20.88-.17-3.3-.39-6.59-.63-9.89-.09-1.11-.12-2.28-.18-3.46,13.6-3.33,25.43-11.88,35.85-19.41a1.6,1.6,0,0,0,.37-2.26,1.63,1.63,0,0,0-2.27-.37c-10.06,7.27-21.46,15.51-34.23,18.77l-.65.16c-1,.24-2,.44-3,.61a41.81,41.81,0,0,1-5.69.54c-.76,0-1.51,0-2.26,0h-.07l-1.07-.06c-9.81-.51-18.18-4.51-23.08-11.05-4.49-6-6.08-13.93-7.49-20.93-4-19.79-8.11-40.25-8.52-60.75ZM161,139.32c1,2.8,4,2.46,6.1,1.26,1-.55,1.91-1.65,3.19-.92,1.84,1.06.71,4.44.1,5.82a13.43,13.43,0,0,1-5.58,5.76c-1.74,1.06.39,2.62,1.76,2.09a13.09,13.09,0,0,0,7.83-8.87c.85-3.22,0-7.41-3.9-8-1.67-.24-3,.49-4.34,1.31-.94.57-1.42,1.51-2.11.13-.55-1.07.65-3.55,1-4.49a29.84,29.84,0,0,1,3.65-6.82c1.37-1.92,3.2-3.46,4.46-5.45.28-.46-.38-.85-.79-.69-3.39,1.42-5.95,4.67-7.87,7.72-1.7,2.7-4.69,7.73-3.48,11.11ZM59.89,116.92a3,3,0,0,0-3-3h0a3,3,0,0,0-3,3v13.6a3,3,0,0,0,3,3h0a3.05,3.05,0,0,0,3-3ZM95.7,189.34a19,19,0,0,1-5.22,1.88c-2.06.36-4,0-6.1-.12-.64,0-1.82.77-1,1.44,3.79,3.27,10.56,1.93,14-1.23,1.24-1.16-.18-2.69-1.61-2Zm17.51-71.77a3,3,0,0,0-3-3h0a3,3,0,0,0-3,3v13.6a3,3,0,0,0,3,3h0a3,3,0,0,0,3-3Zm-3.8-8.94c5.56,1.65,9.43,5.17,10.65,1.08s-2.31-8.74-7.87-10.4-11,.31-12.28,4.4S103.85,107,109.41,108.63ZM70,177.67c-.68-.25-2,.57-1.24,1.3,10.09,9.53,29,4.39,35.12-7.22,1-1.95-2.37-2.17-3.32-1.06-3.4,4-7.26,7.31-12.36,8.85-6.32,1.92-12.22.31-18.2-1.87ZM56.34,108c4,1.18,6.89,3.52,8.24,1.91,2.07,4.51,5.84,8.45,6.7,13.38,1.15,6.65-3.46,13.62-6,19.45-2.12,4.76-6.49,11-5,16.43,1.32,4.89,5.85,7.7,9.92,10.12,1.79,1.06,4.35-1.67,2.16-2.91-2.65-1.5-5.58-3.1-7.3-5.72-1.88-2.86-1.46-5.47-.2-8.45,2.53-6,5.32-11.93,7.81-18,1.84-4.48,3-9,1-13.63-1.81-4.33-5.3-7.68-7.87-11.56-.17-.26-.34-.52-.5-.79.5-3.19-2.32-6.64-6.61-7.92-4.57-1.36-9.09.26-10.09,3.62s3.24,2.67,7.81,4Z"/></g><path class="cls-3" d="M232.6,299.73c-2.45-10.79-9-19.17-14.09-24.3a87.46,87.46,0,0,0-11.52-9.7c-1-.7-2-1.37-2.93-2-2.26-1.52-4.53-3-6.77-4.36.09-.62.15-1.23.2-1.83a34,34,0,0,0-.55-10.61,26,26,0,0,0-1.44-4.5c-2.84-6.74-8.45-11.87-13.57-16a158.83,158.83,0,0,0-17.85-12.47,117,117,0,0,1,.24-15,6,6,0,0,0,2.87-2.46c9.82-14.32,21-30.56,28.26-48.51,5.57-13.72,11.14-34.52,6-55.67-3.32-13.63-11.26-25.95-21.81-33.87C174.79,42,160.55,27.56,143.22,21.5c-19.09-6.67-41.95-4.77-64.34,5.37C68.43,31.6,61.35,36.79,56.62,43.19a31.52,31.52,0,0,0-2.15,3.34,29.27,29.27,0,0,0-15,18A29.09,29.09,0,0,0,41.66,85a135.22,135.22,0,0,0-4.18,37.51c.42,20.79,4.57,41.39,8.58,61.32,1.48,7.34,3.15,15.64,8.08,22.23,5.28,7.06,14.07,11.46,24.35,12.29a87.9,87.9,0,0,1-8.07,12.89c-3.34,4.72-6.8,9.6-9.11,15.06a50.89,50.89,0,0,0-3.55,23c-3.18,3.26-7.56,6.12-13.37,8.72-2.33,1-4.76,2-7.12,2.95a87.52,87.52,0,0,0-15,7.07c-7,4.47-11.8,10.74-13.16,17.2a1.62,1.62,0,0,0,.46,1.49C30.15,326.91,43.08,333.15,53,336.61c10.85,3.77,22.2,5,32.85,5a195.84,195.84,0,0,0,21.71-1.37q7-.81,14.15-1.93c1.72-.27,3.43-.56,5.15-.86,34.69-6.1,69.87-18.13,104.88-35.87a1.63,1.63,0,0,0,.84-1.81M56.74,204.1c-4.49-6-6.09-13.93-7.49-20.93-4-19.79-8.11-40.25-8.52-60.75A131.09,131.09,0,0,1,45,85.23a95.28,95.28,0,0,1,6.75-17.77h0c.33-.67.68-1.33,1-2,.61.93,1.22,1.78,1.72,2.51s.94,1.34,1.44,2a27.61,27.61,0,0,0,6.55,6.21c8,5.28,17.68,3.67,26.46,1.46a307.07,307.07,0,0,0,41.38-13.39c-1.25,11.42-.19,24.17,7.32,33,4.86,5.72,11,9.64,13.66,17,2.53,7.09,2.5,14.78,2.4,22.22,0,2.23,3.31,1.83,4,.22,2-4.74,4-9.5,6.06-14.24,1.45-3.4,3.13-8.43,7.16-9.43,4.32-1.07,8.17,3.21,10,6.62a26.44,26.44,0,0,1,2.76,12.85c-.36,14.25-9.69,24.55-21.38,30.93-1.11.61-2.24,1.17-3.38,1.7a63.76,63.76,0,0,1-6.39,2.59c-1.82.62-.71,2.95,1,2.51s3.22-.93,4.79-1.51a72.32,72.32,0,0,0,1.35,26.71,5.6,5.6,0,0,0,1.46,2.84,120.76,120.76,0,0,0-.22,16.7q.15,3,.48,5.91c.09.85.18,1.69.3,2.53a117.13,117.13,0,0,0,5.22,22.82c-1.06.94-2.14,1.83-3.07,2.69-3.52,3.26-7,6.6-10.32,10a277.29,277.29,0,0,0-35.06,44c-4.1,6.39-8,12.95-11.6,19.68-.73-1.72-1.53-3.41-2.28-5.08-2.11-4.6-4.38-9.12-6.7-13.62-4.68-9.14-9.5-18.27-12.87-28-.33-.94-.64-1.87-.93-2.81,3-.73,6.09-2.08,7.53-4.26,1.29-1.94,1.3-4.54,1.54-6.77.39-3.56.64-7.15.77-10.74.25-6.95.09-13.93-.28-20.88-.18-3.3-.4-6.59-.64-9.89-.09-1.11-.11-2.28-.17-3.46,13.59-3.33,25.42-11.88,35.85-19.41a1.61,1.61,0,0,0,.37-2.26,1.63,1.63,0,0,0-2.27-.37c-10.06,7.27-21.46,15.51-34.24,18.77l-.64.16c-1,.24-2,.44-3,.61a42,42,0,0,1-5.7.54c-.75,0-1.5,0-2.25,0h-.08l-1.06-.06c-9.82-.51-18.19-4.51-23.08-11.05Zm72.82,129.53a173.43,173.43,0,0,1,11.82-13.71,196.56,196.56,0,0,1,26.56-23.36c.28-.19-.13-.48-.37-.35a139.89,139.89,0,0,0-29,22A152.84,152.84,0,0,0,127.18,331c-.93,1.16-1.85,2.34-2.74,3.52Q115.8,336,107.22,337c-22.58,2.55-39,1.49-53.14-3.43-16.74-5.81-29.87-17.06-41.55-28.46,1.41-5.31,5.57-10.48,11.53-14.28C28.5,288,33.57,286,38.47,284c2.38-.95,4.86-1.93,7.25-3a49.28,49.28,0,0,0,12.39-7.57c.11.9.23,1.81.37,2.72,1.54,9.93,4.88,19.44,8.12,28.64h0c1.74,6.64,4,13.19,6.35,19.52.23.61,1.56.4,1.42-.29-1.27-6.52-2.72-13.17-4.64-19.64a1.58,1.58,0,0,0-.07-.68c-.55-1.56-1.11-3.13-1.65-4.71-2.63-7.58-5.1-15.37-6.33-23.34-.3-1.95-.52-3.88-.64-5.74,0,0,0-.07,0-.11h0c-.57-8.35.52-15.85,3.25-22.28,2.18-5.13,5.54-9.87,8.77-14.45s6.64-9.35,8.93-14.63h.09a44.53,44.53,0,0,0,7.1-.57c0,.35.07.7.09,1,.07.92.14,1.84.2,2.77-14.12,11.94-14.41,34-9.77,50.45,0,.1,0,.2.08.31.13.44.26.87.4,1.31,3,9.88,7.57,19.2,12.22,28.39,2.6,5.14,5.24,10.25,7.64,15.47,1.52,3.33,2.76,6.81,4.15,10.21-.5,1-1,2-1.45,3-.9,1.88,2,2.31,3.29,1.18a1.55,1.55,0,0,0,.38-.5c.73-1.41,1.45-2.8,2.2-4.2a293.21,293.21,0,0,1,30.53-47.1,281.85,281.85,0,0,1,20.72-23.11c2.66-2.64,5.42-5.15,8.14-7.72.81-.76,1.61-1.52,2.41-2.3.06,0,.1-.11.16-.16,2.53-2.47,5.1-5.41,5.59-9.06,1-7.47-5.27-11.33-11.27-14.85-.22-1.7-.4-3.4-.53-5.1a153.6,153.6,0,0,1,15.53,11c4.8,3.86,10.06,8.64,12.62,14.71a27.87,27.87,0,0,1,1.77,13.4,39.87,39.87,0,0,1-1.77,4.52c-2,4.36-5.37,7.62-7.77,11.69-.43.71.67,1,1.14.74,4.38-2.39,7.62-7.43,9.75-11.87,1.93,1.19,3.88,2.43,5.8,3.72a84.63,84.63,0,0,0-22.14,31.86c-1.81,4.71-4.49,11.25-3.4,16.35a.42.42,0,0,0,.74.12c1.42-2.41,2-5.27,2.84-7.91s1.82-5.28,2.91-7.86a82.32,82.32,0,0,1,8.29-15.16,83.35,83.35,0,0,1,10.76-12.73c1-.93,1.95-1.8,3-2.66a87.63,87.63,0,0,1,11.81,9.85c4.58,4.63,10.44,12.06,12.94,21.53-33.25,16.73-66.64,28.26-99.58,34.4ZM161,139.32c-1.2-3.38,1.79-8.41,3.49-11.11,1.91-3.05,4.48-6.3,7.87-7.72.4-.16,1.07.23.79.69-1.26,2-3.09,3.53-4.46,5.45a29.08,29.08,0,0,0-3.65,6.82c-.34.94-1.53,3.42-1,4.49.7,1.38,1.17.44,2.12-.13,1.37-.82,2.67-1.55,4.34-1.31,3.89.55,4.75,4.74,3.9,8a13.11,13.11,0,0,1-7.83,8.87c-1.38.53-3.5-1-1.77-2.09a13.31,13.31,0,0,0,5.58-5.76c.61-1.38,1.75-4.76-.09-5.82-1.29-.73-2.23.37-3.19.92-2.11,1.2-5.1,1.54-6.11-1.26ZM99.91,103.71c1.23-4.09,6.72-6.06,12.28-4.4s9.09,6.32,7.87,10.4-5.09.57-10.65-1.08-10.71-.84-9.5-4.92Zm13.3,13.86v13.6a3,3,0,0,1-3,3h0a3,3,0,0,1-3-3v-13.6a3,3,0,0,1,3-3h0A3,3,0,0,1,113.21,117.57ZM68.74,179c-.77-.73.56-1.55,1.24-1.3,6,2.18,11.88,3.79,18.2,1.87,5.1-1.54,9-4.89,12.36-8.85.95-1.11,4.35-.89,3.32,1.06-6.11,11.61-25,16.75-35.12,7.22Zm28.57,12.34c-3.4,3.16-10.17,4.5-14,1.23-.79-.67.39-1.46,1-1.44,2.06.09,4,.48,6.1.12a19,19,0,0,0,5.22-1.88c1.43-.72,2.85.81,1.61,2Zm-27.18-22c-4.07-2.42-8.6-5.23-9.92-10.12-1.47-5.43,2.9-11.67,5-16.43,2.59-5.83,7.2-12.8,6-19.45-.86-4.93-4.63-8.87-6.7-13.38-1.35,1.61-4.27-.73-8.24-1.91-4.57-1.37-8.82-.68-7.81-4s5.52-5,10.09-3.62c4.29,1.28,7.11,4.73,6.61,7.92.16.27.33.53.5.79,2.57,3.88,6.06,7.23,7.87,11.56,2,4.65.84,9.15-1,13.63-2.49,6-5.28,11.95-7.81,18-1.26,3-1.68,5.59.2,8.45,1.72,2.62,4.65,4.22,7.3,5.72,2.19,1.24-.37,4-2.16,2.91ZM59.89,116.92v13.6a3.05,3.05,0,0,1-3,3h0a3,3,0,0,1-3-3v-13.6a3,3,0,0,1,3-3h0A3,3,0,0,1,59.89,116.92Z"/></g></g></svg>