<?xml version="1.0" encoding="utf-8"?>
<!-- Generator: Adobe Illustrator 25.2.1, SVG Export Plug-In . SVG Version: 6.00 Build 0)  -->
<svg version="1.1" id="Layer_1" xmlns="http://www.w3.org/2000/svg" xmlns:xlink="http://www.w3.org/1999/xlink" x="0px" y="0px"
	 viewBox="0 0 238.4 360" style="enable-background:new 0 0 238.4 360;" xml:space="preserve">
<style type="text/css">
	.st0{fill:#FDE5E1;}
	.st1{clip-path:url(#SVGID_2_);}
	.st2{fill:#D18F7A;}
	.st3{fill:#B56658;}
	.st4{fill:#F7C5B7;}
	.st5{clip-path:url(#SVGID_4_);}
	.st6{fill:#5A2C1E;}
	.st7{fill:#545454;}
	.st8{font-family:'OpenSans-Bold';}
	.st9{font-size:25px;}
</style>
<g id="Layer_2_1_">
	<g id="Layer_1-2">
		<rect y="0" class="st0" width="238.4" height="360"/>
		<g>
			<defs>
				<rect id="SVGID_1_" x="25" y="169.1" width="188.2" height="130.2"/>
			</defs>
			<clipPath id="SVGID_2_">
				<use xlink:href="#SVGID_1_"  style="overflow:visible;"/>
			</clipPath>
			<g class="st1">
				<path class="st2" d="M213.1,216.6v41.9c-0.1,22.4-18.3,40.5-40.7,40.4c0,0,0,0,0,0h-106c-22.4,0.1-40.6-18-40.7-40.4v-41.9
					c0-0.7,0.1-1.3,0.4-1.9c0.1-0.2,0.2-0.5,0.3-0.7c0,0,0-0.1,0.1-0.1c0.2-0.3,0.4-0.6,0.6-0.9c0.2-0.2,0.3-0.4,0.5-0.6
					c0.1-0.2,0.3-0.3,0.5-0.5l0,0c0.3-0.3,0.7-0.7,1-1c3.1-2.5,8.1-4.9,14.7-6.9h0.6c0-0.1-0.1-0.2-0.1-0.3l0,0l-0.1-0.3
					c0,0,0,0,0-0.1c0-0.1-0.1-0.2-0.1-0.3V203l-0.1-0.2v-0.2c0-0.1,0-0.1,0-0.2v-0.2c0-0.1,0-0.1,0-0.2v-0.3c0-0.1,0-0.1,0-0.1
					s0-0.3,0-0.4V196c0-0.2-0.1-0.5-0.1-0.7c0-9.5,33.9-17.2,75.7-17.2c10.1,0,19.7,0.4,28.5,1.3l0,0c1.1-0.5,2.1-1.1,3.1-1.8l0,0
					l0.6-0.4c0,0,0.1-0.1,0.1-0.1l0.5-0.4l0.1-0.1l0.5-0.4l0.1-0.1c0.2-0.2,0.3-0.3,0.5-0.5v-0.1c0.3-0.4,0.6-0.8,0.9-1.2l0.1-0.1
					c0.1-0.2,0.2-0.3,0.3-0.5c0-0.1,0.1-0.1,0.1-0.2c0.1-0.1,0.1-0.3,0.2-0.4l0.1-0.2c0.1-0.1,0.1-0.3,0.2-0.4
					c0-0.1,0.1-0.2,0.1-0.2c0.1-0.1,0.1-0.3,0.1-0.4s0.1-0.2,0.1-0.2s0.1-0.3,0.1-0.5c0-0.1,0-0.1,0.1-0.2c0-0.2,0.1-0.5,0.1-0.7
					v-0.1c0.1-0.2,0.3-0.3,0.5-0.3h0.1l0.2,0.1h0.1l0.2,0.1l0.1,0.1l0.2,0.1l0.1,0.1l0.2,0.1l0.1,0.1l0.3,0.2h0.1l0.4,0.2l0.1,0.1
					l0.3,0.2l0.1,0.1l0.3,0.2l0.2,0.1l0.3,0.2l0.1,0.1l0.3,0.2l0.1,0.1l0.5,0.3h0.1l0.4,0.3l0.2,0.1l0.3,0.2l0.2,0.1l0.3,0.2
					l0.2,0.1l0.4,0.3l0.1,0.1l1.1,0.8l0.1,0.1l0.4,0.3l0.2,0.1l0.4,0.3l0.2,0.2l0.4,0.3l0.2,0.1l0.5,0.4l0.1,0.1l0.6,0.5l0.1,0.1
					l0.4,0.4l0.2,0.2l0.4,0.4c0.1,0.1,0.1,0.1,0.2,0.2l0.4,0.4l0.2,0.2l0.4,0.4l0.1,0.1c0.2,0.2,0.4,0.4,0.6,0.6l0.1,0.1l0.5,0.5
					l0.2,0.2l0.4,0.4l0.2,0.2l0.4,0.4l0.2,0.2l0.4,0.4l0.1,0.2l0.5,0.6c13.7,3.1,22.2,7.4,22.2,12.2v8.8l0,0c3.6,1.1,7,2.4,10.3,4.1
					l0.8,0.4l0.6,0.3c1.5,0.8,2.9,1.9,4.1,3.1l0,0c1.1,1,1.9,2.4,2.2,3.8C213.1,216,213.1,216.3,213.1,216.6"/>
				<path class="st3" d="M213.1,216.6v41.9c0,7.8-2.3,15.4-6.5,21.9v-55.9C210.8,222.1,213.1,219.4,213.1,216.6 M44.9,266.8v-29.1
					c0,0,0.5,0.2,1.6,0.6c0.7,0.2,1.6,0.5,2.8,0.9v-8.3c-4.6-1.1-9-2.6-13.3-4.4c0.1,0,0.1,0.1,0.2,0.1v59c3.7,4.1,8.2,7.4,13.2,9.7
					v-16.9C46.4,275.1,44.9,271,44.9,266.8z M78.8,244.5v-8.6l0,0c-5.5-0.6-10.6-1.3-15.4-2.1v8.6C67.7,243.1,72.8,243.8,78.8,244.5
					z M91.6,245.6c5,0.3,10.4,0.6,16.3,0.7v-8.5c-5.5-0.1-10.9-0.4-16.1-0.8C91.8,237.1,91.7,240.3,91.6,245.6z M137.6,246.1v-8.4
					l-0.2-0.1c-5,0.2-10.2,0.4-15.5,0.4l0,0v8.5C127.4,246.4,132.7,246.3,137.6,246.1L137.6,246.1z M167.7,243.6V235l0,0
					c-4.6,0.6-9.4,1.2-14.4,1.6l0,0v8.6C158.6,244.7,163.4,244.2,167.7,243.6L167.7,243.6z M196.5,228.8c-4.1,1.3-8.3,2.4-12.5,3.3
					l0,0v8.6c3.7-0.7,7.4-1.7,11-3v29.1c0,7-4.3,13.4-10.7,16.1c-0.9,4.6-0.2,9.8-0.2,14.3c4.5-1.3,8.7-3.5,12.4-6.2L196.5,228.8
					L196.5,228.8z M63.4,284.2v14.5c1,0.1,2,0.1,3,0.1h12.3l0.2-0.1v-14.5H63.4z M90.8,284.2c-0.1,5.7,0,9.4,0,14.5l-0.1,0.1h17.1
					v-14.6H90.8z M121.9,284.2v14.5c0,0,0,0.1,0,0.1h15.7v-14.6H121.9z M153.3,284.2v14.6h14.5v-14.6H153.3z"/>
				<path class="st4" d="M61.6,200.3c0,0-3.1-20.7,28.9-17.5c32.6,3.2,63.7,1.4,65.3-12.8c0-0.3,0.3-0.4,0.5-0.4c0,0,0.1,0,0.1,0
					c3.9,1.9,24.8,15.4,22.1,30.1c-10,4.6-32.8,7.8-59.2,7.8C94.1,207.5,72.3,204.6,61.6,200.3 M44.9,266.8
					c0,9.7,7.9,17.5,17.6,17.5h114.9c9.7,0,17.6-7.8,17.6-17.5v-29.1c0,0-22.1,8.8-75.7,8.8c-45.2,0-67.2-6.3-72.9-8.2
					c-1.1-0.4-1.6-0.6-1.6-0.6L44.9,266.8z"/>
			</g>
		</g>
		<g>
			<defs>
				<rect id="SVGID_3_" x="25.2" y="169.1" width="188.1" height="130.2"/>
			</defs>
			<clipPath id="SVGID_4_">
				<use xlink:href="#SVGID_3_"  style="overflow:visible;"/>
			</clipPath>
			<g class="st5">
				<path class="st6" d="M158.2,175.9l0.8,0.2c-1.5,6.9-10.1,11.2-25.4,12.7c-4.2,0.4-8.3,0.5-11.9,0.5c-6.1,0-10.4-0.4-10.5-0.4
					l0.1-0.8C111.7,188.1,154.7,191.6,158.2,175.9 M211.7,270.5l-0.1,0.3c-1.1,3.5-2.7,6.8-4.7,9.8l-0.8,1.2v-0.1
					c-2.6,3.6-5.7,6.8-9.3,9.5l0,0l-0.2,0.1c-2.6,1.9-5.4,3.5-8.3,4.7l-0.1,0c-0.5,0.2-1,0.4-1.5,0.6l-0.5,0.2l-0.8,0.3
					c-0.4,0.1-0.8,0.2-1.1,0.4l-0.3,0.1l-0.5,0.2l0,0c-3.7,1-7.5,1.6-11.3,1.6H66.4H65h-0.3l-1.3-0.1h-0.2h-0.2l0,0
					c-4.6-0.4-9.1-1.5-13.3-3.4l0,0l-0.6-0.3c-5-2.3-9.6-5.6-13.3-9.8l-0.1-0.1l0,0c-6.7-7.4-10.4-17.1-10.4-27.1v-41.9
					c0-1.9,1-3.8,3.1-5.6c3-2.7,8.1-5.1,15.3-7.4h0.1c-0.1-0.4-0.2-0.8-0.3-1.2v-0.2c0-0.1,0-0.3,0-0.4s0-0.1,0-0.2s0-0.4,0-0.6
					v-5.1l0,0c0-0.1,0-0.2,0-0.4s0-0.3,0-0.4c0-4.8,8-9.3,22.5-12.6c12.5-2.9,28.7-4.6,46.1-5c2.5,0,5-0.1,7.5-0.1h3.7h1.1h2.5h1.1
					l2.5,0.1h1.2l2.4,0.1l1.3,0.1l2.2,0.1l1.4,0.1l2.1,0.1l1.5,0.1l2,0.1l1.6,0.1l1.7,0.1c3.8-1.8,6.1-4.1,7.1-6.9l0,0
					c0.1-0.2,0.1-0.4,0.2-0.6v-0.1c0-0.2,0.1-0.4,0.1-0.5v-0.1c0-0.2,0.1-0.4,0.1-0.7c0-0.3,0.2-0.5,0.5-0.7
					c0.2-0.1,0.4-0.1,0.6-0.1c0.1,0,0.1,0,0.2,0.1l0.2,0.1l0.2,0.1c1.8,1,3.5,2.1,5.2,3.3c1.6,1.1,3.3,2.5,5.1,4
					c2.1,1.8,4,3.8,5.8,5.9l0.7,0.2l0.6,0.1l0.7,0.2l0.6,0.1l0.7,0.2l0.5,0.1l0.7,0.2l0.5,0.1l0.7,0.2l0.5,0.1l0.7,0.2l0.5,0.1
					l0.6,0.2l0.5,0.1l0.6,0.2l0.4,0.1l0.6,0.2l0.4,0.1l0.6,0.2l0.4,0.1l0.6,0.2l0.4,0.1l0.5,0.2l0.4,0.1l0.5,0.2l0.3,0.2l0.5,0.2
					l0.3,0.1l0.5,0.2l0.3,0.2l0.4,0.2l0.3,0.1l0.4,0.2l0.3,0.2l0.4,0.2l0.3,0.2l0.4,0.2c0.1,0.1,0.2,0.1,0.2,0.2l0.4,0.3l0.2,0.2
					l0.3,0.2l0.2,0.2l0.3,0.2l0.2,0.2c0.1,0.1,0.2,0.2,0.3,0.3l0.2,0.2l0.2,0.3l0.2,0.2l0.2,0.3l0.1,0.2c0.1,0.1,0.1,0.2,0.2,0.3
					l0.1,0.2l0.1,0.3l0.1,0.2c0.1,0.1,0.1,0.2,0.1,0.3l0.1,0.2c0,0.1,0.1,0.2,0.1,0.3l0.1,0.2c0,0.1,0.1,0.2,0.1,0.3l0.1,0.2
					c0,0.1,0,0.2,0,0.3c0,0,0,0.1,0,0.1c0,0.1,0,0.3,0,0.4v8.4l0.4,0.1l0.6,0.2l0.5,0.2l0.6,0.2l0.5,0.2l0.5,0.2l0.5,0.2l0.5,0.2
					l0.5,0.2l0.5,0.2l0.4,0.2l0.5,0.2l0.4,0.2l0.5,0.2l0.4,0.2l0.5,0.2l0.4,0.2l0.4,0.2l0.4,0.2l0.4,0.2l0.4,0.2l0.4,0.2l0.4,0.2
					l0.4,0.2l0.3,0.2l0.4,0.2l0.3,0.2l0.4,0.2l0.3,0.2l0.3,0.2l0.3,0.2l0.3,0.2l0.3,0.2l0.3,0.2l0.2,0.2l0.3,0.2l0.2,0.2l0.2,0.2
					l0.2,0.2l0.2,0.2l0.2,0.2l0.2,0.2l0.2,0.2l0.2,0.2l0.2,0.2l0.2,0.2l0.1,0.2c0,0.1,0.1,0.1,0.2,0.2l0.1,0.2l0.1,0.2l0.1,0.2
					l0.1,0.2c0,0.1,0.1,0.2,0.1,0.2l0.1,0.2l0.1,0.2c0,0.1,0,0.1,0.1,0.2c0,0.1,0.1,0.2,0.1,0.2l0.1,0.2c0,0.1,0,0.2,0.1,0.3
					c0,0.1,0,0.1,0,0.2c0,0.1,0,0.2,0,0.3c0,0.1,0,0.1,0,0.2c0,0.1,0,0.3,0,0.4v41.9c0,0.4,0,0.9,0,1.3c0,0.1,0,0.2,0,0.4l-0.1,1.1
					c0,0.1,0,0.2,0,0.3c0,0.4-0.1,0.9-0.1,1.3v0.3c0,0.3-0.1,0.7-0.1,1c0,0.1,0,0.2-0.1,0.4c-0.1,0.4-0.1,0.8-0.2,1.2l-0.1,0.3
					c-0.1,0.3-0.1,0.6-0.2,0.9s-0.1,0.4-0.1,0.5l-0.2,0.7c-0.1,0.3-0.2,0.6-0.2,1l-0.1,0.5C211.8,270,211.7,270.3,211.7,270.5
					L211.7,270.5z M212.7,258.5v-38.9c-1.4,2.2-3.4,3.9-5.7,5.1v54.2c1.8-2.9,3.1-6.1,4.1-9.3c0,0,0-0.1,0.1-0.2
					c0.1-0.2,0.1-0.5,0.2-0.7l0.1-0.5l0.1-0.6c0.1-0.3,0.1-0.5,0.2-0.8l0.1-0.6c0.1-0.3,0.1-0.6,0.2-0.9c0-0.1,0.1-0.3,0.1-0.4
					s0.1-0.5,0.1-0.8c0-0.1,0-0.2,0.1-0.4c0.1-0.4,0.1-0.8,0.1-1.2v-0.1c0-0.4,0.1-0.7,0.1-1.1c0-0.1,0-0.2,0-0.4c0-0.3,0-0.6,0-0.9
					c0-0.1,0-0.2,0-0.4C212.6,259.3,212.6,258.9,212.7,258.5L212.7,258.5z M194.7,209.7V198c-2.4,3.8-9.9,7.2-21.6,9.9
					c-14.3,3.3-33.4,5.1-53.6,5.1s-39.3-1.8-53.6-5.1c-11.7-2.7-19.1-6.1-21.6-9.8v3.1c0,0.2,0,0.4,0,0.6c0,0,0,0.1,0,0.1
					s0,0.4,0.1,0.6v0.2c0,0.2,0.1,0.4,0.1,0.6c0,0,0,0.1,0,0.1c0,0.2,0.1,0.4,0.2,0.6c0.2,0.4,0.3,0.9,0.6,1.3l0.1,0.1
					c3.4,3.2,13.8,12.8,67.4,18.6l-0.1,0.8c-54-5.8-64.1-15.3-67.9-18.8l-0.1-0.1l-0.5-0.3v8.6c0,4.3,8,8.6,21.8,11.8
					c14.3,3.3,33.2,5,53.4,5c31.8,0,59.6-4.6,70.5-11c-8.7,0.8-16.9,1.1-24.5,1.1c-27.2,0-45.8-3.9-46-3.9l0.2-0.8
					c0.3,0.1,31.2,6.5,71.8,2.7c1.3-0.9,2.4-2.1,3.1-3.5c0.1-0.2,0.1-0.5-0.1-0.6c-0.1-0.2-0.3-0.3-0.6-0.3l-5-0.1
					c-0.6,0-2.6,0-5.2,0h-9.8c-6.2,0-13.3,0-13.8,0l-0.2-0.8c0.3-0.1,3.7-0.1,14,0c6.7,0,13.7,0.1,14.9,0
					C190.4,213.2,194.6,211.9,194.7,209.7L194.7,209.7z M172.7,183.5L172.7,183.5l-0.1-0.1c-4.6-5.4-10.1-9.9-16.3-13.3h-0.1
					c0,0.2-0.1,0.5-0.1,0.7c0,0,0,0.1,0,0.1c0,0.2-0.1,0.4-0.1,0.6c0,0,0,0,0,0.1c-1.3,4.7-5.8,8.1-13.6,10.3h0.2l-2.4,0.6
					c-1.4,0.3-2.8,0.6-4.3,0.8l-0.4,0.1l-0.6,0.1h-0.4l-0.4,0.1l-0.8,0.1c-5.7,0.7-11.5,1-17.2,1c-3.7,0-7.4-0.1-11-0.3h-0.2
					l-1.2-0.1h-0.5l-1-0.1h-0.7h-0.8l-0.8-0.1l-0.7-0.1l-0.9-0.1l-0.7-0.1l-0.9-0.1l-0.7-0.1l-0.9-0.1l-0.7-0.1l-0.8-0.1l-0.8-0.1
					l-0.7-0.1l-1.4-0.1h-0.1h-0.4v-0.1c-9.9-0.9-17.3,0.3-22.1,3.8l0,0l-0.4,0.3c-0.2,0.1-0.4,0.3-0.6,0.4l-0.3,0.2
					c-0.3,0.2-0.5,0.5-0.8,0.7l-0.2,0.2l-0.2,0.3l-0.1,0.2c-2.5,3-3.8,6.9-3.5,10.8c10.7,4.1,32.7,7,57.4,7
					c25.9,0,48.7-3.2,58.8-7.6c0.5-3.8-0.3-7.7-2.2-11l-0.4-0.7C174.7,186.2,173.7,184.8,172.7,183.5L172.7,183.5z M44.1,195.3
					c0,0.1,0,0.2,0,0.3s0,0.2,0,0.3c0.7,4.1,8.6,8.1,21.8,11.2c14.3,3.2,33.2,5,53.4,5s39.1-1.8,53.4-5c13.9-3.2,21.8-7.5,21.8-11.8
					s-7.5-8.4-20.7-11.5c1,1.3,1.9,2.7,2.7,4.1c4.1,1.5,6.6,3.2,7.5,5c0.3,0.5,0.4,1,0.4,1.5l0,0c0,0.1,0,0.2,0,0.3
					c-0.2,1.9-2.1,3.6-5.7,5.3l-0.7,0.3l0,0c-10.4,4.5-32.5,7.5-58.6,7.5c-25,0-46.3-2.8-57.2-7l0,0l-0.7-0.3
					c-4.2-1.7-6.6-3.5-7-5.5V195c0-0.1,0-0.1,0-0.2s0-0.2,0-0.4l0,0c0-2.2,2.3-4,5.4-5.5l0.5-0.2c0.7-0.3,1.4-0.6,2.2-0.9
					c1.7-0.6,3.4-1.2,5.1-1.6c5-3.6,12.7-4.9,22.9-3.9l0.9-0.1l2.4-0.2l0.9-0.1l2.6-0.2c0.3,0,0.6,0,0.8-0.1
					c0.9-0.1,1.8-0.1,2.7-0.2l0.9-0.1l2.7-0.1h1l2.6-0.1h1.3l2.4-0.1h2h1.8c1.3,0,2.5,0,3.8,0c4.3,0,8.6,0.1,12.8,0.3
					c2.5,0.1,5,0.2,7.4,0.4c2.3-0.5,4.5-1.2,6.6-2c-8.6-0.7-17.6-1.1-26.8-1.1c-20.2,0-39.2,1.8-53.4,5
					C52.1,186.7,44.1,191,44.1,195.3z M26.1,216.6c0,3.2,3.6,6.5,10.2,9.4h0.3v0.1c3.1,1.3,6.3,2.5,9.6,3.4l1.2,0.3l0.4,0.1l1.5,0.4
					c1.3,0.3,2.6,0.6,4,1c3.1,0.7,6.4,1.3,9.8,1.9l0,0l0.5,0.1c4.8,0.8,10,1.5,15.4,2.1h0.4l0,0c3.9,0.4,8,0.8,12.1,1.1l0,0h0.4
					c5.2,0.4,10.6,0.6,16.1,0.8h0.4c3.6,0.1,7.3,0.1,11.1,0.1h2.6h3.8h0.1c3.9-0.1,7.7-0.2,11.5-0.4h0.1c5.3-0.2,10.4-0.6,15.4-1
					l0,0h0.4c5-0.4,9.9-1,14.4-1.6h0.1c6.1-0.8,11.8-1.9,17.1-3l0.8-0.2l0.6-0.1l1-0.2l0.5-0.1l1.1-0.3l0.6-0.1l1-0.2l0.6-0.2
					l0.8-0.2l0.9-0.2l0.5-0.1l1.1-0.3l0.2-0.1c11.2-3.4,17.6-7.6,18.1-11.8l0,0c0-0.2,0-0.3,0-0.5c0-3.4-4-6.9-11.4-10
					c-1.7-0.7-3.7-1.4-5.8-2.1v5.1c0,1.9-2.1,3.2-4,3.9l2.2,0.1c0.8,0,1.5,0.7,1.5,1.6c0,0.2,0,0.3-0.1,0.5
					c-3.4,9.1-36,16.1-75.8,16.1c-20.2,0-39.3-1.8-53.6-5.1c-14.5-3.3-22.5-7.8-22.5-12.6v-9.5l-0.2,0.1l-0.3,0.1L42,205l-0.3,0.1
					l-0.7,0.3l-0.3,0.1l-0.7,0.3l-0.2,0.1l-0.7,0.3l-0.3,0.1l-0.7,0.3l-0.2,0.1l-0.7,0.3l-0.2,0.1l-0.6,0.3l-0.2,0.1l-0.6,0.3
					l-0.2,0.1l-0.6,0.3l-0.2,0.1l-0.6,0.3l-0.2,0.1l-0.6,0.3l-0.2,0.1l-0.5,0.3l-0.2,0.1l-0.5,0.3l-0.1,0.1l-0.5,0.3l-0.1,0.1
					l-0.5,0.3l-0.1,0.1l-0.4,0.3l-0.1,0.1l-0.4,0.3l-0.1,0.1l-0.4,0.3l-0.1,0.1l-0.4,0.3l-0.1,0.1l-0.3,0.3l-0.1,0.1l-0.3,0.3
					l-0.1,0.1l-0.3,0.3l-0.1,0.1l-0.2,0.3c0,0-0.1,0.1-0.1,0.1c-0.1,0.1-0.1,0.2-0.2,0.3l-0.1,0.1c-0.1,0.1-0.1,0.2-0.2,0.3
					l-0.1,0.1l-0.1,0.3c0,0,0,0.1,0,0.1c0,0.1-0.1,0.2-0.1,0.3l-0.1,0.1l-0.1,0.3v0.1c0,0.1-0.1,0.2-0.1,0.3v0.1c0,0.1,0,0.2,0,0.3
					c0,0,0,0.1,0,0.1S26.1,216.5,26.1,216.6L26.1,216.6z M196,290.8v-61.4c-2.5,0.8-5.3,1.6-8.3,2.3h-0.2l-1.1,0.3l-0.5,0.1h-0.2
					l-0.8,0.2l-0.4,0.1v7.8c3.5-0.7,7-1.7,10.4-2.9l0.6-0.2v29.7l0,0c0,0.3,0,0.5,0,0.8c0,0.1,0,0.2,0,0.2s0,0.4,0,0.6
					c0,0.1,0,0.1,0,0.2c0,0.3-0.1,0.5-0.1,0.8v0.1l-0.1,0.7c0,0.1,0,0.1,0,0.2c-1.2,5.7-5.1,10.4-10.4,12.7
					c-0.4,3.3-0.5,6.6-0.3,9.9c0.1,1.2,0.1,2.4,0.1,3.5l0.5-0.2l0.5-0.2C189.3,294.9,192.8,293.1,196,290.8z M90.4,283.8h87
					c7.8,0,14.6-5.2,16.6-12.8c0,0,0,0,0,0c0.1-0.2,0.1-0.5,0.2-0.7c0-0.1,0-0.1,0-0.2c0.1-0.2,0.1-0.4,0.1-0.7v-0.1
					c0-0.2,0.1-0.5,0.1-0.8c0-0.1,0-0.1,0-0.2c0-0.2,0-0.4,0-0.6c0-0.1,0-0.1,0-0.2c0-0.3,0-0.5,0-0.8l0,0v-28.5
					c-3.4,1.2-6.9,2.1-10.4,2.8l-0.5,0.1l0,0c-4,0.9-9.2,1.8-15.5,2.7l0,0l-0.4,0.1c-4.6,0.6-9.4,1.1-14.5,1.6h-0.5l0,0
					c-4.6,0.4-9.5,0.7-14.9,0.9l0,0h-0.4h-1.1l-2.1,0.1h-1.5l-2.8,0.1h-0.9c-1.1,0-2.2,0.1-3.3,0.1h-0.4H122h-2.8
					c-3.9,0-7.6-0.1-11.1-0.1h-0.6H106h-0.6h-1.6h-0.5l-1.9-0.1h-0.7l-1.3-0.1l-1.3-0.1h-0.5l-1.5-0.1H96c-1.6-0.1-3.2-0.2-4.7-0.3
					h-0.4l0,0c-4.3-0.3-8.3-0.6-11.9-1l0,0l-0.5-0.1c-5.5-0.6-10.7-1.3-15.5-2.2l-0.3-0.1l0,0c-6-1.1-10.4-2.1-13.3-3l0,0l-0.5-0.2
					h-0.2l-0.5-0.1h-0.2l-0.6-0.2h0l-1.3-0.4l-1-0.4v28.5l0,0c0,0.3,0,0.5,0,0.8v0.3v0.5c0,0.1,0,0.3,0,0.4s0,0.2,0,0.4
					s0,0.3,0.1,0.5s0,0.2,0,0.3s0.1,0.4,0.1,0.5c0,0.1,0,0.1,0,0.2l0.1,0.6c0,0.1,0,0.1,0,0.2l0.2,0.6c0,0,0,0.1,0,0.1
					c0.3,0.8,0.6,1.6,1,2.4c0.1,0.1,0.1,0.2,0.2,0.4c0,0.1,0.1,0.2,0.1,0.2c0.1,0.2,0.2,0.3,0.3,0.5c0,0.1,0.1,0.1,0.1,0.2
					c0.1,0.2,0.2,0.3,0.3,0.5l0.1,0.1l0.4,0.5l0.1,0.1c0.1,0.2,0.3,0.4,0.4,0.5l0.1,0.1c3.3,3.9,8.1,6.2,13.2,6.1L90.4,283.8z
					 M48.6,278.1L48.6,278.1c-0.2-0.3-0.3-0.5-0.5-0.6c0,0-0.1-0.1-0.1-0.1l-0.4-0.6l-0.1-0.2l-0.3-0.5L47,276l-0.3-0.5l-0.2-0.3
					l-0.2-0.4c-0.1-0.1-0.1-0.2-0.2-0.4l-0.1-0.3c-0.4-0.8-0.7-1.7-1-2.6c0-0.1,0-0.1,0-0.2c0-0.2-0.1-0.4-0.1-0.6l-0.1-0.2
					c0-0.2-0.1-0.4-0.1-0.5s0-0.2,0-0.3s-0.1-0.3-0.1-0.5s0-0.2,0-0.4s0-0.3,0-0.4s0-0.3,0-0.5s0-0.2,0-0.3c0-0.3,0-0.6,0-0.9l0,0
					v-29.7l0.6,0.2l0.6,0.2l0.9,0.3l1,0.3h0.1l0.4,0.1h0.1l0.4,0.1h0.1v-7.4c-2.4-0.6-4.6-1.3-6.6-1.9h-0.1l-1.2-0.4l-0.5-0.2
					l-0.8-0.3c-0.2-0.1-0.4-0.1-0.6-0.2l-0.5-0.2l-0.8-0.3l-0.2-0.1l-0.8-0.4v58.2c3.3,3.6,7.1,6.5,11.4,8.8l0.1,0l0.7,0.4v-16.1
					L48.6,278.1z M49.6,231.3v7.5c4.4,1.2,8.8,2.2,13.3,3v-7.7c-3.5-0.6-6.8-1.3-10-2C51.8,231.9,50.7,231.6,49.6,231.3L49.6,231.3z
					 M138,238v7.7c5.4-0.2,10.3-0.5,14.9-0.9V237C148,237.4,143.1,237.8,138,238z M168.2,235.3v7.8c6.3-0.9,11.5-1.8,15.5-2.7v-7.8
					C178.8,233.6,173.6,234.5,168.2,235.3L168.2,235.3z M153.7,237v7.7c5-0.4,9.6-0.9,13.6-1.5v-7.8
					C162.9,236,158.4,236.5,153.7,237z M122.6,238.5h-0.3v7.6h0.4h2.9h0.7h3.1h1l2.4-0.1l1.8-0.1l1.5-0.1h1.1v-7.7
					C132.4,238.3,127.5,238.4,122.6,238.5L122.6,238.5z M121.4,238.5h-2.1c-3.7,0-7.4-0.1-11.1-0.1v7.6c3.5,0.1,7.2,0.1,11.1,0.1
					h2.1V238.5z M92.2,237.5c0,1-0.1,3.8-0.2,7.7l0.9,0.1h0.2l1.4,0.1h0.5l1.2,0.1h0.8h0.9l1.2,0.1h0.6c2.6,0.1,5.1,0.2,7.8,0.3
					v-7.6C102.2,238.1,97.1,237.9,92.2,237.5L92.2,237.5z M91.3,237.5c-4.2-0.3-8.2-0.7-12.1-1.1v7.7c3.7,0.4,7.6,0.7,11.9,1
					C91.2,241.2,91.3,238.4,91.3,237.5L91.3,237.5z M63.8,234.3v7.7c4.1,0.7,9,1.4,14.6,2v-7.7C73.3,235.7,68.4,235.1,63.8,234.3
					L63.8,234.3z M35.6,284.3v-57.6c-4.9-2.2-8.1-4.6-9.6-7.1v38.9C26.1,268,29.5,277.1,35.6,284.3L35.6,284.3z M62.9,298.3v-13.6
					h-0.4c-4.8,0-9.5-1.9-12.9-5.4v15.6C53.9,296.8,58.4,297.9,62.9,298.3L62.9,298.3z M78.4,298.5v-13.8H63.8v13.7h0.2l1,0h0.3h1.2
					L78.4,298.5z M90.4,298.5c0-1.7,0-3.3,0-4.8c0-2.8,0-5.5,0-9H79.2v13.8H90.4z M107.4,298.5v-13.8H91.2c0,3.5,0,6.1,0,9
					c0,1.5,0,3.1,0,4.8L107.4,298.5z M121.4,298.5v-13.8h-13.1v13.8L121.4,298.5z M137.1,298.5v-13.8h-14.8v13.8L137.1,298.5z
					 M152.8,298.5v-13.8H138v13.8L152.8,298.5z M167.2,298.5v-13.8h-13.6v13.8L167.2,298.5z M172.2,298.5c3.8,0,7.6-0.5,11.3-1.6
					c0-1.2-0.1-2.4-0.1-3.8c-0.2-3.2-0.1-6.4,0.2-9.6c-2,0.8-4.2,1.2-6.4,1.1H168v13.8H172.2z M206,280.2v-55
					c-3,1.6-6.1,2.9-9.3,3.9v61.1C200.4,287.4,203.6,284.1,206,280.2L206,280.2z"/>
			</g>
		</g>
		<path class="st0" d="M67.6,244.5c0,0-7.2,0.8-7.2,11.9c0,0-0.8-11.9-7.4-11.9c0,0,7.2-0.8,7.2-11.9
			C60.2,232.7,61,244.5,67.6,244.5 M48.5,248c0,8.2-5.3,8.8-5.3,8.8c5,0,5.5,8.8,5.5,8.8c0-8.2,5.3-8.8,5.3-8.8
			C49.1,256.8,48.5,248,48.5,248z M190.1,271.6c0,8.2-5.4,8.8-5.4,8.8c5,0,5.5,8.8,5.5,8.8c0-8.2,5.4-8.8,5.4-8.8
			C190.6,280.4,190.1,271.6,190.1,271.6L190.1,271.6z"/>
		<rect x="0.7" y="1.1" class="st2" width="237.1" height="69.3"/>
		<text transform="matrix(1 0 0 1 11.36 43.26)" class="st7 st8 st9">M</text>
		<text transform="matrix(1 0 0 1 39.57 43.26)" class="st7 st8 st9">O</text>
		<text transform="matrix(1 0 0 1 64.16 43.26)" class="st7 st8 st9">I</text>
		<text transform="matrix(1 0 0 1 77.27 43.26)" class="st7 st8 st9">S</text>
		<text transform="matrix(1 0 0 1 95.8 43.26)" class="st7 st8 st9">T</text>
		<text transform="matrix(1 0 0 1 115.03 43.26)" class="st7 st8 st9">U</text>
		<text transform="matrix(1 0 0 1 138.63 43.26)" class="st7 st8 st9">R</text>
		<text transform="matrix(1 0 0 1 159.86 43.26)" class="st7 st8 st9">I</text>
		<text transform="matrix(1 0 0 1 172.97 43.26)" class="st7 st8 st9">S</text>
		<text transform="matrix(1 0 0 1 191.5 43.26)" class="st7 st8 st9">E</text>
		<text transform="matrix(1 0 0 1 210.26 43.26)" class="st7 st8 st9">R</text>
	</g>
</g>
</svg>
