<?xml version="1.0" encoding="utf-8"?>
<!-- Generator: Adobe Illustrator 25.2.1, SVG Export Plug-In . SVG Version: 6.00 Build 0)  -->
<svg version="1.1" id="Layer_1" xmlns="http://www.w3.org/2000/svg" xmlns:xlink="http://www.w3.org/1999/xlink" x="0px" y="0px"
	 viewBox="0 0 241.4 364.5" style="enable-background:new 0 0 241.4 364.5;" xml:space="preserve">
<style type="text/css">
	.st0{fill:#E3F4FF;}
	.st1{fill:#5CA6BB;}
	.st2{clip-path:url(#SVGID_2_);}
	.st3{fill:#FFFFFF;}
	.st4{fill:#FEF6F0;}
	.st5{font-family:'OpenSans-Bold';}
	.st6{font-size:25px;}
</style>
<g id="Layer_2_1_">
	<g id="Layer_1-2">
		<rect y="0" class="st0" width="241.4" height="364.5"/>
		<rect x="0" y="0" class="st1" width="241.5" height="70.1"/>
		<g>
			<defs>
				<rect id="SVGID_1_" x="57.4" y="92.7" width="125.9" height="241.3"/>
			</defs>
			<clipPath id="SVGID_2_">
				<use xlink:href="#SVGID_1_"  style="overflow:visible;"/>
			</clipPath>
			<g class="st2">
				<path class="st3" d="M182.8,311.1c0,12.4-28,22.4-62.5,22.4s-62.4-10-62.4-22.4c0-0.7,0.1-1.5,0.3-2.2L72.8,202
					c1.5-10.9,10.4-19,21-19h3.6c-0.4-0.7-0.7-1.5-0.7-2.3v-31c0-5.4,10.9-9.9,24.4-9.9s24.4,4.4,24.4,9.9v31.1
					c0,0.8-0.2,1.6-0.7,2.3h2.2c10.6,0,19.5,8.1,21,19l14.6,106.9C182.7,309.6,182.8,310.4,182.8,311.1z"/>
				<path class="st1" d="M87,311.6c0.1,0,0.2,0,0.2,0c0.1,0,0.3,0,0.5,0.1c-0.1-0.2-0.3-0.2-0.5-0.2C87.2,311.6,87.1,311.6,87,311.6
					z M83.6,304.2c-0.1,0-0.2,0-0.3,0v1.3c0.1,0,0.2,0.1,0.3,0c0.4,0,0.7-0.3,0.7-0.6c0,0,0,0,0,0c0-0.4-0.2-0.7-0.6-0.7
					C83.6,304.2,83.6,304.2,83.6,304.2L83.6,304.2z M85.4,307.9c-0.4,0-0.7,0.3-0.7,0.7s0.3,0.7,0.7,0.7s0.7-0.3,0.7-0.7
					c0,0,0,0,0,0C86.1,308.2,85.9,307.9,85.4,307.9C85.5,307.9,85.4,307.9,85.4,307.9L85.4,307.9z M83.6,296.8c-0.1,0-0.2,0-0.3,0
					v1.3c0.1,0,0.2,0.1,0.3,0c0.4,0,0.7-0.3,0.7-0.6c0,0,0,0,0,0C84.3,297.1,84,296.8,83.6,296.8C83.6,296.8,83.6,296.8,83.6,296.8
					L83.6,296.8z M85.4,300.5c-0.4,0-0.7,0.3-0.7,0.7s0.3,0.7,0.7,0.7s0.7-0.3,0.7-0.7c0,0,0,0,0,0
					C86.1,300.8,85.8,300.5,85.4,300.5C85.4,300.5,85.4,300.5,85.4,300.5L85.4,300.5z M83.6,289.4c-0.1,0-0.2,0-0.3,0v1.3
					c0.1,0,0.2,0.1,0.3,0c0.4,0,0.7-0.3,0.7-0.6c0,0,0,0,0,0c0-0.4-0.2-0.7-0.6-0.7C83.6,289.4,83.6,289.4,83.6,289.4L83.6,289.4z
					 M85.4,293.1c-0.4,0-0.7,0.3-0.7,0.7s0.3,0.7,0.7,0.7s0.7-0.3,0.7-0.7c0,0,0,0,0,0C86.1,293.4,85.9,293.1,85.4,293.1
					C85.5,293.1,85.4,293.1,85.4,293.1L85.4,293.1z M85.4,285.7c-0.4,0-0.7,0.3-0.7,0.7s0.3,0.7,0.7,0.7s0.7-0.3,0.7-0.7
					c0,0,0,0,0,0C86.1,286,85.8,285.7,85.4,285.7C85.4,285.7,85.4,285.7,85.4,285.7L85.4,285.7z M83.6,282c-0.1,0-0.2,0-0.3,0v1.3
					c0.1,0,0.2,0.1,0.3,0c0.4,0,0.7-0.3,0.7-0.6c0,0,0,0,0,0C84.3,282.4,84,282,83.6,282C83.6,282,83.6,282,83.6,282z M85.4,278.3
					c-0.4,0-0.7,0.3-0.7,0.7s0.3,0.7,0.7,0.7s0.7-0.3,0.7-0.7c0,0,0,0,0,0c0.1-0.3-0.2-0.7-0.5-0.7
					C85.5,278.3,85.4,278.3,85.4,278.3L85.4,278.3z M83.6,274.6c-0.1,0-0.2,0-0.3,0v1.3c0.1,0,0.2,0.1,0.3,0c0.4,0,0.7-0.3,0.7-0.6
					c0,0,0,0,0,0c0.1-0.4-0.2-0.7-0.5-0.8C83.7,274.6,83.6,274.6,83.6,274.6L83.6,274.6z M85.4,270.9c-0.4,0-0.7,0.3-0.7,0.7
					s0.3,0.7,0.7,0.7s0.7-0.3,0.7-0.7c0,0,0,0,0,0C86.1,271.2,85.8,270.9,85.4,270.9C85.4,270.9,85.4,270.9,85.4,270.9L85.4,270.9z
					 M83.6,267.2c-0.1,0-0.2,0-0.3,0v1.3c0.1,0,0.2,0.1,0.3,0c0.4,0,0.7-0.3,0.7-0.6c0,0,0,0,0,0c0-0.4-0.2-0.7-0.6-0.8
					C83.6,267.2,83.6,267.1,83.6,267.2L83.6,267.2z M83.6,259.8c0,0.5-0.1,0.9-0.1,1.4h0.1c0.4,0,0.7-0.3,0.7-0.6c0,0,0,0,0,0
					C84.3,260.1,84,259.8,83.6,259.8L83.6,259.8z M85.3,263.5c-0.4,0-0.7,0.3-0.7,0.7s0.3,0.7,0.7,0.7s0.7-0.3,0.7-0.7c0,0,0,0,0,0
					c0-0.3-0.2-0.7-0.5-0.7C85.4,263.5,85.4,263.5,85.3,263.5L85.3,263.5z M85.3,256.1c-0.4,0-0.7,0.3-0.7,0.7s0.3,0.7,0.7,0.7
					s0.7-0.3,0.7-0.7c0,0,0,0,0,0C86,256.4,85.8,256.1,85.3,256.1C85.4,256.1,85.4,256.1,85.3,256.1L85.3,256.1z M91,311.6
					c-0.4,0-0.7,0.3-0.7,0.6c0,0,0,0,0,0v0c0.4,0.1,0.9,0.2,1.3,0.2c0-0.1,0-0.2,0-0.3C91.6,311.9,91.3,311.6,91,311.6z M91,304.2
					c-0.4,0-0.7,0.3-0.7,0.7c0,0.4,0.3,0.7,0.7,0.7c0.4,0,0.7-0.3,0.7-0.7c0,0,0,0,0,0C91.7,304.5,91.4,304.2,91,304.2
					C91,304.2,91,304.2,91,304.2L91,304.2z M87.3,304.2c-0.4,0-0.7,0.3-0.7,0.7c0,0.4,0.3,0.7,0.7,0.7c0.4,0,0.7-0.3,0.7-0.7
					c0,0,0,0,0,0C88,304.5,87.7,304.2,87.3,304.2C87.3,304.2,87.3,304.2,87.3,304.2L87.3,304.2z M92.8,307.9c-0.4,0-0.7,0.3-0.7,0.7
					s0.3,0.7,0.7,0.7c0.4,0,0.7-0.3,0.7-0.7l0,0C93.5,308.2,93.2,307.9,92.8,307.9C92.9,307.9,92.8,307.9,92.8,307.9L92.8,307.9z
					 M89.1,307.9c-0.4,0-0.7,0.3-0.7,0.7s0.3,0.7,0.7,0.7c0.4,0,0.7-0.3,0.7-0.7l0,0C89.8,308.2,89.6,307.9,89.1,307.9
					C89.2,307.9,89.1,307.9,89.1,307.9L89.1,307.9z M87.3,296.8c-0.4,0-0.7,0.3-0.7,0.7c0,0.4,0.3,0.7,0.7,0.7
					c0.4,0,0.7-0.3,0.7-0.7c0,0,0,0,0,0C87.9,297.1,87.6,296.8,87.3,296.8L87.3,296.8z M89.1,300.5c-0.4,0-0.7,0.3-0.7,0.7
					s0.3,0.7,0.7,0.7c0.4,0,0.7-0.3,0.7-0.7l0,0C89.8,300.8,89.5,300.5,89.1,300.5C89.1,300.5,89.1,300.5,89.1,300.5L89.1,300.5z
					 M92.8,300.5c-0.4,0-0.7,0.3-0.7,0.7s0.3,0.7,0.7,0.7c0.4,0,0.7-0.3,0.7-0.7l0,0C93.5,300.8,93.2,300.5,92.8,300.5
					C92.8,300.5,92.8,300.5,92.8,300.5L92.8,300.5z M91,296.8c-0.4,0-0.7,0.3-0.7,0.7c0,0.4,0.3,0.7,0.7,0.7c0.4,0,0.7-0.3,0.7-0.7
					c0,0,0,0,0,0C91.7,297.1,91.4,296.8,91,296.8z M91,289.4c-0.4,0-0.7,0.3-0.7,0.7c0,0.4,0.3,0.7,0.7,0.7c0.4,0,0.7-0.3,0.7-0.7
					c0,0,0,0,0,0C91.7,289.7,91.4,289.4,91,289.4C91,289.4,91,289.4,91,289.4L91,289.4z M92.8,293.1c-0.4,0-0.7,0.3-0.7,0.7
					s0.3,0.7,0.7,0.7c0.4,0,0.7-0.3,0.7-0.7l0,0C93.5,293.4,93.2,293.1,92.8,293.1C92.9,293.1,92.8,293.1,92.8,293.1L92.8,293.1z
					 M87.3,289.4c-0.4,0-0.7,0.3-0.7,0.7c0,0.4,0.3,0.7,0.7,0.7c0.4,0,0.7-0.3,0.7-0.7c0,0,0,0,0,0C88,289.7,87.7,289.4,87.3,289.4
					C87.3,289.4,87.3,289.4,87.3,289.4L87.3,289.4z M89.1,293.1c-0.4,0-0.7,0.3-0.7,0.7s0.3,0.7,0.7,0.7c0.4,0,0.7-0.3,0.7-0.7l0,0
					C89.8,293.4,89.6,293.1,89.1,293.1C89.2,293.1,89.1,293.1,89.1,293.1L89.1,293.1z M91,282c-0.4,0-0.7,0.3-0.7,0.7
					c0,0.4,0.3,0.7,0.7,0.7c0.4,0,0.7-0.3,0.7-0.7c0,0,0,0,0,0C91.7,282.3,91.4,282,91,282z M87.3,282c-0.4,0-0.7,0.3-0.7,0.7
					c0,0.4,0.3,0.7,0.7,0.7c0.4,0,0.7-0.3,0.7-0.7c0,0,0,0,0,0C87.9,282.3,87.6,282,87.3,282L87.3,282z M89.1,285.7
					c-0.4,0-0.7,0.3-0.7,0.7s0.3,0.7,0.7,0.7c0.4,0,0.7-0.3,0.7-0.7l0,0C89.8,286,89.6,285.7,89.1,285.7
					C89.2,285.7,89.1,285.7,89.1,285.7L89.1,285.7z M92.8,285.7c-0.4,0-0.7,0.3-0.7,0.7s0.3,0.7,0.7,0.7c0.4,0,0.7-0.3,0.7-0.7l0,0
					C93.5,286,93.2,285.7,92.8,285.7C92.8,285.7,92.8,285.7,92.8,285.7L92.8,285.7z M89.1,278.3c-0.4,0-0.7,0.3-0.7,0.7
					s0.3,0.7,0.7,0.7c0.4,0,0.7-0.3,0.7-0.7l0,0c0-0.4-0.2-0.7-0.6-0.7C89.2,278.3,89.1,278.3,89.1,278.3L89.1,278.3z M92.8,278.3
					c-0.4,0-0.7,0.3-0.7,0.7s0.3,0.7,0.7,0.7c0.4,0,0.7-0.3,0.7-0.7l0,0C93.5,278.6,93.3,278.3,92.8,278.3
					C92.9,278.3,92.8,278.3,92.8,278.3L92.8,278.3z M91,274.6c-0.4,0-0.7,0.3-0.7,0.7c0,0.4,0.3,0.7,0.7,0.7c0.4,0,0.7-0.3,0.7-0.7
					c0,0,0,0,0,0C91.7,274.9,91.4,274.6,91,274.6C91,274.6,91,274.6,91,274.6z M87.3,274.6c-0.4,0-0.7,0.3-0.7,0.7
					c0,0.4,0.3,0.7,0.7,0.7c0.4,0,0.7-0.3,0.7-0.7c0,0,0,0,0,0C88,274.9,87.7,274.6,87.3,274.6C87.3,274.6,87.3,274.6,87.3,274.6
					L87.3,274.6z M89.1,270.9c-0.4,0-0.7,0.3-0.7,0.7s0.3,0.7,0.7,0.7c0.4,0,0.7-0.3,0.7-0.7l0,0C89.8,271.2,89.5,270.9,89.1,270.9
					C89.1,270.9,89.1,270.9,89.1,270.9L89.1,270.9z M92.8,270.9c-0.4,0-0.7,0.3-0.7,0.7s0.3,0.7,0.7,0.7c0.4,0,0.7-0.3,0.7-0.7l0,0
					C93.5,271.2,93.2,270.9,92.8,270.9C92.8,270.9,92.8,270.9,92.8,270.9L92.8,270.9z M91,267.1c-0.4,0-0.7,0.3-0.7,0.7
					c0,0.4,0.3,0.7,0.7,0.7c0.4,0,0.7-0.3,0.7-0.7c0,0,0,0,0,0C91.7,267.5,91.4,267.2,91,267.1z M87.3,267.1c-0.4,0-0.7,0.3-0.7,0.7
					c0,0.4,0.3,0.7,0.7,0.7c0.4,0,0.7-0.3,0.7-0.7c0,0,0,0,0,0C87.9,267.4,87.6,267.1,87.3,267.1L87.3,267.1z M89.1,263.5
					c-0.4,0-0.7,0.3-0.7,0.7s0.3,0.7,0.7,0.7c0.4,0,0.7-0.3,0.7-0.7l0,0C89.8,263.8,89.6,263.5,89.1,263.5
					C89.2,263.5,89.1,263.5,89.1,263.5L89.1,263.5z M92.8,263.5c-0.4,0-0.7,0.3-0.7,0.7s0.3,0.7,0.7,0.7c0.4,0,0.7-0.3,0.7-0.7l0,0
					C93.5,263.8,93.2,263.5,92.8,263.5C92.9,263.5,92.8,263.5,92.8,263.5L92.8,263.5z M91,259.8c-0.4,0-0.7,0.3-0.7,0.7
					c0,0.4,0.3,0.7,0.7,0.7c0.4,0,0.7-0.3,0.7-0.7c0,0,0,0,0,0C91.7,260.1,91.4,259.8,91,259.8C91,259.8,91,259.8,91,259.8z
					 M87.3,259.8c-0.4,0-0.7,0.3-0.7,0.7c0,0.4,0.3,0.7,0.7,0.7c0.4,0,0.7-0.3,0.7-0.7c0,0,0,0,0,0C88,260.1,87.7,259.8,87.3,259.8
					C87.3,259.8,87.3,259.8,87.3,259.8L87.3,259.8z M87.3,252.3c-0.4,0-0.7,0.3-0.7,0.7s0.3,0.7,0.7,0.7c0.4,0,0.7-0.3,0.7-0.7
					c0,0,0,0,0,0C87.9,252.6,87.6,252.3,87.3,252.3L87.3,252.3z M89.1,256c-0.4,0-0.7,0.3-0.7,0.7s0.3,0.7,0.7,0.7
					c0.4,0,0.7-0.3,0.7-0.7l0,0C89.8,256.4,89.5,256.1,89.1,256C89.1,256,89.1,256,89.1,256L89.1,256z M91,252.3
					c-0.4,0-0.7,0.3-0.7,0.7c0,0.4,0.3,0.7,0.7,0.7c0.4,0,0.7-0.3,0.7-0.7c0,0,0,0,0,0C91.7,252.6,91.4,252.3,91,252.3z M92.8,256
					c-0.4,0-0.7,0.3-0.7,0.7s0.3,0.7,0.7,0.7c0.4,0,0.7-0.3,0.7-0.7l0,0C93.5,256.3,93.2,256,92.8,256C92.8,256,92.8,256,92.8,256
					L92.8,256z M92.8,248.7c-0.4,0-0.7,0.3-0.7,0.7c0,0.4,0.3,0.7,0.7,0.7c0.4,0,0.7-0.3,0.7-0.7l0,0
					C93.5,249,93.2,248.7,92.8,248.7C92.9,248.7,92.8,248.7,92.8,248.7L92.8,248.7z M89.1,248.7c-0.4,0-0.7,0.3-0.7,0.7
					c0,0.4,0.3,0.7,0.7,0.7c0.4,0,0.7-0.3,0.7-0.7l0,0C89.8,249,89.6,248.7,89.1,248.7C89.2,248.7,89.1,248.7,89.1,248.7L89.1,248.7
					z M91,245c-0.4,0-0.7,0.3-0.7,0.7c0,0.4,0.3,0.7,0.7,0.7c0.4,0,0.7-0.3,0.7-0.7c0,0,0,0,0,0C91.7,245.3,91.4,245,91,245
					C91,245,91,245,91,245z M92.8,241.3c-0.4,0-0.7,0.3-0.7,0.7c0,0.4,0.3,0.7,0.7,0.7c0.4,0,0.7-0.3,0.7-0.7l0,0
					C93.5,241.6,93.2,241.3,92.8,241.3C92.8,241.2,92.8,241.2,92.8,241.3L92.8,241.3z M94.7,311.6c-0.4,0-0.7,0.3-0.7,0.7
					c0,0.4,0.3,0.7,0.7,0.7c0.4,0,0.7-0.3,0.7-0.7c0,0,0,0,0,0C95.4,311.9,95.1,311.6,94.7,311.6C94.7,311.6,94.7,311.6,94.7,311.6
					L94.7,311.6z M98.4,311.6c-0.4,0-0.7,0.3-0.7,0.7c0,0.4,0.3,0.7,0.7,0.7c0.4,0,0.7-0.3,0.7-0.7c0,0,0,0,0,0
					C99.1,311.9,98.8,311.6,98.4,311.6C98.4,311.6,98.4,311.6,98.4,311.6L98.4,311.6z M100.2,307.9c-0.4,0-0.7,0.3-0.7,0.7
					s0.3,0.7,0.7,0.7c0.4,0,0.7-0.3,0.7-0.7l0,0c0-0.4-0.2-0.7-0.6-0.7C100.3,307.9,100.2,307.9,100.2,307.9L100.2,307.9z
					 M94.7,304.2c-0.4,0-0.7,0.3-0.7,0.7c0,0.4,0.3,0.7,0.7,0.7c0.4,0,0.7-0.3,0.7-0.7c0,0,0,0,0,0c0-0.3-0.2-0.7-0.5-0.7
					C94.7,304.2,94.7,304.2,94.7,304.2L94.7,304.2z M98.4,304.2c-0.4,0-0.7,0.3-0.7,0.7c0,0.4,0.3,0.7,0.7,0.7
					c0.4,0,0.7-0.3,0.7-0.7c0,0,0,0,0,0c0-0.4-0.2-0.7-0.6-0.7C98.5,304.2,98.4,304.2,98.4,304.2L98.4,304.2z M96.5,307.9
					c-0.4,0-0.7,0.3-0.7,0.7s0.3,0.7,0.7,0.7s0.7-0.3,0.7-0.7c0,0,0,0,0,0C97.3,308.3,97,307.9,96.5,307.9
					C96.6,307.9,96.6,307.9,96.5,307.9L96.5,307.9z M94.7,296.8c-0.4,0-0.7,0.3-0.7,0.7c0,0.4,0.3,0.7,0.7,0.7
					c0.4,0,0.7-0.3,0.7-0.7c0,0,0,0,0,0C95.4,297.1,95.1,296.8,94.7,296.8C94.7,296.8,94.7,296.8,94.7,296.8L94.7,296.8z
					 M100.2,300.5c-0.4,0-0.7,0.3-0.7,0.7s0.3,0.7,0.7,0.7c0.4,0,0.7-0.3,0.7-0.7l0,0C100.9,300.8,100.7,300.5,100.2,300.5
					C100.3,300.5,100.2,300.5,100.2,300.5L100.2,300.5z M98.4,296.8c-0.4,0-0.7,0.3-0.7,0.7c0,0.4,0.3,0.7,0.7,0.7
					c0.4,0,0.7-0.3,0.7-0.7c0,0,0,0,0,0C99.1,297.1,98.8,296.8,98.4,296.8C98.4,296.8,98.4,296.8,98.4,296.8L98.4,296.8z
					 M96.5,300.5c-0.4,0-0.7,0.3-0.7,0.7s0.3,0.7,0.7,0.7s0.7-0.3,0.7-0.7c0,0,0,0,0,0C97.2,300.8,96.9,300.5,96.5,300.5
					C96.6,300.5,96.5,300.5,96.5,300.5L96.5,300.5z M98.4,289.4c-0.4,0-0.7,0.3-0.7,0.7c0,0.4,0.3,0.7,0.7,0.7
					c0.4,0,0.7-0.3,0.7-0.7c0,0,0,0,0,0c0-0.4-0.2-0.7-0.6-0.7C98.5,289.4,98.4,289.4,98.4,289.4L98.4,289.4z M94.7,289.4
					c-0.4,0-0.7,0.3-0.7,0.7c0,0.4,0.3,0.7,0.7,0.7c0.4,0,0.7-0.3,0.7-0.7c0,0,0,0,0,0c0-0.3-0.2-0.7-0.5-0.7
					C94.7,289.4,94.7,289.4,94.7,289.4L94.7,289.4z M96.5,293.1c-0.4,0-0.7,0.3-0.7,0.7s0.3,0.7,0.7,0.7s0.7-0.3,0.7-0.7
					c0,0,0,0,0,0C97.3,293.5,97,293.1,96.5,293.1C96.6,293.1,96.6,293.1,96.5,293.1L96.5,293.1z M100.2,293.1
					c-0.4,0-0.7,0.3-0.7,0.7s0.3,0.7,0.7,0.7c0.4,0,0.7-0.3,0.7-0.7l0,0c0-0.4-0.2-0.7-0.6-0.7C100.3,293.1,100.2,293.1,100.2,293.1
					L100.2,293.1z M100.2,285.7c-0.4,0-0.7,0.3-0.7,0.7s0.3,0.7,0.7,0.7c0.4,0,0.7-0.3,0.7-0.7l0,0
					C100.9,286,100.7,285.7,100.2,285.7C100.3,285.7,100.2,285.7,100.2,285.7L100.2,285.7z M94.7,282c-0.4,0-0.7,0.3-0.7,0.7
					c0,0.4,0.3,0.7,0.7,0.7c0.4,0,0.7-0.3,0.7-0.7c0,0,0,0,0,0C95.3,282.3,95,282,94.7,282C94.7,282,94.7,282,94.7,282z M96.5,285.7
					c-0.4,0-0.7,0.3-0.7,0.7s0.3,0.7,0.7,0.7s0.7-0.3,0.7-0.7c0,0,0,0,0,0C97.2,286,96.9,285.7,96.5,285.7
					C96.5,285.7,96.5,285.7,96.5,285.7L96.5,285.7z M98.4,282c-0.4,0-0.7,0.3-0.7,0.7c0,0.4,0.3,0.7,0.7,0.7c0.4,0,0.7-0.3,0.7-0.7
					c0,0,0,0,0,0C99,282.3,98.7,282,98.4,282C98.4,282,98.4,282,98.4,282z M94.7,274.6c-0.4,0-0.7,0.3-0.7,0.7
					c0,0.4,0.3,0.7,0.7,0.7c0.4,0,0.7-0.3,0.7-0.7c0,0,0,0,0,0c0-0.3-0.2-0.7-0.5-0.7C94.7,274.6,94.7,274.6,94.7,274.6L94.7,274.6z
					 M100.2,278.3c-0.4,0-0.7,0.3-0.7,0.7s0.3,0.7,0.7,0.7c0.4,0,0.7-0.3,0.7-0.7l0,0c0-0.4-0.2-0.7-0.6-0.7
					C100.3,278.3,100.2,278.3,100.2,278.3L100.2,278.3z M96.5,278.3c-0.4,0-0.7,0.3-0.7,0.7s0.3,0.7,0.7,0.7s0.7-0.3,0.7-0.7
					c0,0,0,0,0,0C97.2,278.6,97,278.3,96.5,278.3C96.6,278.3,96.6,278.3,96.5,278.3L96.5,278.3z M98.4,274.6c-0.4,0-0.7,0.3-0.7,0.7
					c0,0.4,0.3,0.7,0.7,0.7c0.4,0,0.7-0.3,0.7-0.7c0,0,0,0,0,0c0-0.4-0.2-0.7-0.6-0.7C98.4,274.6,98.4,274.6,98.4,274.6L98.4,274.6z
					 M94.7,267.2c-0.4,0-0.7,0.3-0.7,0.7c0,0.4,0.3,0.7,0.7,0.7c0.4,0,0.7-0.3,0.7-0.7c0,0,0,0,0,0
					C95.3,267.5,95.1,267.2,94.7,267.2C94.7,267.2,94.7,267.1,94.7,267.2L94.7,267.2z M98.4,267.2c-0.4,0-0.7,0.3-0.7,0.7
					c0,0.4,0.3,0.7,0.7,0.7c0.4,0,0.7-0.3,0.7-0.7c0,0,0,0,0,0C99.1,267.5,98.8,267.2,98.4,267.2C98.4,267.2,98.4,267.1,98.4,267.2
					L98.4,267.2z M96.5,270.9c-0.4,0-0.7,0.3-0.7,0.7s0.3,0.7,0.7,0.7s0.7-0.3,0.7-0.7c0,0,0,0,0,0
					C97.2,271.2,96.9,270.9,96.5,270.9C96.5,270.9,96.5,270.9,96.5,270.9L96.5,270.9z M100.2,270.9c-0.4,0-0.7,0.3-0.7,0.7
					s0.3,0.7,0.7,0.7c0.4,0,0.7-0.3,0.7-0.7l0,0C100.9,271.2,100.6,270.9,100.2,270.9C100.2,270.9,100.2,270.9,100.2,270.9
					L100.2,270.9z M100.2,263.5c-0.4,0-0.7,0.3-0.7,0.7s0.3,0.7,0.7,0.7c0.4,0,0.7-0.3,0.7-0.7l0,0c0-0.4-0.2-0.7-0.6-0.7
					C100.3,263.5,100.2,263.5,100.2,263.5L100.2,263.5z M96.5,263.5c-0.4,0-0.7,0.3-0.7,0.7s0.3,0.7,0.7,0.7s0.7-0.3,0.7-0.7
					c0,0,0,0,0,0C97.2,263.8,97,263.5,96.5,263.5C96.6,263.5,96.6,263.5,96.5,263.5L96.5,263.5z M94.7,259.8c-0.4,0-0.7,0.3-0.7,0.7
					c0,0.4,0.3,0.7,0.7,0.7c0.4,0,0.7-0.3,0.7-0.7c0,0,0,0,0,0c0-0.3-0.2-0.7-0.5-0.7C94.7,259.8,94.7,259.8,94.7,259.8L94.7,259.8z
					 M98.4,259.8c-0.4,0-0.7,0.3-0.7,0.7c0,0.4,0.3,0.7,0.7,0.7c0.4,0,0.7-0.3,0.7-0.7c0,0,0,0,0,0c0-0.4-0.2-0.7-0.6-0.7
					C98.4,259.8,98.4,259.8,98.4,259.8L98.4,259.8z M96.5,256.1c-0.4,0-0.7,0.3-0.7,0.7s0.3,0.7,0.7,0.7s0.7-0.3,0.7-0.7
					c0,0,0,0,0,0C97.2,256.4,96.9,256.1,96.5,256.1C96.5,256.1,96.5,256.1,96.5,256.1L96.5,256.1z M100.2,256.1
					c-0.4,0-0.7,0.3-0.7,0.7s0.3,0.7,0.7,0.7c0.4,0,0.7-0.3,0.7-0.7l0,0C100.9,256.4,100.6,256.1,100.2,256.1
					C100.2,256,100.2,256,100.2,256.1L100.2,256.1z M98.4,252.4c-0.4,0-0.7,0.3-0.7,0.6s0.3,0.7,0.6,0.7s0.7-0.3,0.7-0.6
					c0,0,0-0.1,0-0.1C99,252.6,98.7,252.4,98.4,252.4L98.4,252.4z M94.7,252.4c-0.4,0-0.7,0.3-0.7,0.7s0.3,0.7,0.7,0.7
					c0.4,0,0.7-0.3,0.7-0.7c0,0,0,0,0,0C95.3,252.7,95.1,252.4,94.7,252.4C94.7,252.3,94.7,252.3,94.7,252.4L94.7,252.4z
					 M100.2,248.7c-0.4,0-0.7,0.3-0.7,0.7c0,0.4,0.3,0.7,0.7,0.7c0.4,0,0.7-0.3,0.7-0.7l0,0c0-0.4-0.2-0.7-0.6-0.7
					C100.3,248.7,100.2,248.7,100.2,248.7L100.2,248.7z M96.5,248.7c-0.4,0-0.7,0.3-0.7,0.7c0,0.4,0.3,0.7,0.7,0.7s0.7-0.3,0.7-0.7
					c0,0,0,0,0,0C97.2,249,97,248.7,96.5,248.7C96.6,248.7,96.6,248.7,96.5,248.7L96.5,248.7z M94.7,245c-0.4,0-0.7,0.3-0.7,0.7
					s0.3,0.7,0.7,0.7c0.4,0,0.7-0.3,0.7-0.7c0,0,0,0,0,0C95.3,245.3,95.1,245,94.7,245C94.7,245,94.7,245,94.7,245z M98.4,245
					c-0.4,0-0.7,0.3-0.7,0.7c0,0.4,0.3,0.7,0.7,0.7c0.4,0,0.7-0.3,0.7-0.7c0,0,0,0,0,0C99.1,245.3,98.8,245,98.4,245
					C98.4,245,98.4,245,98.4,245z M98.4,237.6c-0.4,0-0.7,0.3-0.7,0.7c0,0.4,0.3,0.7,0.7,0.7c0.4,0,0.7-0.3,0.7-0.7c0,0,0,0,0,0
					C99.1,237.9,98.8,237.6,98.4,237.6C98.4,237.5,98.4,237.5,98.4,237.6L98.4,237.6z M100.2,241.3c-0.4,0-0.7,0.3-0.7,0.7
					c0,0.4,0.3,0.7,0.7,0.7c0.4,0,0.7-0.3,0.7-0.7l0,0C100.9,241.6,100.6,241.3,100.2,241.3C100.2,241.2,100.2,241.2,100.2,241.3
					L100.2,241.3z M94.7,237.6L94.7,237.6c-0.3,0.2-0.5,0.4-0.7,0.6v0.1c0,0.4,0.3,0.7,0.7,0.7c0.4,0,0.7-0.3,0.7-0.7
					S95,237.6,94.7,237.6C94.7,237.6,94.7,237.6,94.7,237.6z M96.5,241.3c-0.4,0-0.7,0.3-0.7,0.7c0,0.4,0.3,0.7,0.7,0.7
					s0.7-0.3,0.7-0.7c0,0,0,0,0,0C97.2,241.6,96.9,241.3,96.5,241.3C96.5,241.2,96.5,241.2,96.5,241.3L96.5,241.3z M100.2,233.9
					c-0.4,0-0.7,0.3-0.7,0.7c0,0.4,0.3,0.7,0.7,0.7c0.4,0,0.7-0.3,0.7-0.7l0,0c0-0.4-0.2-0.7-0.6-0.7
					C100.3,233.9,100.2,233.9,100.2,233.9L100.2,233.9z M105.8,311.6c-0.4,0-0.7,0.3-0.7,0.7c0,0.4,0.3,0.7,0.7,0.7
					c0.4,0,0.7-0.3,0.7-0.7c0,0,0,0,0,0C106.5,311.9,106.2,311.6,105.8,311.6C105.8,311.6,105.8,311.6,105.8,311.6L105.8,311.6z
					 M102.1,311.6c-0.4,0-0.7,0.3-0.7,0.7c0,0.4,0.3,0.7,0.7,0.7c0.4,0,0.7-0.3,0.7-0.7c0,0,0,0,0,0
					C102.8,311.9,102.5,311.6,102.1,311.6C102.1,311.6,102.1,311.6,102.1,311.6L102.1,311.6z M103.9,307.9c-0.4,0-0.7,0.3-0.7,0.7
					s0.3,0.7,0.7,0.7s0.7-0.3,0.7-0.7c0,0,0,0,0,0c0.1-0.3-0.2-0.7-0.5-0.7C104,307.9,104,307.9,103.9,307.9L103.9,307.9z
					 M102.1,304.2c-0.4,0-0.7,0.3-0.7,0.7c0,0.4,0.3,0.7,0.7,0.7c0.4,0,0.7-0.3,0.7-0.7c0,0,0,0,0,0
					C102.8,304.5,102.5,304.2,102.1,304.2C102.1,304.2,102.1,304.2,102.1,304.2L102.1,304.2z M107.6,307.9c-0.4,0-0.7,0.3-0.7,0.7
					s0.3,0.7,0.7,0.7c0.4,0,0.7-0.3,0.7-0.7l0,0C108.3,308.3,108.1,307.9,107.6,307.9C107.7,307.9,107.6,307.9,107.6,307.9
					L107.6,307.9z M105.8,304.2c-0.4,0-0.7,0.3-0.7,0.7c0,0.4,0.3,0.7,0.7,0.7c0.4,0,0.7-0.3,0.7-0.7c0,0,0,0,0,0
					C106.5,304.6,106.2,304.2,105.8,304.2C105.8,304.2,105.8,304.2,105.8,304.2L105.8,304.2z M107.6,300.5c-0.4,0-0.7,0.3-0.7,0.7
					s0.3,0.7,0.7,0.7c0.4,0,0.7-0.3,0.7-0.7l0,0C108.3,300.8,108,300.5,107.6,300.5C107.6,300.5,107.6,300.5,107.6,300.5
					L107.6,300.5z M105.8,296.8c-0.4,0-0.7,0.3-0.7,0.7c0,0.4,0.3,0.7,0.7,0.7c0.4,0,0.7-0.3,0.7-0.7c0,0,0,0,0,0
					C106.5,297.1,106.2,296.8,105.8,296.8C105.8,296.8,105.8,296.8,105.8,296.8L105.8,296.8z M103.9,300.5c-0.4,0-0.7,0.3-0.7,0.7
					s0.3,0.7,0.7,0.7s0.7-0.3,0.7-0.7c0,0,0,0,0,0C104.6,300.8,104.3,300.5,103.9,300.5C104,300.5,103.9,300.5,103.9,300.5
					L103.9,300.5z M102.1,296.8c-0.4,0-0.7,0.3-0.7,0.7c0,0.4,0.3,0.7,0.7,0.7c0.4,0,0.7-0.3,0.7-0.7c0,0,0,0,0,0
					C102.8,297.1,102.5,296.8,102.1,296.8C102.1,296.8,102.1,296.8,102.1,296.8L102.1,296.8z M105.8,289.4c-0.4,0-0.7,0.3-0.7,0.7
					c0,0.4,0.3,0.7,0.7,0.7c0.4,0,0.7-0.3,0.7-0.7c0,0,0,0,0,0C106.5,289.7,106.2,289.4,105.8,289.4
					C105.8,289.4,105.8,289.4,105.8,289.4L105.8,289.4z M107.6,293.1c-0.4,0-0.7,0.3-0.7,0.7s0.3,0.7,0.7,0.7c0.4,0,0.7-0.3,0.7-0.7
					l0,0C108.3,293.5,108.1,293.1,107.6,293.1C107.7,293.1,107.6,293.1,107.6,293.1L107.6,293.1z M103.9,293.1
					c-0.4,0-0.7,0.3-0.7,0.7s0.3,0.7,0.7,0.7s0.7-0.3,0.7-0.7c0,0,0,0,0,0c0.1-0.3-0.2-0.7-0.5-0.7C104,293.1,104,293.1,103.9,293.1
					L103.9,293.1z M102.1,289.4c-0.4,0-0.7,0.3-0.7,0.7c0,0.4,0.3,0.7,0.7,0.7c0.4,0,0.7-0.3,0.7-0.7c0,0,0,0,0,0
					C102.8,289.7,102.5,289.4,102.1,289.4C102.1,289.4,102.1,289.4,102.1,289.4L102.1,289.4z M107.6,285.7c-0.4,0-0.7,0.3-0.7,0.7
					s0.3,0.7,0.7,0.7c0.4,0,0.7-0.3,0.7-0.7l0,0C108.3,286,108,285.7,107.6,285.7C107.6,285.7,107.6,285.7,107.6,285.7L107.6,285.7z
					 M103.9,285.7c-0.4,0-0.7,0.3-0.7,0.7s0.3,0.7,0.7,0.7s0.7-0.3,0.7-0.7c0,0,0,0,0,0C104.6,286,104.3,285.7,103.9,285.7
					C104,285.7,103.9,285.7,103.9,285.7L103.9,285.7z M105.8,282c-0.4,0-0.7,0.3-0.7,0.7c0,0.4,0.3,0.7,0.7,0.7
					c0.4,0,0.7-0.3,0.7-0.7c0,0,0,0,0,0C106.5,282.3,106.2,282,105.8,282z M102.1,282c-0.4,0-0.7,0.3-0.7,0.7c0,0.4,0.3,0.7,0.7,0.7
					c0.4,0,0.7-0.3,0.7-0.7c0,0,0,0,0,0C102.7,282.3,102.4,282,102.1,282z M103.9,278.3c-0.4,0-0.7,0.3-0.7,0.7s0.3,0.7,0.7,0.7
					s0.7-0.3,0.7-0.7c0,0,0,0,0,0c0.1-0.3-0.2-0.7-0.5-0.7C104,278.3,104,278.3,103.9,278.3L103.9,278.3z M107.6,278.3
					c-0.4,0-0.7,0.3-0.7,0.7s0.3,0.7,0.7,0.7c0.4,0,0.7-0.3,0.7-0.7l0,0C108.3,278.6,108.1,278.3,107.6,278.3
					C107.7,278.3,107.6,278.3,107.6,278.3L107.6,278.3z M105.8,274.6c-0.4,0-0.7,0.3-0.7,0.7c0,0.4,0.3,0.7,0.7,0.7
					c0.4,0,0.7-0.3,0.7-0.7c0,0,0,0,0,0C106.5,274.9,106.2,274.6,105.8,274.6C105.8,274.6,105.8,274.6,105.8,274.6L105.8,274.6z
					 M102.1,274.6c-0.4,0-0.7,0.3-0.7,0.7c0,0.4,0.3,0.7,0.7,0.7c0.4,0,0.7-0.3,0.7-0.7c0,0,0,0,0,0
					C102.8,274.9,102.5,274.6,102.1,274.6C102.1,274.6,102.1,274.6,102.1,274.6L102.1,274.6z M105.8,267.2c-0.4,0-0.7,0.3-0.7,0.7
					c0,0.4,0.3,0.7,0.7,0.7c0.4,0,0.7-0.3,0.7-0.7c0,0,0,0,0,0C106.5,267.5,106.2,267.2,105.8,267.2
					C105.8,267.2,105.8,267.2,105.8,267.2L105.8,267.2z M103.9,270.9c-0.4,0-0.7,0.3-0.7,0.7s0.3,0.7,0.7,0.7s0.7-0.3,0.7-0.7
					c0,0,0,0,0,0C104.6,271.2,104.3,270.9,103.9,270.9C104,270.9,103.9,270.9,103.9,270.9L103.9,270.9z M107.6,270.9
					c-0.4,0-0.7,0.3-0.7,0.7s0.3,0.7,0.7,0.7c0.4,0,0.7-0.3,0.7-0.7l0,0C108.3,271.2,108,270.9,107.6,270.9
					C107.6,270.9,107.6,270.9,107.6,270.9L107.6,270.9z M102.1,267.2c-0.4,0-0.7,0.3-0.7,0.7c0,0.4,0.3,0.7,0.7,0.7
					c0.4,0,0.7-0.3,0.7-0.7c0,0,0,0,0,0C102.8,267.5,102.5,267.2,102.1,267.2C102.1,267.1,102.1,267.1,102.1,267.2L102.1,267.2z
					 M105.8,259.8c-0.4,0-0.7,0.3-0.7,0.7c0,0.4,0.3,0.7,0.7,0.7c0.4,0,0.7-0.3,0.7-0.7c0,0,0,0,0,0
					C106.5,260.1,106.2,259.8,105.8,259.8C105.8,259.8,105.8,259.8,105.8,259.8L105.8,259.8z M107.6,263.5c-0.4,0-0.7,0.3-0.7,0.7
					s0.3,0.7,0.7,0.7c0.4,0,0.7-0.3,0.7-0.7l0,0C108.3,263.8,108.1,263.5,107.6,263.5C107.7,263.5,107.6,263.5,107.6,263.5
					L107.6,263.5z M103.9,263.5c-0.4,0-0.7,0.3-0.7,0.7s0.3,0.7,0.7,0.7s0.7-0.3,0.7-0.7c0,0,0,0,0,0c0.1-0.3-0.2-0.7-0.5-0.7
					C104,263.5,104,263.5,103.9,263.5L103.9,263.5z M102.1,259.8c-0.4,0-0.7,0.3-0.7,0.7c0,0.4,0.3,0.7,0.7,0.7
					c0.4,0,0.7-0.3,0.7-0.7c0,0,0,0,0,0C102.8,260.1,102.5,259.8,102.1,259.8C102.1,259.8,102.1,259.8,102.1,259.8L102.1,259.8z
					 M102.1,252.4c-0.4,0-0.7,0.3-0.7,0.7s0.3,0.7,0.7,0.7c0.4,0,0.7-0.3,0.7-0.7c0,0,0,0,0,0C102.8,252.7,102.5,252.4,102.1,252.4
					C102.1,252.3,102.1,252.3,102.1,252.4L102.1,252.4z M105.8,252.4c-0.4,0-0.7,0.3-0.7,0.7s0.3,0.7,0.7,0.7c0.4,0,0.7-0.3,0.7-0.7
					c0,0,0,0,0,0C106.5,252.7,106.2,252.4,105.8,252.4C105.8,252.3,105.8,252.3,105.8,252.4L105.8,252.4z M107.6,256.1
					c-0.4,0-0.7,0.3-0.7,0.7s0.3,0.7,0.7,0.7c0.4,0,0.7-0.3,0.7-0.7l0,0C108.3,256.4,108,256.1,107.6,256.1
					C107.6,256.1,107.6,256.1,107.6,256.1L107.6,256.1z M103.9,256.1c-0.4,0-0.7,0.3-0.7,0.7s0.3,0.7,0.7,0.7s0.7-0.3,0.7-0.7
					c0,0,0,0,0,0C104.6,256.4,104.3,256.1,103.9,256.1C104,256.1,103.9,256,103.9,256.1L103.9,256.1z M102.1,245
					c-0.4,0-0.7,0.3-0.7,0.7s0.3,0.7,0.7,0.7c0.4,0,0.7-0.3,0.7-0.7c0,0,0,0,0,0C102.8,245.3,102.5,245,102.1,245
					C102.1,245,102.1,245,102.1,245z M105.8,245c-0.4,0-0.7,0.3-0.7,0.7s0.3,0.7,0.7,0.7c0.4,0,0.7-0.3,0.7-0.7c0,0,0,0,0,0
					C106.5,245.3,106.2,245,105.8,245C105.8,245,105.8,245,105.8,245z M103.9,248.7c-0.4,0-0.7,0.3-0.7,0.7c0,0.4,0.3,0.7,0.7,0.7
					s0.7-0.3,0.7-0.7c0,0,0,0,0,0c0.1-0.3-0.2-0.7-0.5-0.7C104,248.7,104,248.7,103.9,248.7L103.9,248.7z M107.6,248.7
					c-0.4,0-0.7,0.3-0.7,0.7c0,0.4,0.3,0.7,0.7,0.7c0.4,0,0.7-0.3,0.7-0.7l0,0C108.3,249,108.1,248.7,107.6,248.7
					C107.7,248.7,107.6,248.7,107.6,248.7L107.6,248.7z M103.9,241.3c-0.4,0-0.7,0.3-0.7,0.7c0,0.4,0.3,0.7,0.7,0.7s0.7-0.3,0.7-0.7
					c0,0,0,0,0,0C104.6,241.6,104.3,241.3,103.9,241.3C104,241.2,103.9,241.2,103.9,241.3L103.9,241.3z M107.6,241.3
					c-0.4,0-0.7,0.3-0.7,0.7c0,0.4,0.3,0.7,0.7,0.7c0.4,0,0.7-0.3,0.7-0.7l0,0C108.3,241.6,108,241.3,107.6,241.3
					C107.6,241.2,107.6,241.2,107.6,241.3L107.6,241.3z M105.8,237.6c-0.4,0-0.7,0.3-0.7,0.7s0.3,0.7,0.7,0.7c0.4,0,0.7-0.3,0.7-0.7
					c0,0,0,0,0,0C106.5,237.9,106.2,237.5,105.8,237.6C105.8,237.5,105.8,237.5,105.8,237.6L105.8,237.6z M102.1,237.6
					c-0.4,0-0.7,0.3-0.7,0.7s0.3,0.7,0.7,0.7c0.4,0,0.7-0.3,0.7-0.7c0,0,0,0,0,0C102.8,237.9,102.5,237.5,102.1,237.6
					C102.1,237.5,102.1,237.5,102.1,237.6L102.1,237.6z M105.8,230.2c-0.4,0-0.7,0.3-0.7,0.7s0.3,0.7,0.7,0.7c0.4,0,0.7-0.3,0.7-0.7
					c0,0,0,0,0,0C106.5,230.5,106.2,230.2,105.8,230.2C105.8,230.1,105.8,230.1,105.8,230.2L105.8,230.2z M103.9,233.9
					c-0.4,0-0.7,0.3-0.7,0.7c0,0.4,0.3,0.7,0.7,0.7s0.7-0.3,0.7-0.7c0,0,0,0,0,0c0.1-0.3-0.2-0.7-0.5-0.7
					C104,233.9,104,233.9,103.9,233.9L103.9,233.9z M107.6,233.9c-0.4,0-0.7,0.3-0.7,0.7c0,0.4,0.3,0.7,0.7,0.7
					c0.4,0,0.7-0.3,0.7-0.7l0,0C108.3,234.2,108.1,233.9,107.6,233.9C107.7,233.9,107.6,233.9,107.6,233.9L107.6,233.9z
					 M109.5,311.6c-0.4,0-0.7,0.3-0.7,0.7c0,0.4,0.3,0.7,0.7,0.7c0.4,0,0.7-0.3,0.7-0.7c0,0,0,0,0,0
					C110.2,311.9,109.9,311.6,109.5,311.6C109.5,311.6,109.5,311.6,109.5,311.6L109.5,311.6z M113.2,311.6c-0.4,0-0.7,0.3-0.7,0.7
					c0,0.4,0.3,0.7,0.7,0.7c0.4,0,0.7-0.3,0.7-0.7c0,0,0,0,0,0C113.9,311.9,113.6,311.6,113.2,311.6
					C113.2,311.6,113.2,311.6,113.2,311.6L113.2,311.6z M115,307.9c-0.4,0-0.7,0.3-0.7,0.7s0.3,0.7,0.7,0.7c0.4,0,0.7-0.3,0.7-0.7
					l0,0c0-0.4-0.2-0.7-0.6-0.7C115.1,307.9,115,307.9,115,307.9L115,307.9z M109.5,304.2c-0.4,0-0.7,0.3-0.7,0.7
					c0,0.4,0.3,0.7,0.7,0.7c0.4,0,0.7-0.3,0.7-0.7c0,0,0,0,0,0c0-0.3-0.2-0.7-0.5-0.7C109.5,304.2,109.5,304.2,109.5,304.2
					L109.5,304.2z M113.2,304.2c-0.4,0-0.7,0.3-0.7,0.7c0,0.4,0.3,0.7,0.7,0.7c0.4,0,0.7-0.3,0.7-0.7c0,0,0,0,0,0
					c0.1-0.3-0.2-0.7-0.5-0.7C113.3,304.2,113.2,304.2,113.2,304.2L113.2,304.2z M111.3,307.9c-0.4,0-0.7,0.3-0.7,0.7
					s0.3,0.7,0.7,0.7s0.7-0.3,0.7-0.7c0,0,0,0,0,0C112,308.3,111.8,307.9,111.3,307.9C111.4,307.9,111.4,307.9,111.3,307.9
					L111.3,307.9z M113.2,296.8c-0.4,0-0.7,0.3-0.7,0.7c0,0.4,0.3,0.7,0.7,0.7c0.4,0,0.7-0.3,0.7-0.7c0,0,0,0,0,0
					C113.9,297.1,113.6,296.8,113.2,296.8C113.2,296.8,113.2,296.8,113.2,296.8L113.2,296.8z M115,300.5c-0.4,0-0.7,0.3-0.7,0.7
					s0.3,0.7,0.7,0.7c0.4,0,0.7-0.3,0.7-0.7l0,0C115.7,300.8,115.4,300.5,115,300.5C115.1,300.5,115,300.5,115,300.5L115,300.5z
					 M109.5,296.8c-0.4,0-0.7,0.3-0.7,0.7c0,0.4,0.3,0.7,0.7,0.7c0.4,0,0.7-0.3,0.7-0.7c0,0,0,0,0,0
					C110.2,297.1,109.9,296.8,109.5,296.8C109.5,296.8,109.5,296.8,109.5,296.8L109.5,296.8z M111.3,300.5c-0.4,0-0.7,0.3-0.7,0.7
					s0.3,0.7,0.7,0.7s0.7-0.3,0.7-0.7c0,0,0,0,0,0C112,300.8,111.7,300.5,111.3,300.5C111.3,300.5,111.3,300.5,111.3,300.5
					L111.3,300.5z M109.5,289.4c-0.4,0-0.7,0.3-0.7,0.7c0,0.4,0.3,0.7,0.7,0.7c0.4,0,0.7-0.3,0.7-0.7c0,0,0,0,0,0
					c0-0.3-0.2-0.7-0.5-0.7C109.5,289.4,109.5,289.4,109.5,289.4L109.5,289.4z M115,293.1c-0.4,0-0.7,0.3-0.7,0.7s0.3,0.7,0.7,0.7
					c0.4,0,0.7-0.3,0.7-0.7l0,0C115.7,293.4,115.4,293.1,115,293.1C115.1,293.1,115,293.1,115,293.1z M113.2,289.4
					c-0.4,0-0.7,0.3-0.7,0.7c0,0.4,0.3,0.7,0.7,0.7c0.4,0,0.7-0.3,0.7-0.7c0,0,0,0,0,0c0-0.3-0.2-0.6-0.6-0.7
					C113.2,289.4,113.2,289.4,113.2,289.4z M111.3,293.1c-0.4,0-0.7,0.3-0.7,0.7s0.3,0.7,0.7,0.7s0.7-0.3,0.7-0.7c0,0,0,0,0,0
					C112,293.4,111.7,293.1,111.3,293.1C111.4,293.1,111.4,293.1,111.3,293.1z M111.3,285.7c-0.4,0-0.7,0.3-0.7,0.7s0.3,0.7,0.7,0.7
					s0.7-0.3,0.7-0.7c0,0,0,0,0,0C112,286,111.7,285.7,111.3,285.7z M109.5,282c-0.4,0-0.7,0.3-0.7,0.7c0,0.4,0.3,0.7,0.7,0.7
					c0.4,0,0.7-0.3,0.7-0.7c0,0,0,0,0,0C110.1,282.3,109.8,282,109.5,282C109.5,282,109.5,282,109.5,282z M113.2,282
					c-0.4,0-0.7,0.3-0.7,0.7c0,0.4,0.3,0.7,0.7,0.7c0.4,0,0.7-0.3,0.7-0.7c0,0,0,0,0,0C113.9,282.3,113.6,282,113.2,282
					C113.2,282,113.2,282,113.2,282z M115,285.7c-0.4,0-0.7,0.3-0.7,0.7s0.3,0.7,0.7,0.7c0.4,0,0.7-0.3,0.7-0.7l0,0
					C115.7,286,115.4,285.7,115,285.7C115.1,285.7,115,285.7,115,285.7L115,285.7z M111.3,278.3c-0.4,0-0.7,0.3-0.7,0.7
					s0.3,0.7,0.7,0.7s0.7-0.3,0.7-0.7c0,0,0,0,0,0C112,278.6,111.8,278.3,111.3,278.3C111.4,278.3,111.4,278.3,111.3,278.3
					L111.3,278.3z M113.2,274.6c-0.4,0-0.7,0.3-0.7,0.7c0,0.4,0.3,0.7,0.7,0.7c0.4,0,0.7-0.3,0.7-0.7c0,0,0,0,0,0
					c0.1-0.3-0.2-0.7-0.5-0.7C113.3,274.6,113.2,274.6,113.2,274.6L113.2,274.6z M109.5,274.6c-0.4,0-0.7,0.3-0.7,0.7
					c0,0.4,0.3,0.7,0.7,0.7c0.4,0,0.7-0.3,0.7-0.7c0,0,0,0,0,0c0-0.3-0.2-0.7-0.5-0.7C109.5,274.6,109.5,274.6,109.5,274.6
					L109.5,274.6z M115,278.3c-0.4,0-0.7,0.3-0.7,0.7s0.3,0.7,0.7,0.7c0.4,0,0.7-0.3,0.7-0.7l0,0c0-0.4-0.2-0.7-0.6-0.7
					C115.1,278.3,115,278.3,115,278.3L115,278.3z M109.5,267.2c-0.4,0-0.7,0.3-0.7,0.7c0,0.4,0.3,0.7,0.7,0.7c0.4,0,0.7-0.3,0.7-0.7
					c0,0,0,0,0,0C110.2,267.5,109.9,267.2,109.5,267.2C109.5,267.2,109.5,267.1,109.5,267.2L109.5,267.2z M113.2,267.2
					c-0.4,0-0.7,0.3-0.7,0.7c0,0.4,0.3,0.7,0.7,0.7c0.4,0,0.7-0.3,0.7-0.7c0,0,0,0,0,0C113.9,267.5,113.6,267.2,113.2,267.2
					C113.2,267.1,113.2,267.1,113.2,267.2L113.2,267.2z M111.3,270.9c-0.4,0-0.7,0.3-0.7,0.7s0.3,0.7,0.7,0.7s0.7-0.3,0.7-0.7
					c0,0,0,0,0,0C112,271.2,111.7,270.9,111.3,270.9C111.3,270.9,111.3,270.9,111.3,270.9L111.3,270.9z M115,270.9
					c-0.4,0-0.7,0.3-0.7,0.7s0.3,0.7,0.7,0.7c0.4,0,0.7-0.3,0.7-0.7l0,0C115.7,271.2,115.4,270.9,115,270.9
					C115.1,270.9,115,270.9,115,270.9L115,270.9z M115,263.5c-0.4,0-0.7,0.3-0.7,0.7s0.3,0.7,0.7,0.7c0.4,0,0.7-0.3,0.7-0.7l0,0
					c0-0.4-0.2-0.7-0.6-0.7C115.1,263.5,115,263.5,115,263.5L115,263.5z M111.3,263.5c-0.4,0-0.7,0.3-0.7,0.7s0.3,0.7,0.7,0.7
					s0.7-0.3,0.7-0.7c0,0,0,0,0,0C112,263.8,111.8,263.5,111.3,263.5C111.4,263.5,111.4,263.5,111.3,263.5L111.3,263.5z
					 M113.2,259.8c-0.4,0-0.7,0.3-0.7,0.7c0,0.4,0.3,0.7,0.7,0.7c0.4,0,0.7-0.3,0.7-0.7c0,0,0,0,0,0c0.1-0.3-0.2-0.7-0.5-0.7
					C113.3,259.8,113.2,259.8,113.2,259.8L113.2,259.8z M109.5,259.8c-0.4,0-0.7,0.3-0.7,0.7c0,0.4,0.3,0.7,0.7,0.7
					c0.4,0,0.7-0.3,0.7-0.7c0,0,0,0,0,0c0-0.3-0.2-0.7-0.5-0.7C109.5,259.8,109.5,259.8,109.5,259.8L109.5,259.8z M115,256.1
					c-0.4,0-0.7,0.3-0.7,0.7s0.3,0.7,0.7,0.7c0.4,0,0.7-0.3,0.7-0.7l0,0C115.7,256.4,115.4,256.1,115,256.1
					C115.1,256,115,256,115,256.1L115,256.1z M109.5,252.4c-0.4,0-0.7,0.3-0.7,0.7s0.3,0.7,0.7,0.7c0.4,0,0.7-0.3,0.7-0.7
					c0,0,0,0,0,0C110.2,252.7,109.9,252.4,109.5,252.4C109.5,252.3,109.5,252.3,109.5,252.4L109.5,252.4z M111.3,256.1
					c-0.4,0-0.7,0.3-0.7,0.7s0.3,0.7,0.7,0.7s0.7-0.3,0.7-0.7c0,0,0,0,0,0C112,256.4,111.7,256.1,111.3,256.1
					C111.3,256.1,111.3,256.1,111.3,256.1L111.3,256.1z M113.2,252.4c-0.4,0-0.7,0.3-0.7,0.7s0.3,0.7,0.7,0.7c0.4,0,0.7-0.3,0.7-0.7
					c0,0,0,0,0,0C113.9,252.7,113.6,252.4,113.2,252.4C113.2,252.3,113.2,252.3,113.2,252.4L113.2,252.4z M111.3,248.7
					c-0.4,0-0.7,0.3-0.7,0.7c0,0.4,0.3,0.7,0.7,0.7s0.7-0.3,0.7-0.7c0,0,0,0,0,0C112,249,111.8,248.7,111.3,248.7
					C111.4,248.7,111.4,248.7,111.3,248.7L111.3,248.7z M115,248.7c-0.4,0-0.7,0.3-0.7,0.7c0,0.4,0.3,0.7,0.7,0.7
					c0.4,0,0.7-0.3,0.7-0.7l0,0c0-0.4-0.2-0.7-0.6-0.7C115.1,248.7,115,248.7,115,248.7L115,248.7z M109.5,245
					c-0.4,0-0.7,0.3-0.7,0.7s0.3,0.7,0.7,0.7c0.4,0,0.7-0.3,0.7-0.7c0,0,0,0,0,0C110.2,245.3,109.9,245,109.5,245
					C109.5,245,109.5,245,109.5,245z M113.2,245c-0.4,0-0.7,0.3-0.7,0.7s0.3,0.7,0.7,0.7c0.4,0,0.7-0.3,0.7-0.7c0,0,0,0,0,0
					c0-0.3-0.2-0.6-0.6-0.7C113.2,245,113.2,245,113.2,245z M113.2,237.6c-0.4,0-0.7,0.3-0.7,0.7s0.3,0.7,0.7,0.7
					c0.4,0,0.7-0.3,0.7-0.7c0,0,0,0,0,0C113.9,237.9,113.6,237.6,113.2,237.6C113.2,237.5,113.2,237.5,113.2,237.6L113.2,237.6z
					 M115,241.3c-0.4,0-0.7,0.3-0.7,0.7c0,0.4,0.3,0.7,0.7,0.7c0.4,0,0.7-0.3,0.7-0.7l0,0C115.7,241.6,115.4,241.3,115,241.3
					C115.1,241.2,115,241.2,115,241.3L115,241.3z M111.3,241.3c-0.4,0-0.7,0.3-0.7,0.7c0,0.4,0.3,0.7,0.7,0.7s0.7-0.3,0.7-0.7
					c0,0,0,0,0,0C112,241.6,111.7,241.3,111.3,241.3C111.3,241.2,111.3,241.2,111.3,241.3L111.3,241.3z M109.5,237.6
					c-0.4,0-0.7,0.3-0.7,0.7s0.3,0.7,0.7,0.7c0.4,0,0.7-0.3,0.7-0.7c0,0,0,0,0,0C110.2,237.9,109.9,237.6,109.5,237.6
					C109.5,237.5,109.5,237.5,109.5,237.6L109.5,237.6z M115,233.9c-0.4,0-0.7,0.3-0.7,0.7c0,0.4,0.3,0.7,0.7,0.7
					c0.4,0,0.7-0.3,0.7-0.7l0,0c0-0.4-0.2-0.7-0.6-0.7C115.1,233.9,115,233.9,115,233.9L115,233.9z M111.3,233.9
					c-0.4,0-0.7,0.3-0.7,0.7c0,0.4,0.3,0.7,0.7,0.7s0.7-0.3,0.7-0.7c0,0,0,0,0,0C112,234.2,111.8,233.9,111.3,233.9
					C111.4,233.9,111.4,233.9,111.3,233.9L111.3,233.9z M109.5,230.2c-0.4,0-0.7,0.3-0.7,0.7s0.3,0.7,0.7,0.7c0.4,0,0.7-0.3,0.7-0.7
					c0,0,0,0,0,0c0-0.3-0.2-0.7-0.5-0.7C109.5,230.1,109.5,230.1,109.5,230.2L109.5,230.2z M113.2,230.2c-0.4,0-0.7,0.3-0.7,0.7
					s0.3,0.7,0.7,0.7c0.4,0,0.7-0.3,0.7-0.7c0,0,0,0,0,0c0.1-0.3-0.2-0.7-0.5-0.7C113.3,230.1,113.2,230.1,113.2,230.2L113.2,230.2z
					 M115.7,227.1c-0.2,0.1-0.3,0.1-0.5,0.1l-0.8,0.1c0,0.3,0.3,0.6,0.7,0.5c0.4,0,0.7-0.3,0.7-0.6c0,0,0,0,0,0V227.1z M116.9,311.6
					c-0.4,0-0.7,0.3-0.7,0.7c0,0.4,0.3,0.7,0.7,0.7c0.4,0,0.7-0.3,0.7-0.7c0,0,0,0,0,0C117.6,311.9,117.3,311.6,116.9,311.6
					C116.9,311.6,116.9,311.6,116.9,311.6L116.9,311.6z M120.6,311.6c-0.4,0-0.7,0.3-0.7,0.7c0,0.4,0.3,0.7,0.7,0.7
					c0.4,0,0.7-0.3,0.7-0.7c0,0,0,0,0,0C121.3,311.9,121,311.6,120.6,311.6C120.6,311.6,120.6,311.6,120.6,311.6L120.6,311.6z
					 M118.7,307.9c-0.4,0-0.7,0.3-0.7,0.7s0.3,0.7,0.7,0.7s0.7-0.3,0.7-0.7c0,0,0,0,0,0c0.1-0.3-0.2-0.7-0.5-0.7
					C118.8,307.9,118.8,307.9,118.7,307.9L118.7,307.9z M120.6,304.2c-0.4,0-0.7,0.3-0.7,0.7c0,0.4,0.3,0.7,0.7,0.7
					c0.4,0,0.7-0.3,0.7-0.7c0,0,0,0,0,0C121.3,304.5,121,304.2,120.6,304.2C120.6,304.2,120.6,304.2,120.6,304.2L120.6,304.2z
					 M122.4,307.9c-0.4,0-0.7,0.3-0.7,0.7s0.3,0.7,0.7,0.7c0.4,0,0.7-0.3,0.7-0.7l0,0C123.1,308.3,122.9,307.9,122.4,307.9
					C122.5,307.9,122.5,307.9,122.4,307.9L122.4,307.9z M116.9,304.2c-0.4,0-0.7,0.3-0.7,0.7c0,0.4,0.3,0.7,0.7,0.7
					c0.4,0,0.7-0.3,0.7-0.7c0,0,0,0,0,0C117.6,304.5,117.3,304.2,116.9,304.2C116.9,304.2,116.9,304.2,116.9,304.2L116.9,304.2z
					 M120.6,296.8c-0.4,0-0.7,0.3-0.7,0.7c0,0.4,0.3,0.7,0.7,0.7c0.4,0,0.7-0.3,0.7-0.7c0,0,0,0,0,0
					C121.3,297.1,121,296.8,120.6,296.8C120.6,296.8,120.6,296.8,120.6,296.8L120.6,296.8z M122.4,300.5c-0.4,0-0.7,0.3-0.7,0.7
					s0.3,0.7,0.7,0.7c0.4,0,0.7-0.3,0.7-0.7l0,0C123.1,300.8,122.8,300.5,122.4,300.5C122.4,300.5,122.4,300.5,122.4,300.5
					L122.4,300.5z M118.7,300.5c-0.4,0-0.7,0.3-0.7,0.7s0.3,0.7,0.7,0.7s0.7-0.3,0.7-0.7c0,0,0,0,0,0
					C119.4,300.8,119.2,300.5,118.7,300.5C118.8,300.5,118.7,300.5,118.7,300.5L118.7,300.5z M116.9,296.8c-0.4,0-0.7,0.3-0.7,0.7
					c0,0.4,0.3,0.7,0.7,0.7c0.4,0,0.7-0.3,0.7-0.7c0,0,0,0,0,0C117.6,297.1,117.3,296.8,116.9,296.8
					C116.9,296.8,116.9,296.8,116.9,296.8L116.9,296.8z M122.4,293.1c-0.4,0-0.7,0.3-0.7,0.7s0.3,0.7,0.7,0.7c0.4,0,0.7-0.3,0.7-0.7
					l0,0C123.1,293.5,122.9,293.1,122.4,293.1C122.5,293.1,122.5,293.1,122.4,293.1L122.4,293.1z M116.9,289.4
					c-0.4,0-0.7,0.3-0.7,0.7c0,0.4,0.3,0.7,0.7,0.7c0.4,0,0.7-0.3,0.7-0.7c0,0,0,0,0,0C117.6,289.7,117.3,289.4,116.9,289.4
					C116.9,289.4,116.9,289.4,116.9,289.4L116.9,289.4z M118.7,293.1c-0.4,0-0.7,0.3-0.7,0.7s0.3,0.7,0.7,0.7s0.7-0.3,0.7-0.7
					c0,0,0,0,0,0c0.1-0.3-0.2-0.7-0.5-0.7C118.8,293.1,118.8,293.1,118.7,293.1L118.7,293.1z M120.6,289.4c-0.4,0-0.7,0.3-0.7,0.7
					c0,0.4,0.3,0.7,0.7,0.7c0.4,0,0.7-0.3,0.7-0.7c0,0,0,0,0,0C121.3,289.7,121,289.4,120.6,289.4
					C120.6,289.4,120.6,289.4,120.6,289.4L120.6,289.4z M120.6,282c-0.4,0-0.7,0.3-0.7,0.7c0,0.4,0.3,0.7,0.7,0.7
					c0.4,0,0.7-0.3,0.7-0.7c0,0,0,0,0,0C121.3,282.3,121,282,120.6,282z M118.7,285.7c-0.4,0-0.7,0.3-0.7,0.7s0.3,0.7,0.7,0.7
					s0.7-0.3,0.7-0.7c0,0,0,0,0,0C119.4,286,119.2,285.7,118.7,285.7C118.8,285.7,118.7,285.7,118.7,285.7L118.7,285.7z M116.9,282
					c-0.4,0-0.7,0.3-0.7,0.7c0,0.4,0.3,0.7,0.7,0.7c0.4,0,0.7-0.3,0.7-0.7c0,0,0,0,0,0C117.5,282.3,117.2,282,116.9,282z
					 M122.4,285.7c-0.4,0-0.7,0.3-0.7,0.7s0.3,0.7,0.7,0.7c0.4,0,0.7-0.3,0.7-0.7l0,0C123.1,286,122.8,285.7,122.4,285.7
					C122.4,285.7,122.4,285.7,122.4,285.7L122.4,285.7z M122.4,278.3c-0.4,0-0.7,0.3-0.7,0.7s0.3,0.7,0.7,0.7c0.4,0,0.7-0.3,0.7-0.7
					l0,0C123.1,278.6,122.9,278.3,122.4,278.3C122.5,278.3,122.5,278.3,122.4,278.3L122.4,278.3z M116.9,274.6
					c-0.4,0-0.7,0.3-0.7,0.7c0,0.4,0.3,0.7,0.7,0.7c0.4,0,0.7-0.3,0.7-0.7c0,0,0,0,0,0C117.6,274.9,117.3,274.6,116.9,274.6
					C116.9,274.6,116.9,274.6,116.9,274.6L116.9,274.6z M118.7,278.3c-0.4,0-0.7,0.3-0.7,0.7s0.3,0.7,0.7,0.7s0.7-0.3,0.7-0.7
					c0,0,0,0,0,0c0.1-0.3-0.2-0.7-0.5-0.7C118.8,278.3,118.8,278.3,118.7,278.3L118.7,278.3z M120.6,274.6c-0.4,0-0.7,0.3-0.7,0.7
					c0,0.4,0.3,0.7,0.7,0.7c0.4,0,0.7-0.3,0.7-0.7c0,0,0,0,0,0C121.3,274.9,121,274.6,120.6,274.6
					C120.6,274.6,120.6,274.6,120.6,274.6L120.6,274.6z M118.7,270.9c-0.4,0-0.7,0.3-0.7,0.7s0.3,0.7,0.7,0.7s0.7-0.3,0.7-0.7
					c0,0,0,0,0,0C119.4,271.2,119.2,270.9,118.7,270.9C118.8,270.9,118.7,270.9,118.7,270.9L118.7,270.9z M120.6,267.2
					c-0.4,0-0.7,0.3-0.7,0.7c0,0.4,0.3,0.7,0.7,0.7c0.4,0,0.7-0.3,0.7-0.7c0,0,0,0,0,0C121.3,267.5,121,267.2,120.6,267.2
					C120.6,267.1,120.6,267.1,120.6,267.2L120.6,267.2z M116.9,267.2c-0.4,0-0.7,0.3-0.7,0.7c0,0.4,0.3,0.7,0.7,0.7
					c0.4,0,0.7-0.3,0.7-0.7c0,0,0,0,0,0C117.6,267.5,117.3,267.2,116.9,267.2C116.9,267.2,116.9,267.2,116.9,267.2L116.9,267.2z
					 M122.4,270.9c-0.4,0-0.7,0.3-0.7,0.7s0.3,0.7,0.7,0.7c0.4,0,0.7-0.3,0.7-0.7l0,0C123.1,271.2,122.8,270.9,122.4,270.9
					C122.4,270.9,122.4,270.9,122.4,270.9L122.4,270.9z M122.4,263.5c-0.4,0-0.7,0.3-0.7,0.7s0.3,0.7,0.7,0.7c0.4,0,0.7-0.3,0.7-0.7
					l0,0C123.1,263.8,122.9,263.5,122.4,263.5C122.5,263.5,122.5,263.5,122.4,263.5L122.4,263.5z M120.6,259.8
					c-0.4,0-0.7,0.3-0.7,0.7c0,0.4,0.3,0.7,0.7,0.7c0.4,0,0.7-0.3,0.7-0.7c0,0,0,0,0,0C121.3,260.1,121,259.8,120.6,259.8
					C120.6,259.8,120.6,259.8,120.6,259.8L120.6,259.8z M118.7,263.5c-0.4,0-0.7,0.3-0.7,0.7s0.3,0.7,0.7,0.7s0.7-0.3,0.7-0.7
					c0,0,0,0,0,0c0.1-0.3-0.2-0.7-0.5-0.7C118.8,263.5,118.8,263.5,118.7,263.5L118.7,263.5z M116.9,259.8c-0.4,0-0.7,0.3-0.7,0.7
					c0,0.4,0.3,0.7,0.7,0.7c0.4,0,0.7-0.3,0.7-0.7c0,0,0,0,0,0C117.6,260.1,117.3,259.8,116.9,259.8
					C116.9,259.8,116.9,259.8,116.9,259.8L116.9,259.8z M122.4,256.1c-0.4,0-0.7,0.3-0.7,0.7s0.3,0.7,0.7,0.7c0.4,0,0.7-0.3,0.7-0.7
					l0,0C123.1,256.4,122.8,256.1,122.4,256.1C122.4,256.1,122.4,256.1,122.4,256.1L122.4,256.1z M120.6,252.4
					c-0.4,0-0.7,0.3-0.7,0.7s0.3,0.7,0.7,0.7c0.4,0,0.7-0.3,0.7-0.7c0,0,0,0,0,0C121.3,252.7,121,252.4,120.6,252.4
					C120.6,252.3,120.6,252.3,120.6,252.4L120.6,252.4z M118.7,256.1c-0.4,0-0.7,0.3-0.7,0.7s0.3,0.7,0.7,0.7s0.7-0.3,0.7-0.7
					c0,0,0,0,0,0C119.4,256.4,119.2,256.1,118.7,256.1C118.8,256.1,118.7,256,118.7,256.1L118.7,256.1z M116.9,252.4
					c-0.4,0-0.7,0.3-0.7,0.7c0,0.4,0.3,0.7,0.7,0.7c0.4,0,0.7-0.3,0.7-0.7c0,0,0,0,0,0C117.6,252.7,117.3,252.4,116.9,252.4
					C116.9,252.3,116.9,252.3,116.9,252.4L116.9,252.4z M122.4,248.7c-0.4,0-0.7,0.3-0.7,0.7c0,0.4,0.3,0.7,0.7,0.7
					c0.4,0,0.7-0.3,0.7-0.7l0,0C123.1,249,122.9,248.7,122.4,248.7C122.5,248.7,122.5,248.7,122.4,248.7L122.4,248.7z M116.9,245
					c-0.4,0-0.7,0.3-0.7,0.7c0,0.4,0.3,0.7,0.7,0.7c0.4,0,0.7-0.3,0.7-0.7c0,0,0,0,0,0C117.6,245.3,117.3,245,116.9,245
					C116.9,245,116.9,245,116.9,245z M118.7,248.7c-0.4,0-0.7,0.3-0.7,0.7c0,0.4,0.3,0.7,0.7,0.7s0.7-0.3,0.7-0.7c0,0,0,0,0,0
					c0.1-0.3-0.2-0.7-0.5-0.7C118.8,248.7,118.8,248.7,118.7,248.7L118.7,248.7z M120.6,245c-0.4,0-0.7,0.3-0.7,0.7s0.3,0.7,0.7,0.7
					c0.4,0,0.7-0.3,0.7-0.7c0,0,0,0,0,0C121.3,245.3,121,245,120.6,245C120.6,245,120.6,245,120.6,245z M116.9,237.6
					c-0.4,0-0.7,0.3-0.7,0.7c0,0.4,0.3,0.7,0.7,0.7c0.4,0,0.7-0.3,0.7-0.7c0,0,0,0,0,0C117.6,237.9,117.3,237.5,116.9,237.6
					C116.9,237.5,116.9,237.5,116.9,237.6L116.9,237.6z M118.7,241.3c-0.4,0-0.7,0.3-0.7,0.7c0,0.4,0.3,0.7,0.7,0.7s0.7-0.3,0.7-0.7
					c0,0,0,0,0,0C119.4,241.6,119.2,241.3,118.7,241.3C118.8,241.2,118.7,241.2,118.7,241.3L118.7,241.3z M122.4,241.3
					c-0.4,0-0.7,0.3-0.7,0.7c0,0.4,0.3,0.7,0.7,0.7c0.4,0,0.7-0.3,0.7-0.7l0,0C123.1,241.6,122.8,241.3,122.4,241.3
					C122.4,241.2,122.4,241.2,122.4,241.3L122.4,241.3z M120.6,237.6c-0.4,0-0.7,0.3-0.7,0.7s0.3,0.7,0.7,0.7c0.4,0,0.7-0.3,0.7-0.7
					c0,0,0,0,0,0C121.3,237.9,121,237.5,120.6,237.6C120.6,237.5,120.6,237.5,120.6,237.6L120.6,237.6z M122.4,233.9
					c-0.4,0-0.7,0.3-0.7,0.7c0,0.4,0.3,0.7,0.7,0.7c0.4,0,0.7-0.3,0.7-0.7l0,0C123.1,234.2,122.9,233.9,122.4,233.9
					C122.5,233.9,122.5,233.9,122.4,233.9L122.4,233.9z M118.7,233.9c-0.4,0-0.7,0.3-0.7,0.7c0,0.4,0.3,0.7,0.7,0.7s0.7-0.3,0.7-0.7
					c0,0,0,0,0,0c0.1-0.3-0.2-0.7-0.5-0.7C118.8,233.9,118.8,233.9,118.7,233.9L118.7,233.9z M120.6,230.2c-0.4,0-0.7,0.3-0.7,0.7
					s0.3,0.7,0.7,0.7c0.4,0,0.7-0.3,0.7-0.7c0,0,0,0,0,0C121.3,230.5,121,230.2,120.6,230.2C120.6,230.2,120.6,230.1,120.6,230.2
					L120.6,230.2z M116.9,230.2c-0.4,0-0.7,0.3-0.7,0.7c0,0.4,0.3,0.7,0.7,0.7c0.4,0,0.7-0.3,0.7-0.7c0,0,0,0,0,0
					C117.6,230.5,117.3,230.2,116.9,230.2C116.9,230.1,116.9,230.1,116.9,230.2L116.9,230.2z M119.3,226.8c-0.4,0-0.8,0-1.2,0.1
					c-0.1,0.1-0.1,0.2-0.1,0.3c0,0.4,0.4,0.6,0.8,0.6c0.3,0,0.6-0.3,0.6-0.6C119.5,227,119.4,226.8,119.3,226.8L119.3,226.8z
					 M123,226.8c-0.4,0-0.7,0-1.1-0.1c-0.1,0.1-0.1,0.3-0.1,0.4c0,0.4,0.3,0.7,0.6,0.7c0,0,0,0,0,0c0.4,0,0.7-0.3,0.7-0.6
					c0,0,0,0,0,0C123.1,227,123.1,226.9,123,226.8L123,226.8z M124.3,311.6c-0.4,0-0.7,0.3-0.7,0.7c0,0.4,0.3,0.7,0.7,0.7
					c0.4,0,0.7-0.3,0.7-0.7c0,0,0,0,0,0C125,311.9,124.7,311.6,124.3,311.6C124.3,311.6,124.3,311.6,124.3,311.6L124.3,311.6z
					 M128,311.6c-0.4,0-0.7,0.3-0.7,0.7s0.3,0.7,0.7,0.7c0.4,0,0.7-0.3,0.7-0.7c0,0,0,0,0,0C128.7,311.9,128.4,311.6,128,311.6
					C128,311.6,128,311.6,128,311.6L128,311.6z M124.3,304.2c-0.4,0-0.7,0.3-0.7,0.7c0,0.4,0.3,0.7,0.7,0.7c0.4,0,0.7-0.3,0.7-0.7
					c0,0,0,0,0,0c0-0.3-0.2-0.7-0.5-0.7C124.4,304.2,124.3,304.2,124.3,304.2L124.3,304.2z M126.1,307.9c-0.4,0-0.7,0.3-0.7,0.7
					s0.3,0.7,0.7,0.7c0.4,0,0.7-0.3,0.7-0.7l0,0C126.9,308.3,126.6,307.9,126.1,307.9C126.2,307.9,126.2,307.9,126.1,307.9
					L126.1,307.9z M128,304.2c-0.4,0-0.7,0.3-0.7,0.7c0,0.4,0.3,0.7,0.7,0.7c0.4,0,0.7-0.3,0.7-0.7c0,0,0,0,0,0
					C128.7,304.5,128.4,304.2,128,304.2C128.1,304.2,128,304.2,128,304.2z M129.8,307.9c-0.4,0-0.7,0.3-0.7,0.7s0.3,0.7,0.7,0.7
					c0.4,0,0.7-0.3,0.7-0.7l0,0C130.5,308.2,130.3,307.9,129.8,307.9C129.9,307.9,129.8,307.9,129.8,307.9L129.8,307.9z M128,296.8
					c-0.4,0-0.7,0.3-0.7,0.7c0,0.4,0.3,0.7,0.7,0.7c0.4,0,0.7-0.3,0.7-0.7c0,0,0,0,0,0C128.7,297.1,128.4,296.8,128,296.8
					C128,296.8,128,296.8,128,296.8z M129.8,300.5c-0.4,0-0.7,0.3-0.7,0.7s0.3,0.7,0.7,0.7c0.4,0,0.7-0.3,0.7-0.7l0,0
					C130.5,300.8,130.2,300.5,129.8,300.5C129.8,300.5,129.8,300.5,129.8,300.5L129.8,300.5z M124.3,296.8c-0.4,0-0.7,0.3-0.7,0.7
					c0,0.4,0.3,0.7,0.7,0.7c0.4,0,0.7-0.3,0.7-0.7c0,0,0,0,0,0C125,297.1,124.7,296.8,124.3,296.8
					C124.3,296.8,124.3,296.8,124.3,296.8L124.3,296.8z M126.2,300.5c-0.4,0-0.7,0.3-0.7,0.7s0.3,0.7,0.7,0.7c0.4,0,0.7-0.3,0.7-0.7
					l0,0C126.8,300.8,126.5,300.5,126.2,300.5C126.1,300.5,126.1,300.5,126.2,300.5L126.2,300.5z M124.3,289.4
					c-0.4,0-0.7,0.3-0.7,0.7c0,0.4,0.3,0.7,0.7,0.7c0.4,0,0.7-0.3,0.7-0.7c0,0,0,0,0,0C125,289.7,124.7,289.4,124.3,289.4
					C124.3,289.4,124.3,289.4,124.3,289.4L124.3,289.4z M128,289.4c-0.4,0-0.7,0.3-0.7,0.7c0,0.4,0.3,0.7,0.7,0.7
					c0.4,0,0.7-0.3,0.7-0.7c0,0,0,0,0,0C128.7,289.7,128.4,289.4,128,289.4C128.1,289.4,128,289.4,128,289.4L128,289.4z
					 M129.8,293.1c-0.4,0-0.7,0.3-0.7,0.7s0.3,0.7,0.7,0.7c0.4,0,0.7-0.3,0.7-0.7l0,0C130.5,293.4,130.3,293.1,129.8,293.1
					C129.9,293.1,129.8,293.1,129.8,293.1L129.8,293.1z M126.2,293.1c-0.4,0-0.7,0.3-0.7,0.7s0.3,0.7,0.7,0.7c0.4,0,0.7-0.3,0.7-0.7
					l0,0C126.9,293.4,126.6,293.1,126.2,293.1C126.2,293.1,126.2,293.1,126.2,293.1L126.2,293.1z M124.3,282c-0.4,0-0.7,0.3-0.7,0.7
					c0,0.4,0.3,0.7,0.7,0.7c0.4,0,0.7-0.3,0.7-0.7c0,0,0,0,0,0C124.9,282.3,124.7,282,124.3,282C124.3,282,124.3,282,124.3,282z
					 M126.1,285.7c-0.4,0-0.7,0.3-0.7,0.7s0.3,0.7,0.7,0.7c0.4,0,0.7-0.3,0.7-0.7l0,0C126.8,286,126.5,285.7,126.1,285.7
					C126.2,285.7,126.1,285.7,126.1,285.7L126.1,285.7z M128,282c-0.4,0-0.7,0.3-0.7,0.7c0,0.4,0.3,0.7,0.7,0.7
					c0.4,0,0.7-0.3,0.7-0.7c0,0,0,0,0,0C128.7,282.3,128.4,282,128,282C128,282,128,282,128,282z M129.8,285.7
					c-0.4,0-0.7,0.3-0.7,0.7s0.3,0.7,0.7,0.7c0.4,0,0.7-0.3,0.7-0.7l0,0C130.5,286,130.3,285.7,129.8,285.7
					C129.9,285.7,129.8,285.7,129.8,285.7L129.8,285.7z M129.8,278.3c-0.4,0-0.7,0.3-0.7,0.7s0.3,0.7,0.7,0.7c0.4,0,0.7-0.3,0.7-0.7
					l0,0c0-0.4-0.2-0.7-0.6-0.7C129.9,278.3,129.9,278.3,129.8,278.3L129.8,278.3z M126.2,278.3c-0.4,0-0.7,0.3-0.7,0.7
					s0.3,0.7,0.7,0.7c0.4,0,0.7-0.3,0.7-0.7l0,0C126.9,278.6,126.6,278.3,126.2,278.3C126.2,278.3,126.2,278.3,126.2,278.3
					L126.2,278.3z M124.3,274.6c-0.4,0-0.7,0.3-0.7,0.7c0,0.4,0.3,0.7,0.7,0.7c0.4,0,0.7-0.3,0.7-0.7c0,0,0,0,0,0
					c0-0.3-0.2-0.7-0.5-0.7C124.4,274.6,124.3,274.6,124.3,274.6L124.3,274.6z M128,274.6c-0.4,0-0.7,0.3-0.7,0.7
					c0,0.4,0.3,0.7,0.7,0.7c0.4,0,0.7-0.3,0.7-0.7c0,0,0,0,0,0c0-0.3-0.2-0.7-0.5-0.7C128.1,274.6,128,274.6,128,274.6L128,274.6z
					 M128,267.2c-0.4,0-0.7,0.3-0.7,0.7c0,0.4,0.3,0.7,0.7,0.7c0.4,0,0.7-0.3,0.7-0.7c0,0,0,0,0,0
					C128.7,267.5,128.4,267.2,128,267.2C128,267.2,128,267.1,128,267.2L128,267.2z M126.2,270.9c-0.4,0-0.7,0.3-0.7,0.7
					s0.3,0.7,0.7,0.7c0.4,0,0.7-0.3,0.7-0.7l0,0C126.9,271.2,126.6,270.9,126.2,270.9C126.2,270.9,126.2,270.9,126.2,270.9
					L126.2,270.9z M129.8,270.9c-0.4,0-0.7,0.3-0.7,0.7s0.3,0.7,0.7,0.7c0.4,0,0.7-0.3,0.7-0.7l0,0
					C130.5,271.2,130.3,270.9,129.8,270.9C129.9,270.9,129.8,270.9,129.8,270.9L129.8,270.9z M124.3,267.2c-0.4,0-0.7,0.3-0.7,0.7
					c0,0.4,0.3,0.7,0.7,0.7c0.4,0,0.7-0.3,0.7-0.7c0,0,0,0,0,0C125,267.5,124.7,267.2,124.3,267.2
					C124.3,267.1,124.3,267.1,124.3,267.2L124.3,267.2z M126.2,263.5c-0.4,0-0.7,0.3-0.7,0.7s0.3,0.7,0.7,0.7c0.4,0,0.7-0.3,0.7-0.7
					l0,0C126.9,263.8,126.6,263.5,126.2,263.5C126.2,263.5,126.2,263.5,126.2,263.5L126.2,263.5z M129.8,263.5
					c-0.4,0-0.7,0.3-0.7,0.7s0.3,0.7,0.7,0.7c0.4,0,0.7-0.3,0.7-0.7l0,0c0-0.4-0.2-0.7-0.6-0.7C129.9,263.5,129.9,263.5,129.8,263.5
					L129.8,263.5z M128,259.8c-0.4,0-0.7,0.3-0.7,0.7c0,0.4,0.3,0.7,0.7,0.7c0.4,0,0.7-0.3,0.7-0.7c0,0,0,0,0,0
					C128.7,260.1,128.4,259.8,128,259.8C128.1,259.8,128,259.8,128,259.8z M124.3,259.8c-0.4,0-0.7,0.3-0.7,0.7
					c0,0.4,0.3,0.7,0.7,0.7c0.4,0,0.7-0.3,0.7-0.7c0,0,0,0,0,0C125,260.1,124.7,259.8,124.3,259.8
					C124.3,259.8,124.3,259.8,124.3,259.8L124.3,259.8z M128,252.3c-0.4,0-0.7,0.3-0.7,0.7s0.3,0.7,0.7,0.7c0.4,0,0.7-0.3,0.7-0.7
					c0,0,0,0,0,0C128.7,252.6,128.4,252.3,128,252.3C128,252.3,128,252.3,128,252.3z M129.8,256c-0.4,0-0.7,0.3-0.7,0.7
					s0.3,0.7,0.7,0.7c0.4,0,0.7-0.3,0.7-0.7l0,0C130.5,256.4,130.2,256.1,129.8,256C129.8,256,129.8,256,129.8,256L129.8,256z
					 M126.2,256c-0.4,0-0.7,0.3-0.7,0.7s0.3,0.7,0.7,0.7c0.4,0,0.7-0.3,0.7-0.7l0,0C126.8,256.3,126.5,256,126.2,256
					C126.1,256,126.1,256,126.2,256L126.2,256z M124.3,252.3c-0.4,0-0.7,0.3-0.7,0.7c0,0.4,0.3,0.7,0.7,0.7c0.4,0,0.7-0.3,0.7-0.7
					c0,0,0,0,0,0C125,252.6,124.7,252.3,124.3,252.3C124.3,252.3,124.3,252.3,124.3,252.3L124.3,252.3z M124.3,245
					c-0.4,0-0.7,0.3-0.7,0.7c0,0.4,0.3,0.7,0.7,0.7c0.4,0,0.7-0.3,0.7-0.7c0,0,0,0,0,0C125,245.3,124.7,245,124.3,245
					C124.3,245,124.3,245,124.3,245L124.3,245z M128,245c-0.4,0-0.7,0.3-0.7,0.7s0.3,0.7,0.7,0.7c0.4,0,0.7-0.3,0.7-0.7c0,0,0,0,0,0
					C128.7,245.3,128.4,245,128,245C128,245,128,245,128,245L128,245z M129.8,248.7c-0.4,0-0.7,0.3-0.7,0.7s0.3,0.7,0.7,0.7
					s0.7-0.3,0.7-0.7v0C130.5,249,130.3,248.7,129.8,248.7C129.9,248.7,129.8,248.7,129.8,248.7L129.8,248.7z M126.2,248.7
					c-0.4,0-0.7,0.3-0.7,0.7c0,0.4,0.3,0.7,0.7,0.7c0.4,0,0.7-0.3,0.7-0.7l0,0C126.9,249,126.6,248.7,126.2,248.7
					C126.2,248.7,126.2,248.7,126.2,248.7L126.2,248.7z M124.3,237.5c-0.4,0-0.7,0.3-0.7,0.7c0,0.4,0.3,0.7,0.7,0.7
					c0.4,0,0.7-0.3,0.7-0.7c0,0,0,0,0,0C125,237.8,124.7,237.5,124.3,237.5C124.3,237.5,124.3,237.5,124.3,237.5L124.3,237.5z
					 M126.2,241.2c-0.4,0-0.7,0.3-0.7,0.7c0,0.4,0.3,0.7,0.7,0.7c0.4,0,0.7-0.3,0.7-0.7l0,0C126.8,241.5,126.5,241.2,126.2,241.2
					C126.1,241.2,126.1,241.2,126.2,241.2L126.2,241.2z M129.8,241.2c-0.4,0-0.7,0.3-0.7,0.7s0.3,0.7,0.7,0.7s0.7-0.3,0.7-0.7v0
					C130.5,241.5,130.2,241.2,129.8,241.2C129.8,241.2,129.8,241.2,129.8,241.2L129.8,241.2z M128,237.5c-0.4,0-0.7,0.3-0.7,0.7
					s0.3,0.7,0.7,0.7c0.4,0,0.7-0.3,0.7-0.7c0,0,0,0,0,0C128.7,237.8,128.4,237.5,128,237.5C128,237.5,128,237.5,128,237.5z
					 M126.2,233.9c-0.4,0-0.7,0.3-0.7,0.7c0,0.4,0.3,0.7,0.7,0.7c0.4,0,0.7-0.3,0.7-0.7l0,0C126.9,234.2,126.6,233.9,126.2,233.9
					C126.2,233.9,126.2,233.9,126.2,233.9L126.2,233.9z M124.3,230.1c-0.4,0-0.7,0.3-0.7,0.7c0,0.4,0.3,0.7,0.7,0.7
					c0.4,0,0.7-0.3,0.7-0.7c0,0,0,0,0,0C125,230.5,124.7,230.2,124.3,230.1C124.3,230.1,124.3,230.1,124.3,230.1L124.3,230.1z
					 M129.8,233.9c-0.4,0-0.7,0.3-0.7,0.7s0.3,0.7,0.7,0.7s0.7-0.3,0.7-0.7v0C130.5,234.2,130.3,233.9,129.8,233.9
					C129.9,233.9,129.8,233.9,129.8,233.9L129.8,233.9z M130.1,227.8c-0.3,0-0.5-0.1-0.8-0.2c0.1,0.1,0.3,0.2,0.5,0.2
					C129.9,227.8,130,227.8,130.1,227.8L130.1,227.8z M128,230.1c-0.4,0-0.7,0.3-0.7,0.7s0.3,0.7,0.7,0.7c0.4,0,0.7-0.3,0.7-0.7
					c0,0,0,0,0,0C128.7,230.5,128.4,230.2,128,230.1C128.1,230.1,128,230.1,128,230.1z M126.8,227.1c-0.4-0.1-0.9-0.1-1.3-0.2
					c0,0,0,0.1,0,0.2c0,0.4,0.3,0.7,0.6,0.7c0,0,0,0,0,0c0.3,0.1,0.7-0.2,0.7-0.5C126.9,227.3,126.9,227.2,126.8,227.1L126.8,227.1z
					 M135.4,311.6c-0.4,0-0.7,0.3-0.7,0.7c0,0.4,0.3,0.7,0.7,0.7c0.4,0,0.7-0.3,0.7-0.7c0,0,0,0,0,0
					C136.1,311.9,135.8,311.6,135.4,311.6C135.4,311.6,135.4,311.6,135.4,311.6L135.4,311.6z M131.7,311.6c-0.4,0-0.7,0.3-0.7,0.7
					c0,0.4,0.3,0.7,0.7,0.7c0.4,0,0.7-0.3,0.7-0.7c0,0,0,0,0,0C132.4,311.9,132.1,311.6,131.7,311.6
					C131.7,311.6,131.7,311.6,131.7,311.6L131.7,311.6z M131.7,304.2c-0.4,0-0.7,0.3-0.7,0.7c0,0.4,0.3,0.7,0.7,0.7
					c0.4,0,0.7-0.3,0.7-0.7c0,0,0,0,0,0C132.4,304.5,132.1,304.2,131.7,304.2C131.8,304.2,131.7,304.2,131.7,304.2L131.7,304.2z
					 M133.5,307.9c-0.4,0-0.7,0.3-0.7,0.7s0.3,0.7,0.7,0.7c0.4,0,0.7-0.3,0.7-0.7l0,0c0-0.4-0.2-0.7-0.6-0.7
					C133.6,307.9,133.6,307.9,133.5,307.9L133.5,307.9z M135.4,304.2c-0.4,0-0.7,0.3-0.7,0.7c0,0.4,0.3,0.7,0.7,0.7
					c0.4,0,0.7-0.3,0.7-0.7c0,0,0,0,0,0C136.1,304.5,135.9,304.2,135.4,304.2C135.5,304.2,135.4,304.2,135.4,304.2L135.4,304.2z
					 M137.3,307.9c-0.4,0-0.7,0.3-0.7,0.7s0.3,0.7,0.7,0.7s0.7-0.3,0.7-0.7c0,0,0,0,0,0C138,308.3,137.7,307.9,137.3,307.9
					C137.3,307.9,137.3,307.9,137.3,307.9L137.3,307.9z M137.3,300.5c-0.4,0-0.7,0.3-0.7,0.7s0.3,0.7,0.7,0.7s0.7-0.3,0.7-0.7
					c0,0,0,0,0,0C137.9,300.8,137.7,300.5,137.3,300.5C137.3,300.5,137.3,300.5,137.3,300.5L137.3,300.5z M133.5,300.5
					c-0.4,0-0.7,0.3-0.7,0.7s0.3,0.7,0.7,0.7c0.4,0,0.7-0.3,0.7-0.7l0,0C134.3,300.8,134,300.5,133.5,300.5
					C133.6,300.5,133.6,300.5,133.5,300.5L133.5,300.5z M135.4,296.8c-0.4,0-0.7,0.3-0.7,0.7c0,0.4,0.3,0.7,0.7,0.7
					c0.4,0,0.7-0.3,0.7-0.7c0,0,0,0,0,0C136.1,297.1,135.8,296.8,135.4,296.8C135.4,296.8,135.4,296.8,135.4,296.8L135.4,296.8z
					 M131.7,296.8c-0.4,0-0.7,0.3-0.7,0.7c0,0.4,0.3,0.7,0.7,0.7c0.4,0,0.7-0.3,0.7-0.7c0,0,0,0,0,0
					C132.4,297.1,132.1,296.8,131.7,296.8C131.7,296.8,131.7,296.8,131.7,296.8L131.7,296.8z M133.5,293.1c-0.4,0-0.7,0.3-0.7,0.7
					s0.3,0.7,0.7,0.7c0.4,0,0.7-0.3,0.7-0.7l0,0c0-0.4-0.2-0.7-0.6-0.7C133.6,293.1,133.6,293.1,133.5,293.1L133.5,293.1z
					 M137.3,293.1c-0.4,0-0.7,0.3-0.7,0.7s0.3,0.7,0.7,0.7s0.7-0.3,0.7-0.7c0,0,0,0,0,0C138,293.5,137.7,293.1,137.3,293.1
					C137.3,293.1,137.3,293.1,137.3,293.1L137.3,293.1z M131.7,289.4c-0.4,0-0.7,0.3-0.7,0.7c0,0.4,0.3,0.7,0.7,0.7
					c0.4,0,0.7-0.3,0.7-0.7c0,0,0,0,0,0C132.4,289.7,132.1,289.4,131.7,289.4C131.8,289.4,131.7,289.4,131.7,289.4L131.7,289.4z
					 M135.4,289.4c-0.4,0-0.7,0.3-0.7,0.7c0,0.4,0.3,0.7,0.7,0.7c0.4,0,0.7-0.3,0.7-0.7c0,0,0,0,0,0
					C136.1,289.7,135.9,289.4,135.4,289.4C135.5,289.4,135.4,289.4,135.4,289.4L135.4,289.4z M133.5,285.7c-0.4,0-0.7,0.3-0.7,0.7
					s0.3,0.7,0.7,0.7c0.4,0,0.7-0.3,0.7-0.7l0,0C134.3,286,134,285.7,133.5,285.7C133.6,285.7,133.6,285.7,133.5,285.7L133.5,285.7z
					 M131.7,282c-0.4,0-0.7,0.3-0.7,0.7c0,0.4,0.3,0.7,0.7,0.7c0.4,0,0.7-0.3,0.7-0.7c0,0,0,0,0,0C132.4,282.3,132.1,282,131.7,282z
					 M135.4,282c-0.4,0-0.7,0.3-0.7,0.7c0,0.4,0.3,0.7,0.7,0.7c0.4,0,0.7-0.3,0.7-0.7c0,0,0,0,0,0C136.1,282.3,135.8,282,135.4,282z
					 M137.2,285.7c-0.4,0-0.7,0.3-0.7,0.7s0.3,0.7,0.7,0.7s0.7-0.3,0.7-0.7c0,0,0,0,0,0C137.9,286,137.6,285.7,137.2,285.7
					C137.2,285.7,137.2,285.7,137.2,285.7L137.2,285.7z M131.7,274.6c-0.4,0-0.7,0.3-0.7,0.7c0,0.4,0.3,0.7,0.7,0.7
					c0.4,0,0.7-0.3,0.7-0.7c0,0,0,0,0,0C132.4,274.9,132.1,274.6,131.7,274.6C131.7,274.6,131.7,274.6,131.7,274.6L131.7,274.6z
					 M133.5,278.3c-0.4,0-0.7,0.3-0.7,0.7s0.3,0.7,0.7,0.7c0.4,0,0.7-0.3,0.7-0.7l0,0c0-0.4-0.2-0.7-0.6-0.7
					C133.6,278.3,133.6,278.3,133.5,278.3L133.5,278.3z M137.2,278.3c-0.4,0-0.7,0.3-0.7,0.7s0.3,0.7,0.7,0.7s0.7-0.3,0.7-0.7
					c0,0,0,0,0,0C137.9,278.6,137.7,278.3,137.2,278.3C137.3,278.3,137.3,278.3,137.2,278.3L137.2,278.3z M135.4,274.6
					c-0.4,0-0.7,0.3-0.7,0.7c0,0.4,0.3,0.7,0.7,0.7c0.4,0,0.7-0.3,0.7-0.7c0,0,0,0,0,0C136.1,274.9,135.8,274.6,135.4,274.6
					C135.5,274.6,135.4,274.6,135.4,274.6L135.4,274.6z M137.2,270.9c-0.4,0-0.7,0.3-0.7,0.7s0.3,0.7,0.7,0.7s0.7-0.3,0.7-0.7
					c0,0,0,0,0,0C137.9,271.2,137.6,270.9,137.2,270.9C137.2,270.9,137.2,270.9,137.2,270.9L137.2,270.9z M133.5,270.9
					c-0.4,0-0.7,0.3-0.7,0.7s0.3,0.7,0.7,0.7c0.4,0,0.7-0.3,0.7-0.7l0,0C134.2,271.2,134,270.9,133.5,270.9
					C133.6,270.9,133.5,270.9,133.5,270.9L133.5,270.9z M135.4,267.2c-0.4,0-0.7,0.3-0.7,0.7c0,0.4,0.3,0.7,0.7,0.7
					c0.4,0,0.7-0.3,0.7-0.7c0,0,0,0,0,0C136.1,267.5,135.8,267.2,135.4,267.2C135.4,267.1,135.4,267.1,135.4,267.2L135.4,267.2z
					 M131.7,267.2c-0.4,0-0.7,0.3-0.7,0.7c0,0.4,0.3,0.7,0.7,0.7c0.4,0,0.7-0.3,0.7-0.7c0,0,0,0,0,0
					C132.4,267.5,132.1,267.2,131.7,267.2C131.7,267.2,131.7,267.2,131.7,267.2L131.7,267.2z M135.4,259.8c-0.4,0-0.7,0.3-0.7,0.7
					c0,0.4,0.3,0.7,0.7,0.7c0.4,0,0.7-0.3,0.7-0.7c0,0,0,0,0,0C136.1,260.1,135.8,259.8,135.4,259.8
					C135.5,259.8,135.4,259.8,135.4,259.8L135.4,259.8z M131.7,259.8c-0.4,0-0.7,0.3-0.7,0.7c0,0.4,0.3,0.7,0.7,0.7
					c0.4,0,0.7-0.3,0.7-0.7c0,0,0,0,0,0C132.4,260.1,132.1,259.8,131.7,259.8C131.7,259.8,131.7,259.8,131.7,259.8L131.7,259.8z
					 M133.5,263.5c-0.4,0-0.7,0.3-0.7,0.7s0.3,0.7,0.7,0.7c0.4,0,0.7-0.3,0.7-0.7l0,0c0-0.4-0.2-0.7-0.6-0.7
					C133.6,263.5,133.6,263.5,133.5,263.5L133.5,263.5z M137.2,263.5c-0.4,0-0.7,0.3-0.7,0.7s0.3,0.7,0.7,0.7s0.7-0.3,0.7-0.7
					c0,0,0,0,0,0C137.9,263.8,137.7,263.5,137.2,263.5C137.3,263.5,137.3,263.5,137.2,263.5L137.2,263.5z M131.7,252.4
					c-0.4,0-0.7,0.3-0.7,0.7c0,0.4,0.3,0.7,0.7,0.7c0.4,0,0.7-0.3,0.7-0.7c0,0,0,0,0,0C132.4,252.7,132.1,252.4,131.7,252.4
					C131.7,252.3,131.7,252.3,131.7,252.4L131.7,252.4z M137.2,256.1c-0.4,0-0.7,0.3-0.7,0.7s0.3,0.7,0.7,0.7s0.7-0.3,0.7-0.7
					c0,0,0,0,0,0C137.9,256.4,137.6,256.1,137.2,256.1C137.2,256.1,137.2,256.1,137.2,256.1L137.2,256.1z M133.5,256.1
					c-0.4,0-0.7,0.3-0.7,0.7s0.3,0.7,0.7,0.7c0.4,0,0.7-0.3,0.7-0.7l0,0C134.2,256.4,134,256.1,133.5,256.1
					C133.6,256,133.5,256,133.5,256.1L133.5,256.1z M135.4,252.4c-0.4,0-0.7,0.3-0.7,0.7c0,0.4,0.3,0.7,0.7,0.7
					c0.4,0,0.7-0.3,0.7-0.7c0,0,0,0,0,0C136.1,252.7,135.8,252.4,135.4,252.4C135.4,252.3,135.4,252.3,135.4,252.4L135.4,252.4z
					 M135.4,245c-0.4,0-0.7,0.3-0.7,0.7c0,0.4,0.3,0.7,0.7,0.7c0.4,0,0.7-0.3,0.7-0.7c0,0,0,0,0,0C136.1,245.3,135.8,245,135.4,245
					C135.4,245,135.4,245,135.4,245L135.4,245z M133.5,248.7c-0.4,0-0.7,0.3-0.7,0.7s0.3,0.7,0.7,0.7s0.7-0.3,0.7-0.7v0
					c0-0.4-0.2-0.7-0.6-0.7C133.6,248.7,133.6,248.7,133.5,248.7L133.5,248.7z M131.7,245c-0.4,0-0.7,0.3-0.7,0.7
					c0,0.4,0.3,0.7,0.7,0.7c0.4,0,0.7-0.3,0.7-0.7c0,0,0,0,0,0C132.4,245.3,132.1,245,131.7,245C131.7,245,131.7,245,131.7,245z
					 M137.2,248.7c-0.4,0-0.7,0.3-0.7,0.7c0,0.4,0.3,0.7,0.7,0.7s0.7-0.3,0.7-0.7c0,0,0,0,0,0C137.9,249,137.7,248.7,137.2,248.7
					C137.3,248.7,137.3,248.7,137.2,248.7L137.2,248.7z M137.2,241.3c-0.4,0-0.7,0.3-0.7,0.7c0,0.4,0.3,0.7,0.7,0.7s0.7-0.3,0.7-0.7
					c0,0,0,0,0,0C137.9,241.6,137.6,241.3,137.2,241.3C137.2,241.2,137.2,241.2,137.2,241.3L137.2,241.3z M133.5,241.3
					c-0.4,0-0.7,0.3-0.7,0.7s0.3,0.7,0.7,0.7s0.7-0.3,0.7-0.7v0C134.2,241.6,134,241.3,133.5,241.3
					C133.6,241.2,133.5,241.2,133.5,241.3L133.5,241.3z M135.4,237.6c-0.4,0-0.7,0.3-0.7,0.7c0,0.4,0.3,0.7,0.7,0.7
					c0.4,0,0.7-0.3,0.7-0.7c0,0,0,0,0,0C136.1,237.9,135.8,237.5,135.4,237.6C135.4,237.5,135.4,237.5,135.4,237.6L135.4,237.6z
					 M131.7,237.6c-0.4,0-0.7,0.3-0.7,0.7c0,0.4,0.3,0.7,0.7,0.7c0.4,0,0.7-0.3,0.7-0.7c0,0,0,0,0,0
					C132.4,237.9,132.1,237.5,131.7,237.6C131.7,237.5,131.7,237.5,131.7,237.6L131.7,237.6z M139.1,231.6c0.1,0,0.2,0,0.3-0.1
					l-0.3-0.2c-0.2-0.1-0.5-0.2-0.7-0.3C138.4,231.3,138.7,231.5,139.1,231.6L139.1,231.6z M135.4,230.2c-0.4,0-0.7,0.3-0.7,0.7
					c0,0.4,0.3,0.7,0.7,0.7c0.4,0,0.7-0.3,0.7-0.7c0,0,0,0,0,0C136.1,230.5,135.8,230.2,135.4,230.2
					C135.4,230.1,135.4,230.1,135.4,230.2L135.4,230.2z M131.7,230.2c-0.4,0-0.7,0.3-0.7,0.7c0,0.4,0.3,0.7,0.7,0.7
					c0.4,0,0.7-0.3,0.7-0.7c0,0,0,0,0,0C132.4,230.5,132.1,230.2,131.7,230.2C131.7,230.1,131.7,230.1,131.7,230.2L131.7,230.2z
					 M133.5,233.9c-0.4,0-0.7,0.3-0.7,0.7s0.3,0.7,0.7,0.7s0.7-0.3,0.7-0.7v0c0-0.4-0.2-0.7-0.6-0.7
					C133.6,233.9,133.6,233.9,133.5,233.9L133.5,233.9z M137.2,233.9c-0.4,0-0.7,0.3-0.7,0.7c0,0.4,0.3,0.7,0.7,0.7s0.7-0.3,0.7-0.7
					c0,0,0,0,0,0C137.9,234.2,137.7,233.9,137.2,233.9C137.3,233.9,137.3,233.9,137.2,233.9L137.2,233.9z M139.1,311.6
					c-0.4,0-0.7,0.3-0.7,0.7c0,0.4,0.3,0.7,0.7,0.7c0.4,0,0.7-0.3,0.7-0.7c0,0,0,0,0,0C139.8,311.9,139.5,311.6,139.1,311.6
					C139.1,311.6,139.1,311.6,139.1,311.6L139.1,311.6z M142.8,311.6c-0.4,0-0.7,0.3-0.7,0.7c0,0.4,0.3,0.7,0.7,0.7
					c0.4,0,0.7-0.3,0.7-0.7c0,0,0,0,0,0C143.5,311.9,143.2,311.6,142.8,311.6C142.8,311.6,142.8,311.6,142.8,311.6L142.8,311.6z
					 M139.1,304.2c-0.4,0-0.7,0.3-0.7,0.7c0,0.4,0.3,0.7,0.7,0.7c0.4,0,0.7-0.3,0.7-0.7c0,0,0,0,0,0c0-0.3-0.2-0.7-0.6-0.7
					C139.1,304.2,139.1,304.2,139.1,304.2L139.1,304.2z M141,307.9c-0.4,0-0.7,0.3-0.7,0.7s0.3,0.7,0.7,0.7c0.4,0,0.7-0.3,0.7-0.7
					l0,0C141.7,308.2,141.4,307.9,141,307.9C141,307.9,141,307.9,141,307.9L141,307.9z M142.8,304.2c-0.4,0-0.7,0.3-0.7,0.7
					c0,0.4,0.3,0.7,0.7,0.7c0.4,0,0.7-0.3,0.7-0.7c0,0,0,0,0,0c0-0.3-0.2-0.7-0.6-0.7C142.9,304.2,142.8,304.2,142.8,304.2
					L142.8,304.2z M144.6,307.9c-0.4,0-0.7,0.2-0.8,0.6c0,0.4,0.2,0.7,0.6,0.8c0.1,0,0.1,0,0.2,0c0.4,0,0.7-0.3,0.7-0.6c0,0,0,0,0,0
					c0-0.3-0.2-0.7-0.6-0.7C144.7,307.9,144.7,307.9,144.6,307.9L144.6,307.9z M139.1,296.8c-0.4,0-0.7,0.3-0.7,0.7
					c0,0.4,0.3,0.7,0.7,0.7c0.4,0,0.7-0.3,0.7-0.7c0,0,0,0,0,0C139.8,297.1,139.5,296.8,139.1,296.8
					C139.1,296.8,139.1,296.8,139.1,296.8L139.1,296.8z M141,300.5c-0.4,0-0.7,0.3-0.7,0.7s0.3,0.7,0.7,0.7c0.4,0,0.7-0.3,0.7-0.7
					l0,0C141.6,300.8,141.4,300.5,141,300.5L141,300.5z M142.8,296.8c-0.4,0-0.7,0.3-0.7,0.7c0,0.4,0.3,0.7,0.7,0.7
					c0.4,0,0.7-0.3,0.7-0.7c0,0,0,0,0,0C143.5,297.1,143.2,296.8,142.8,296.8C142.8,296.8,142.8,296.8,142.8,296.8L142.8,296.8z
					 M144.6,300.5c-0.4,0-0.7,0.2-0.8,0.6c0,0.4,0.2,0.7,0.6,0.8c0.1,0,0.1,0,0.2,0c0.4,0,0.6-0.4,0.6-0.8
					C145.2,300.8,144.9,300.5,144.6,300.5z M141,293.1c-0.4,0-0.7,0.3-0.7,0.7s0.3,0.7,0.7,0.7c0.4,0,0.7-0.3,0.7-0.7l0,0
					C141.7,293.4,141.4,293.1,141,293.1C141,293.1,141,293.1,141,293.1z M142.8,289.4c-0.4,0-0.7,0.3-0.7,0.7c0,0.4,0.3,0.7,0.7,0.7
					c0.4,0,0.7-0.3,0.7-0.7c0,0,0,0,0,0C143.5,289.7,143.3,289.4,142.8,289.4C142.9,289.4,142.8,289.4,142.8,289.4L142.8,289.4z
					 M139.1,289.4c-0.4,0-0.7,0.3-0.7,0.7c0,0.4,0.3,0.7,0.7,0.7c0.4,0,0.7-0.3,0.7-0.7c0,0,0,0,0,0c0-0.3-0.2-0.6-0.6-0.7
					C139.2,289.4,139.1,289.4,139.1,289.4L139.1,289.4z M144.7,293.1c-0.4,0-0.7,0.2-0.8,0.6c0,0.4,0.2,0.7,0.6,0.8
					c0.1,0,0.1,0,0.2,0c0.4,0,0.7-0.3,0.7-0.6c0,0,0,0,0,0C145.4,293.4,145.1,293.1,144.7,293.1
					C144.7,293.1,144.7,293.1,144.7,293.1L144.7,293.1z M139.1,282c-0.4,0-0.7,0.3-0.7,0.7c0,0.4,0.3,0.7,0.7,0.7
					c0.4,0,0.7-0.3,0.7-0.7c0,0,0,0,0,0C139.8,282.3,139.5,282,139.1,282C139.1,282,139.1,282,139.1,282z M144.6,285.7
					c-0.4,0-0.7,0.2-0.8,0.6c0,0.4,0.2,0.7,0.6,0.8c0.1,0,0.1,0,0.2,0c0.4,0,0.6-0.4,0.6-0.8C145.2,286,144.9,285.7,144.6,285.7z
					 M141,285.7c-0.4,0-0.7,0.3-0.7,0.7s0.3,0.7,0.7,0.7c0.4,0,0.7-0.3,0.7-0.7l0,0C141.6,286,141.4,285.7,141,285.7L141,285.7z
					 M142.8,282c-0.4,0-0.7,0.3-0.7,0.7c0,0.4,0.3,0.7,0.7,0.7c0.4,0,0.7-0.3,0.7-0.7c0,0,0,0,0,0C143.5,282.3,143.2,282,142.8,282
					C142.8,282,142.8,282,142.8,282L142.8,282z M139.1,274.6c-0.4,0-0.7,0.3-0.7,0.7c0,0.4,0.3,0.7,0.7,0.7c0.4,0,0.7-0.3,0.7-0.7
					c0,0,0,0,0,0c0-0.3-0.2-0.7-0.5-0.7C139.2,274.6,139.1,274.6,139.1,274.6L139.1,274.6z M142.8,274.6c-0.4,0-0.7,0.3-0.7,0.7
					c0,0.4,0.3,0.7,0.7,0.7c0.4,0,0.7-0.3,0.7-0.7c0,0,0,0,0,0c0-0.3-0.2-0.7-0.5-0.7C142.9,274.6,142.8,274.6,142.8,274.6
					L142.8,274.6z M144.6,278.3c-0.4,0-0.7,0.2-0.8,0.6c0,0.4,0.2,0.7,0.6,0.8c0.1,0,0.1,0,0.2,0c0.4,0,0.7-0.3,0.7-0.6c0,0,0,0,0,0
					c0.1-0.3-0.2-0.7-0.5-0.7C144.7,278.3,144.7,278.3,144.6,278.3L144.6,278.3z M141,278.3c-0.4,0-0.7,0.3-0.7,0.7s0.3,0.7,0.7,0.7
					c0.4,0,0.7-0.3,0.7-0.7l0,0C141.7,278.6,141.4,278.3,141,278.3C141,278.3,141,278.3,141,278.3L141,278.3z M142.8,267.2
					c-0.4,0-0.7,0.3-0.7,0.7c0,0.4,0.3,0.7,0.7,0.7c0.4,0,0.7-0.3,0.7-0.7c0,0,0,0,0,0C143.5,267.5,143.2,267.2,142.8,267.2
					C142.8,267.2,142.8,267.1,142.8,267.2L142.8,267.2z M139.1,267.2c-0.4,0-0.7,0.3-0.7,0.7c0,0.4,0.3,0.7,0.7,0.7
					c0.4,0,0.7-0.3,0.7-0.7c0,0,0,0,0,0C139.8,267.5,139.5,267.2,139.1,267.2C139.1,267.1,139.1,267.1,139.1,267.2L139.1,267.2z
					 M144.6,270.9c-0.4,0-0.7,0.2-0.8,0.6c0,0.4,0.2,0.7,0.6,0.8c0.1,0,0.1,0,0.2,0c0.4,0,0.6-0.4,0.6-0.8
					C145.2,271.2,144.9,270.9,144.6,270.9z M141,270.9c-0.4,0-0.7,0.3-0.7,0.7s0.3,0.7,0.7,0.7c0.4,0,0.7-0.3,0.7-0.7l0,0
					C141.6,271.2,141.4,270.9,141,270.9L141,270.9z M141,263.5c-0.4,0-0.7,0.3-0.7,0.7s0.3,0.7,0.7,0.7c0.4,0,0.7-0.3,0.7-0.7l0,0
					C141.7,263.8,141.4,263.5,141,263.5C141,263.5,141,263.5,141,263.5L141,263.5z M139.1,259.8c-0.4,0-0.7,0.3-0.7,0.7
					c0,0.4,0.3,0.7,0.7,0.7c0.4,0,0.7-0.3,0.7-0.7c0,0,0,0,0,0c0-0.3-0.2-0.7-0.5-0.7C139.2,259.8,139.1,259.8,139.1,259.8
					L139.1,259.8z M142.8,259.8c-0.4,0-0.7,0.3-0.7,0.7c0,0.4,0.3,0.7,0.7,0.7c0.4,0,0.7-0.3,0.7-0.7c0,0,0,0,0,0
					c0-0.3-0.2-0.7-0.5-0.7C142.9,259.8,142.8,259.8,142.8,259.8L142.8,259.8z M144.6,263.5c-0.4,0-0.7,0.2-0.8,0.6
					c0,0.4,0.2,0.7,0.6,0.8c0.1,0,0.1,0,0.2,0c0.4,0,0.7-0.3,0.7-0.6c0,0,0,0,0,0c0.1-0.3-0.2-0.7-0.5-0.7
					C144.7,263.5,144.7,263.5,144.6,263.5L144.6,263.5z M142.8,252.4c-0.4,0-0.7,0.3-0.7,0.7c0,0.4,0.3,0.7,0.7,0.7
					c0.4,0,0.7-0.3,0.7-0.7c0,0,0,0,0,0C143.5,252.7,143.2,252.4,142.8,252.4C142.8,252.3,142.8,252.3,142.8,252.4L142.8,252.4z
					 M144.6,256.1c-0.4,0-0.7,0.2-0.8,0.6c0,0.4,0.2,0.7,0.6,0.8c0.1,0,0.1,0,0.2,0c0.4,0,0.6-0.4,0.6-0.8
					C145.2,256.4,144.9,256.1,144.6,256.1z M141,256.1c-0.4,0-0.7,0.3-0.7,0.7s0.3,0.7,0.7,0.7c0.4,0,0.7-0.3,0.7-0.7l0,0
					C141.6,256.4,141.4,256.1,141,256.1L141,256.1z M139.1,252.4c-0.4,0-0.7,0.3-0.7,0.7c0,0.4,0.3,0.7,0.7,0.7
					c0.4,0,0.7-0.3,0.7-0.7c0,0,0,0,0,0C139.8,252.7,139.5,252.4,139.1,252.4C139.1,252.3,139.1,252.3,139.1,252.4L139.1,252.4z
					 M139.1,245c-0.4,0-0.7,0.3-0.7,0.7c0,0.4,0.3,0.7,0.7,0.7c0.4,0,0.7-0.3,0.7-0.7c0,0,0,0,0,0C139.8,245.3,139.5,245,139.1,245
					C139.1,245,139.1,245,139.1,245L139.1,245z M142.8,245c-0.4,0-0.7,0.3-0.7,0.7c0,0.4,0.3,0.7,0.7,0.7c0.4,0,0.7-0.3,0.7-0.7
					c0,0,0,0,0,0C143.5,245.3,143.2,245,142.8,245C142.8,245,142.8,245,142.8,245L142.8,245z M144.6,248.7c-0.4,0-0.7,0.2-0.8,0.6
					c0,0.4,0.2,0.7,0.6,0.8c0.1,0,0.1,0,0.2,0c0.4,0,0.7-0.3,0.7-0.6c0,0,0,0,0,0c0.1-0.3-0.2-0.7-0.5-0.7
					C144.7,248.7,144.7,248.7,144.6,248.7L144.6,248.7z M141,248.7c-0.4,0-0.7,0.3-0.7,0.7s0.3,0.7,0.7,0.7s0.7-0.3,0.7-0.7v0
					C141.7,249,141.4,248.7,141,248.7C141,248.7,141,248.7,141,248.7L141,248.7z M141,241.3c-0.4,0-0.7,0.3-0.7,0.7s0.3,0.7,0.7,0.7
					s0.7-0.3,0.7-0.7v0C141.6,241.6,141.4,241.3,141,241.3L141,241.3z M144.6,241.3c-0.4,0-0.7,0.2-0.8,0.6c0,0.4,0.2,0.7,0.6,0.8
					c0.1,0,0.1,0,0.2,0c0.4,0,0.6-0.4,0.6-0.8C145.2,241.6,144.9,241.3,144.6,241.3z M139.1,237.6c-0.4,0-0.7,0.3-0.7,0.7
					c0,0.4,0.3,0.7,0.7,0.7c0.4,0,0.7-0.3,0.7-0.7c0,0,0,0,0,0C139.8,237.9,139.5,237.6,139.1,237.6
					C139.1,237.5,139.1,237.5,139.1,237.6L139.1,237.6z M144.6,235.3c0.1,0,0.2,0,0.3,0c-0.2-0.2-0.5-0.4-0.8-0.6
					c-0.1-0.1-0.1-0.1-0.2-0.1v0.1C144,235,144.3,235.3,144.6,235.3L144.6,235.3z M142.8,237.6c-0.4,0-0.7,0.3-0.7,0.7
					c0,0.4,0.3,0.7,0.7,0.7c0.4,0,0.7-0.3,0.7-0.7c0,0,0,0,0,0C143.5,237.9,143.2,237.6,142.8,237.6
					C142.8,237.5,142.8,237.5,142.8,237.6L142.8,237.6z M141,233.9c-0.4,0-0.7,0.3-0.7,0.7s0.3,0.7,0.7,0.7s0.7-0.3,0.7-0.7v0
					C141.7,234.2,141.4,233.9,141,233.9C141,233.9,141,233.9,141,233.9z M146.6,311.6c-0.4,0-0.6,0.4-0.6,0.8c0,0.3,0.3,0.6,0.6,0.6
					c0.4,0,0.7-0.3,0.7-0.6c0,0,0,0,0,0C147.2,311.9,146.9,311.6,146.6,311.6C146.5,311.6,146.5,311.6,146.6,311.6L146.6,311.6z
					 M153.9,311.6c-0.1,0-0.2,0-0.3,0C153.7,311.6,153.8,311.6,153.9,311.6L153.9,311.6z M150.3,311.6c-0.4,0-0.7,0.3-0.7,0.6
					c0,0,0,0,0,0c0,0.1,0,0.1,0.1,0.2c0.4-0.1,0.9-0.2,1.4-0.2C150.9,311.8,150.6,311.6,150.3,311.6L150.3,311.6z M150.3,304.2
					c-0.4,0-0.7,0.3-0.7,0.7c0,0.4,0.3,0.7,0.7,0.7c0.4,0,0.7-0.3,0.7-0.7c0,0,0,0,0,0C150.9,304.5,150.7,304.2,150.3,304.2
					C150.3,304.2,150.2,304.2,150.3,304.2L150.3,304.2z M148.4,307.9c-0.4,0-0.7,0.3-0.7,0.7s0.3,0.7,0.7,0.7c0.4,0,0.7-0.3,0.7-0.7
					l0,0C149.1,308.2,148.8,307.9,148.4,307.9C148.4,307.9,148.4,307.9,148.4,307.9L148.4,307.9z M146.6,304.2
					c-0.4,0-0.6,0.4-0.6,0.8c0,0.3,0.3,0.6,0.6,0.6c0.4,0,0.7-0.2,0.8-0.6c0-0.4-0.2-0.7-0.6-0.8
					C146.7,304.2,146.6,304.2,146.6,304.2z M152.1,307.9c-0.4,0-0.7,0.3-0.7,0.7s0.3,0.7,0.7,0.7s0.7-0.3,0.7-0.7c0,0,0,0,0,0
					C152.8,308.2,152.5,307.9,152.1,307.9C152.1,307.9,152.1,307.9,152.1,307.9L152.1,307.9z M148.4,300.5c-0.4,0-0.7,0.3-0.7,0.7
					s0.3,0.7,0.7,0.7c0.4,0,0.7-0.3,0.7-0.7l0,0C149.1,300.8,148.8,300.5,148.4,300.5C148.4,300.5,148.4,300.5,148.4,300.5
					L148.4,300.5z M152.1,300.5c-0.4,0-0.7,0.3-0.7,0.7s0.3,0.7,0.7,0.7s0.7-0.3,0.7-0.7c0,0,0,0,0,0
					C152.8,300.8,152.5,300.5,152.1,300.5C152.1,300.5,152.1,300.5,152.1,300.5L152.1,300.5z M150.3,296.8c-0.4,0-0.7,0.3-0.7,0.7
					c0,0.4,0.3,0.7,0.7,0.7c0.4,0,0.7-0.3,0.7-0.7c0,0,0,0,0,0C150.9,297.1,150.7,296.8,150.3,296.8
					C150.3,296.8,150.2,296.8,150.3,296.8L150.3,296.8z M146.6,296.8c-0.4,0-0.6,0.4-0.6,0.8c0,0.3,0.3,0.6,0.6,0.6
					c0.4,0,0.7-0.3,0.7-0.6c0,0,0,0,0,0C147.2,297.1,146.9,296.8,146.6,296.8C146.5,296.8,146.5,296.8,146.6,296.8L146.6,296.8z
					 M152.1,293.1c-0.4,0-0.7,0.3-0.7,0.7s0.3,0.7,0.7,0.7s0.7-0.3,0.7-0.7c0,0,0,0,0,0C152.8,293.4,152.5,293.1,152.1,293.1
					C152.1,293.1,152.1,293.1,152.1,293.1L152.1,293.1z M148.4,293.1c-0.4,0-0.7,0.3-0.7,0.7s0.3,0.7,0.7,0.7c0.4,0,0.7-0.3,0.7-0.7
					l0,0C149.1,293.4,148.8,293.1,148.4,293.1C148.4,293.1,148.4,293.1,148.4,293.1L148.4,293.1z M150.3,289.4
					c-0.4,0-0.7,0.3-0.7,0.7c0,0.4,0.3,0.7,0.7,0.7c0.4,0,0.7-0.3,0.7-0.7c0,0,0,0,0,0c0-0.3-0.2-0.6-0.6-0.7
					C150.3,289.4,150.3,289.4,150.3,289.4L150.3,289.4z M146.6,289.4c-0.4,0-0.6,0.4-0.6,0.8c0,0.3,0.3,0.6,0.6,0.6
					c0.4,0,0.7-0.2,0.8-0.6c0-0.4-0.2-0.7-0.6-0.8C146.7,289.4,146.6,289.4,146.6,289.4z M146.6,282c-0.4,0-0.6,0.4-0.6,0.8
					c0,0.3,0.3,0.6,0.6,0.6c0.4,0,0.7-0.3,0.7-0.6c0,0,0,0,0,0C147.2,282.3,146.9,282,146.6,282L146.6,282z M152.1,285.7
					c-0.4,0-0.7,0.3-0.7,0.7s0.3,0.7,0.7,0.7s0.7-0.3,0.7-0.7c0,0,0,0,0,0C152.8,286,152.5,285.7,152.1,285.7
					C152.1,285.7,152.1,285.7,152.1,285.7L152.1,285.7z M148.4,285.7c-0.4,0-0.7,0.3-0.7,0.7s0.3,0.7,0.7,0.7c0.4,0,0.7-0.3,0.7-0.7
					l0,0C149.1,286,148.8,285.7,148.4,285.7C148.4,285.7,148.4,285.7,148.4,285.7L148.4,285.7z M150.3,282c-0.4,0-0.7,0.3-0.7,0.7
					c0,0.4,0.3,0.7,0.7,0.7c0.4,0,0.7-0.3,0.7-0.7c0,0,0,0,0,0C150.9,282.3,150.6,282,150.3,282C150.2,282,150.2,282,150.3,282
					L150.3,282z M146.6,274.6c-0.4,0-0.6,0.4-0.6,0.8c0,0.3,0.3,0.6,0.6,0.6c0.4,0,0.7-0.2,0.8-0.6c0-0.4-0.2-0.7-0.6-0.8
					C146.7,274.6,146.6,274.6,146.6,274.6z M148.4,278.3c-0.4,0-0.7,0.3-0.7,0.7s0.3,0.7,0.7,0.7c0.4,0,0.7-0.3,0.7-0.7l0,0
					C149.1,278.6,148.8,278.3,148.4,278.3C148.4,278.3,148.4,278.3,148.4,278.3L148.4,278.3z M150.3,274.6c-0.4,0-0.7,0.3-0.7,0.7
					c0,0.4,0.3,0.7,0.7,0.7c0.4,0,0.7-0.3,0.7-0.7c0,0,0,0,0,0C150.9,274.9,150.7,274.6,150.3,274.6
					C150.3,274.6,150.2,274.6,150.3,274.6L150.3,274.6z M152.1,278.3c-0.4,0-0.7,0.3-0.7,0.7s0.3,0.7,0.7,0.7s0.7-0.3,0.7-0.7
					c0,0,0,0,0,0C152.8,278.6,152.5,278.3,152.1,278.3C152.1,278.3,152.1,278.3,152.1,278.3L152.1,278.3z M150.3,267.1
					c-0.4,0-0.7,0.3-0.7,0.7c0,0.4,0.3,0.7,0.7,0.7c0.4,0,0.7-0.3,0.7-0.7c0,0,0,0,0,0C150.9,267.5,150.7,267.2,150.3,267.1
					C150.3,267.1,150.2,267.1,150.3,267.1L150.3,267.1z M146.6,267.1c-0.4,0-0.6,0.4-0.6,0.8c0,0.3,0.3,0.6,0.6,0.6
					c0.4,0,0.7-0.3,0.7-0.6c0,0,0,0,0,0C147.2,267.4,146.9,267.1,146.6,267.1C146.5,267.1,146.5,267.1,146.6,267.1L146.6,267.1z
					 M148.4,270.9c-0.4,0-0.7,0.3-0.7,0.7s0.3,0.7,0.7,0.7c0.4,0,0.7-0.3,0.7-0.7l0,0C149.1,271.2,148.8,270.9,148.4,270.9
					C148.4,270.9,148.4,270.9,148.4,270.9L148.4,270.9z M152.1,270.9c-0.4,0-0.7,0.3-0.7,0.7s0.3,0.7,0.7,0.7s0.7-0.3,0.7-0.7
					c0,0,0,0,0,0C152.8,271.2,152.5,270.9,152.1,270.9C152.1,270.9,152.1,270.9,152.1,270.9L152.1,270.9z M150.3,259.8
					c-0.4,0-0.7,0.3-0.7,0.7c0,0.4,0.3,0.7,0.7,0.7c0.4,0,0.7-0.3,0.7-0.7c0,0,0,0,0,0C150.9,260.1,150.7,259.8,150.3,259.8
					C150.3,259.8,150.2,259.8,150.3,259.8L150.3,259.8z M148.4,263.5c-0.4,0-0.7,0.3-0.7,0.7s0.3,0.7,0.7,0.7c0.4,0,0.7-0.3,0.7-0.7
					l0,0C149.1,263.8,148.8,263.5,148.4,263.5C148.4,263.5,148.4,263.5,148.4,263.5L148.4,263.5z M152.1,263.5
					c-0.4,0-0.7,0.3-0.7,0.7s0.3,0.7,0.7,0.7s0.7-0.3,0.7-0.7c0,0,0,0,0,0C152.8,263.8,152.5,263.5,152.1,263.5
					C152.1,263.5,152.1,263.5,152.1,263.5L152.1,263.5z M146.6,259.8c-0.4,0-0.6,0.4-0.6,0.8c0,0.3,0.3,0.6,0.6,0.6
					c0.4,0,0.7-0.2,0.8-0.6c0-0.4-0.2-0.7-0.6-0.8C146.7,259.8,146.6,259.8,146.6,259.8z M152.1,256c-0.4,0-0.7,0.3-0.7,0.7
					s0.3,0.7,0.7,0.7s0.7-0.3,0.7-0.7c0,0,0,0,0,0C152.8,256.3,152.5,256,152.1,256C152.1,256,152.1,256,152.1,256L152.1,256z
					 M146.6,252.3c-0.4,0-0.6,0.4-0.6,0.8c0,0.3,0.3,0.6,0.6,0.6c0.4,0,0.7-0.3,0.7-0.6c0,0,0,0,0,0
					C147.2,252.6,146.9,252.3,146.6,252.3C146.5,252.3,146.5,252.3,146.6,252.3L146.6,252.3z M150.3,252.3c-0.4,0-0.7,0.3-0.7,0.7
					c0,0.4,0.3,0.7,0.7,0.7c0.4,0,0.7-0.3,0.7-0.7c0,0,0,0,0,0C150.9,252.6,150.7,252.3,150.3,252.3
					C150.3,252.3,150.2,252.3,150.3,252.3L150.3,252.3z M148.4,256c-0.4,0-0.7,0.3-0.7,0.7s0.3,0.7,0.7,0.7c0.4,0,0.7-0.3,0.7-0.7
					l0,0C149.1,256.4,148.8,256.1,148.4,256C148.4,256,148.4,256,148.4,256L148.4,256z M152.1,248.7c-0.4,0-0.7,0.3-0.7,0.7
					c0,0.4,0.3,0.7,0.7,0.7s0.7-0.3,0.7-0.7c0,0,0,0,0,0C152.8,249,152.5,248.7,152.1,248.7C152.1,248.7,152.1,248.7,152.1,248.7
					L152.1,248.7z M148.4,248.7c-0.4,0-0.7,0.3-0.7,0.7s0.3,0.7,0.7,0.7s0.7-0.3,0.7-0.7v0C149.1,249,148.8,248.7,148.4,248.7
					C148.4,248.7,148.4,248.7,148.4,248.7L148.4,248.7z M146.5,245c-0.4,0-0.6,0.4-0.6,0.8c0,0.3,0.3,0.6,0.6,0.6
					c0.4,0,0.7-0.2,0.8-0.6c0-0.4-0.2-0.7-0.6-0.8C146.6,245,146.6,245,146.5,245z M151.9,242.7c-0.1-0.2-0.3-0.5-0.5-0.7
					c0-0.1,0-0.1,0-0.1v0.1C151.4,242.3,151.6,242.6,151.9,242.7L151.9,242.7z M150.2,245c-0.4,0-0.7,0.3-0.7,0.7
					c0,0.4,0.3,0.7,0.7,0.7c0.4,0,0.7-0.3,0.7-0.7c0,0,0,0,0,0C150.9,245.3,150.6,245,150.2,245C150.2,245,150.2,245,150.2,245z
					 M153.9,246.4c0.1,0,0.2-0.1,0.3-0.1l-0.3-0.5c-0.1-0.2-0.2-0.5-0.4-0.7c-0.2,0.1-0.3,0.4-0.3,0.6
					C153.2,246.1,153.5,246.4,153.9,246.4L153.9,246.4z M148.3,241.3c-0.4,0-0.7,0.3-0.7,0.7s0.3,0.7,0.7,0.7s0.7-0.3,0.7-0.7v0
					C149,241.6,148.8,241.3,148.3,241.3C148.4,241.2,148.4,241.2,148.3,241.3L148.3,241.3z M146.5,237.6c-0.4,0-0.6,0.4-0.6,0.8
					c0,0.3,0.3,0.6,0.6,0.6c0.4,0,0.7-0.3,0.7-0.6c0,0,0,0,0,0C147.2,237.9,146.9,237.5,146.5,237.6
					C146.5,237.5,146.5,237.5,146.5,237.6L146.5,237.6z M158.8,308.6c0,0.1,0,0.3,0.1,0.4v-0.8C158.8,308.4,158.8,308.5,158.8,308.6
					L158.8,308.6z M153.9,304.2c-0.4,0-0.6,0.4-0.6,0.8c0,0.3,0.3,0.6,0.6,0.6c0.4,0,0.7-0.3,0.7-0.6c0,0,0,0,0,0
					c0.1-0.3-0.2-0.7-0.5-0.7C154,304.2,153.9,304.2,153.9,304.2L153.9,304.2z M157.6,304.2c-0.4,0-0.7,0.3-0.7,0.7
					c0,0.4,0.3,0.7,0.7,0.7c0.4,0,0.7-0.3,0.7-0.7c0,0,0,0,0,0c0-0.3-0.2-0.7-0.5-0.7C157.7,304.2,157.6,304.2,157.6,304.2
					L157.6,304.2z M158.8,301.2c0,0.1,0,0.3,0.1,0.4v-0.8C158.8,301,158.8,301.1,158.8,301.2L158.8,301.2z M155.8,307.9
					c-0.4,0-0.7,0.3-0.7,0.7s0.3,0.7,0.7,0.7c0.4,0,0.7-0.3,0.7-0.7l0,0C156.5,308.3,156.2,307.9,155.8,307.9
					C155.8,307.9,155.8,307.9,155.8,307.9L155.8,307.9z M158.8,293.8c0,0.1,0,0.3,0.1,0.4v-0.8C158.8,293.5,158.8,293.7,158.8,293.8
					L158.8,293.8z M157.6,296.8c-0.4,0-0.7,0.3-0.7,0.7c0,0.4,0.3,0.7,0.7,0.7c0.4,0,0.7-0.3,0.7-0.7c0,0,0,0,0,0
					C158.3,297.1,158,296.8,157.6,296.8C157.6,296.8,157.6,296.8,157.6,296.8L157.6,296.8z M155.8,300.5c-0.4,0-0.7,0.3-0.7,0.7
					s0.3,0.7,0.7,0.7c0.4,0,0.7-0.3,0.7-0.7l0,0C156.5,300.8,156.2,300.5,155.8,300.5C155.8,300.5,155.8,300.5,155.8,300.5
					L155.8,300.5z M153.9,296.8c-0.4,0-0.6,0.4-0.6,0.8c0,0.3,0.3,0.6,0.6,0.6c0.4,0,0.7-0.3,0.7-0.6c0,0,0,0,0,0
					c0-0.4-0.2-0.7-0.6-0.7C154,296.8,153.9,296.8,153.9,296.8L153.9,296.8z M158.8,286.4c0,0.1,0,0.3,0.1,0.4V286
					C158.8,286.1,158.8,286.3,158.8,286.4L158.8,286.4z M157.6,289.4c-0.4,0-0.7,0.3-0.7,0.7c0,0.4,0.3,0.7,0.7,0.7
					c0.4,0,0.7-0.3,0.7-0.7c0,0,0,0,0,0c0.1-0.3-0.2-0.7-0.5-0.7C157.7,289.4,157.6,289.4,157.6,289.4L157.6,289.4z M155.8,293.1
					c-0.4,0-0.7,0.3-0.7,0.7s0.3,0.7,0.7,0.7c0.4,0,0.7-0.3,0.7-0.7l0,0C156.5,293.5,156.2,293.1,155.8,293.1
					C155.8,293.1,155.8,293.1,155.8,293.1L155.8,293.1z M153.9,289.4c-0.4,0-0.6,0.4-0.6,0.8c0,0.3,0.3,0.6,0.6,0.6
					c0.4,0,0.7-0.3,0.7-0.6c0,0,0,0,0,0c0.1-0.3-0.2-0.7-0.5-0.7C154,289.4,153.9,289.4,153.9,289.4L153.9,289.4z M155.8,285.7
					c-0.4,0-0.7,0.3-0.7,0.7s0.3,0.7,0.7,0.7c0.4,0,0.7-0.3,0.7-0.7l0,0C156.5,286,156.2,285.7,155.8,285.7
					C155.8,285.7,155.8,285.7,155.8,285.7L155.8,285.7z M158.8,279c0,0.1,0,0.3,0.1,0.4v-0.8C158.8,278.7,158.8,278.9,158.8,279
					L158.8,279z M153.9,282c-0.4,0-0.6,0.4-0.6,0.8c0,0.3,0.3,0.6,0.6,0.6c0.4,0,0.7-0.3,0.7-0.6c0,0,0,0,0,0
					C154.6,282.3,154.3,282,153.9,282C153.9,282,153.9,282,153.9,282L153.9,282z M157.6,282c-0.4,0-0.7,0.3-0.7,0.7
					c0,0.4,0.3,0.7,0.7,0.7c0.4,0,0.7-0.3,0.7-0.7c0,0,0,0,0,0C158.3,282.3,158,282,157.6,282C157.6,282,157.6,282,157.6,282
					L157.6,282z M153.9,274.6c-0.4,0-0.6,0.4-0.6,0.8c0,0.3,0.3,0.6,0.6,0.6c0.4,0,0.7-0.3,0.7-0.6c0,0,0,0,0,0
					c0.1-0.3-0.2-0.7-0.5-0.7C154,274.6,153.9,274.6,153.9,274.6L153.9,274.6z M157.6,274.6c-0.4,0-0.7,0.3-0.7,0.7
					c0,0.4,0.3,0.7,0.7,0.7c0.4,0,0.7-0.3,0.7-0.7c0,0,0,0,0,0c0.1-0.3-0.2-0.7-0.5-0.7C157.7,274.6,157.6,274.6,157.6,274.6
					L157.6,274.6z M158.8,271.6c0,0.1,0,0.3,0.1,0.4v-0.8C158.8,271.4,158.8,271.5,158.8,271.6L158.8,271.6z M155.8,278.3
					c-0.4,0-0.7,0.3-0.7,0.7s0.3,0.7,0.7,0.7c0.4,0,0.7-0.3,0.7-0.7l0,0C156.5,278.7,156.2,278.3,155.8,278.3
					C155.8,278.3,155.8,278.3,155.8,278.3L155.8,278.3z M153.9,267.2c-0.4,0-0.6,0.4-0.6,0.8c0,0.3,0.3,0.6,0.6,0.6
					c0.4,0,0.7-0.3,0.7-0.6c0,0,0,0,0,0c0-0.4-0.2-0.7-0.6-0.7C154,267.1,153.9,267.1,153.9,267.2L153.9,267.2z M155.8,270.9
					c-0.4,0-0.7,0.3-0.7,0.7s0.3,0.7,0.7,0.7c0.4,0,0.7-0.3,0.7-0.7l0,0C156.5,271.2,156.2,270.9,155.8,270.9
					C155.8,270.9,155.8,270.9,155.8,270.9L155.8,270.9z M158.9,264.2v-0.3c-0.1,0.1-0.1,0.2-0.1,0.3c0,0.1,0,0.3,0.1,0.4V264.2z
					 M157.6,267.2c-0.4,0-0.7,0.3-0.7,0.7c0,0.4,0.3,0.7,0.7,0.7c0.4,0,0.7-0.3,0.7-0.7c0,0,0,0,0,0
					C158.3,267.5,158,267.2,157.6,267.2C157.7,267.1,157.6,267.1,157.6,267.2L157.6,267.2z M155.8,263.5c-0.4,0-0.7,0.3-0.7,0.7
					s0.3,0.7,0.7,0.7c0.4,0,0.7-0.3,0.7-0.7l0,0c0-0.4-0.2-0.7-0.6-0.7C155.8,263.5,155.8,263.5,155.8,263.5L155.8,263.5z
					 M157.6,259.8c-0.4,0-0.7,0.3-0.7,0.7c0,0.4,0.3,0.7,0.7,0.7c0.4,0,0.7-0.3,0.7-0.7c0,0,0,0,0,0c0.1-0.3-0.2-0.7-0.5-0.7
					C157.7,259.8,157.6,259.8,157.6,259.8L157.6,259.8z M153.9,259.8c-0.4,0-0.6,0.4-0.6,0.8c0,0.3,0.3,0.6,0.6,0.6
					c0.4,0,0.7-0.3,0.7-0.6c0,0,0,0,0,0c0.1-0.3-0.2-0.7-0.5-0.7C154,259.8,153.9,259.8,153.9,259.8L153.9,259.8z M155.8,250.1
					c0.1,0,0.2,0,0.2,0c-0.1-0.2-0.2-0.4-0.3-0.7s-0.2-0.4-0.3-0.6c-0.2,0.1-0.4,0.4-0.4,0.6C155.1,249.8,155.4,250.1,155.8,250.1
					L155.8,250.1z M157.3,253.7c-0.1-0.3-0.2-0.6-0.3-1c-0.1,0.1-0.1,0.2-0.1,0.3C156.9,253.3,157.1,253.6,157.3,253.7L157.3,253.7z
					 M153.9,252.4c-0.4,0-0.6,0.4-0.6,0.8c0,0.3,0.3,0.6,0.6,0.6c0.4,0,0.7-0.3,0.7-0.6c0,0,0,0,0,0c0.1-0.3-0.2-0.7-0.5-0.7
					C154,252.3,153.9,252.3,153.9,252.4L153.9,252.4z M156.4,256.8c0,0.4-0.3,0.7-0.7,0.7c-0.4,0-0.7-0.3-0.7-0.7
					c0-0.4,0.3-0.7,0.7-0.7h0C156.1,256.1,156.4,256.4,156.4,256.8C156.4,256.8,156.4,256.8,156.4,256.8L156.4,256.8z"/>
				<path class="st1" d="M107.1,271.4c0-7.7,13.9-28.4,13.9-28.4s14,20.7,14,28.4c0,7.7-6.2,13.9-13.9,13.9
					C113.4,285.3,107.1,279.1,107.1,271.4C107.1,271.4,107.1,271.4,107.1,271.4L107.1,271.4z M120.4,333c-34.2,0-62-9.8-62-21.9
					c0-0.2,0-0.4,0-0.6c0-0.1,0-0.2,0-0.3c0-0.1,0-0.2,0-0.2c0-0.1,0-0.3,0-0.4v0c0-0.1,0-0.3,0.1-0.5V309
					c1.7-6.2,10.8-11.7,24.1-15.3v17.4l0.3,0.1c12.2,3,24.7,4.5,37.2,4.4c14.2,0,27.5-1.6,38.6-4.8l0.3-0.1v-16.6
					c12.5,3.6,21.1,8.9,22.7,14.9l0,0c0.1,0.2,0.1,0.3,0.1,0.5v0c0,0.1,0,0.3,0,0.4c0,0.1,0,0.2,0.1,0.2c0,0.1,0,0.2,0,0.3v0.6
					C182.3,323.2,154.5,333,120.4,333z M158.4,264.5V310c-11,3-24.1,4.6-38.1,4.6c-12.3,0.1-24.6-1.3-36.6-4.2v-45.9
					c0-20.6,16.7-37.3,37.3-37.3S158.4,243.8,158.4,264.5L158.4,264.5z M73.3,202.1c1.1-8.1,6.6-14.9,14.3-17.5
					c-2.7,1.8-4.3,3.9-4.3,6.2c0,7.3,16.6,13.3,37.1,13.3s37-5.9,37-13.3c0-2.2-1.5-4.3-4.3-6.2c7.7,2.6,13.3,9.4,14.4,17.6
					l14.2,103.7c-2.6-4.1-8.4-7.9-16.9-11c-1.7-0.6-3.5-1.2-5.3-1.7v-28.7c0-21.2-17.1-38.3-38.3-38.3s-38.3,17.1-38.3,38.3l0,0
					v28.2c-2.4,0.6-4.6,1.4-6.8,2.1c-8.4,3-14.2,6.9-16.9,11L73.3,202.1z M97.2,152.6c2.9,4.4,12.4,7.5,23.9,7.5s21-3.1,23.9-7.5
					v28.2c0,5.1-10.9,9.4-23.9,9.4s-23.9-4.3-23.9-9.4L97.2,152.6z M106.5,142.3l0.1,2.1h0.1c-2.3,1.2-3.6,2.8-3.6,4.4
					c0,4.1,8.1,7.3,18.1,7.3s18.1-3.3,18.1-7.3c0-1.6-1.4-3.2-3.6-4.4h0.1v-2.1c5.6,1.7,9.3,4.4,9.3,7.4c0,5.1-11,9.5-23.9,9.5
					s-23.9-4.4-23.9-9.5C97.2,146.7,100.9,144,106.5,142.3L106.5,142.3z M183,308.8L168.4,202c-1.2-9.7-8.7-17.4-18.3-19.1
					c-1.4-0.7-2.8-1.2-4.2-1.7v-31.5c0-3.5-4-6.6-10.2-8.4l0.6-35.3c0-7.4-6.8-13.3-15.2-13.3s-15.2,5.9-15.2,13.3l0.6,35.3
					c-6.2,1.9-10.2,4.9-10.2,8.4v31c-1.9,0.6-3.8,1.3-5.6,2.2c-9.6,1.7-17.1,9.4-18.3,19.1L57.7,308.8c-0.2,0.8-0.3,1.5-0.3,2.3
					c0,6.2,6.6,12,18.6,16.2c11.9,4.2,27.6,6.6,44.3,6.6s32.5-2.3,44.3-6.6s18.6-10.1,18.6-16.2C183.3,310.3,183.2,309.5,183,308.8z
					"/>
				<path class="st3" d="M122.1,153.4c0-0.4-0.3-0.7-0.7-0.7c-6.7,0-14.1-2.2-14.1-5.3c0-0.4-0.2-0.8-0.6-0.8
					c-0.4,0-0.8,0.2-0.8,0.6c0,0.1,0,0.1,0,0.2c0,3.8,6.8,6.8,15.6,6.8C121.8,154.1,122.1,153.8,122.1,153.4z M131.7,146.5
					L131.7,146.5c-0.4,0-0.7-0.3-0.7-0.7c0,0,0,0,0,0l1.5-37.1c0-6.7-6.3-12.1-13.9-12.1c-0.4,0-0.7-0.4-0.6-0.8
					c0-0.3,0.3-0.6,0.6-0.6c8.5,0,15.4,6.1,15.4,13.6l-1.5,37.1C132.4,146.2,132.1,146.5,131.7,146.5L131.7,146.5z M132.7,271.4
					c0-0.4-0.4-0.7-0.8-0.6c-0.3,0-0.6,0.3-0.6,0.6c0,5.6-4.6,10.2-10.2,10.2c0,0,0,0,0,0c-0.4,0-0.7,0.4-0.6,0.8
					c0,0.3,0.3,0.6,0.6,0.6C127.4,283,132.6,277.8,132.7,271.4C132.7,271.4,132.7,271.4,132.7,271.4L132.7,271.4z M113.1,279.5
					c-0.2,0-0.4-0.1-0.5-0.2c-2-2.2-3.1-5-3.1-7.9c0-0.4,0.3-0.7,0.7-0.7s0.7,0.3,0.7,0.7l0,0c0,2.6,1,5.1,2.7,7
					c0.3,0.3,0.3,0.7,0,1c0,0,0,0,0,0C113.5,279.5,113.3,279.6,113.1,279.5L113.1,279.5z"/>
				<path class="st1" d="M147.5,293.1c0.6,0.5,1,1.3,1.1,2.1c0.3,2,0.6,4.1,1,6.1c-1.4,0.2-2.9,0.4-4.4,0.6
					c-0.2-1.7-0.4-3.4-0.7-5.1c0-0.3-0.1-0.6-0.2-0.8c-0.1-0.2-0.3-0.2-0.5-0.1c-0.3,0-0.5,0.2-0.6,0.4c-0.1,0.4-0.1,0.7-0.1,1.1
					c0.2,1.6,0.4,3.1,0.6,4.7c-1.4,0.2-3,0.3-4.4,0.5c-0.2-1.7-0.3-3.4-0.5-5.1c0-0.3-0.1-0.6-0.2-0.8c-0.1-0.1-0.3-0.2-0.5-0.2
					c-0.3,0-0.5,0.1-0.6,0.4c-0.1,0.4-0.2,0.7-0.1,1.1c0.1,1.6,0.3,3.1,0.4,4.7c-1.4,0.1-2.9,0.2-4.4,0.3c-0.2-3-0.4-6-0.6-9.1
					l3.8-0.3c0.1,0.7,0.2,1.3,0.3,2c0.2-0.7,0.5-1.3,1.1-1.7c0.5-0.5,1.2-0.7,1.9-0.8c1.2-0.2,2.4,0.4,2.9,1.5
					c0.2-0.6,0.6-1.1,1-1.5c0.5-0.4,1.1-0.6,1.7-0.7C146.1,292.4,146.9,292.6,147.5,293.1z M131.2,294.2c0.2,3,0.4,6,0.6,9.1
					c-1.3,0.1-2.6,0.1-4,0.2c0-0.6-0.1-1.3-0.2-1.9c-0.2,0.7-0.6,1.2-1.2,1.6c-0.6,0.4-1.3,0.6-2,0.6c-1.5,0.2-2.9-0.8-3.1-2.3
					c0-0.3,0-0.5,0-0.8c0-2,0-4.1-0.1-6.1c1.4,0,2.8,0,4.2-0.1c0,1.7,0.1,3.4,0.1,5.1c0,0.3,0.1,0.6,0.2,0.8
					c0.1,0.2,0.3,0.3,0.5,0.2c0.6,0,0.9-0.5,0.8-1.5c0-1.6-0.1-3.1-0.2-4.7C128.4,294.4,129.8,294.3,131.2,294.2L131.2,294.2z
					 M120.7,294.6c-0.1,1.2-0.2,2.3-0.3,3.4c-0.1-0.1-0.3-0.2-0.5-0.2c-0.2-0.1-0.4-0.1-0.7-0.1c-0.5,0-1,0.1-1.3,0.4
					c-0.3,0.3-0.5,0.7-0.5,1.2c0,1.4-0.1,2.9-0.1,4.3c-1.4,0-2.9,0-4.4-0.1c0.1-3,0.2-6,0.3-9.1c1.2,0,2.5,0.1,3.8,0.1
					c0,0.8,0,1.5,0,2.3c0.5-1.6,1.3-2.4,2.7-2.4C120.1,294.3,120.4,294.4,120.7,294.6z M106.4,296.9c-0.2,0.2-0.4,0.6-0.4,0.9l2,0.1
					c0-0.3-0.1-0.6-0.2-0.9c-0.1-0.2-0.4-0.3-0.6-0.3C106.9,296.6,106.6,296.7,106.4,296.9z M111.9,299.7c-2-0.1-4-0.2-6-0.4
					c0,0.3,0.1,0.7,0.3,0.9c0.2,0.2,0.6,0.3,0.9,0.3c0.5,0.1,1-0.2,1.2-0.7c1.2,0.4,2.3,0.7,3.4,1.1c-0.2,0.8-0.8,1.5-1.6,1.9
					c-1,0.4-2.1,0.6-3.1,0.5c-1.5,0-2.9-0.6-4-1.5c-0.9-1-1.3-2.3-1.1-3.6c0-1.3,0.7-2.5,1.7-3.3c1.1-0.8,2.5-1.1,3.8-0.9
					c1.3,0,2.6,0.5,3.5,1.4C111.7,296.6,112.1,298.1,111.9,299.7L111.9,299.7z M93.1,301.5c-0.7-0.3-1.4-0.7-1.9-1.3
					c0.8-0.6,1.5-1.2,2.2-1.9c0.3,0.4,0.7,0.7,1.2,0.9c0.4,0.3,0.9,0.4,1.4,0.5c0.2,0.1,0.4,0.1,0.6,0c0.2,0,0.2-0.1,0.2-0.2
					s-0.1-0.2-0.3-0.3c-0.3-0.2-0.7-0.3-1.1-0.4c-1-0.3-2-0.8-2.8-1.5c-0.5-0.5-0.8-1.2-0.6-1.9c0.1-0.5,0.4-1,0.8-1.4
					c0.5-0.5,1.2-0.8,1.8-0.9c0.9-0.2,1.9-0.2,2.8-0.1c0.9,0.1,1.8,0.3,2.6,0.7c0.6,0.3,1.1,0.7,1.6,1.1c-0.6,0.6-1.3,1.2-1.9,1.8
					c-0.6-0.7-1.5-1.1-2.4-1.1c-0.2-0.1-0.5-0.1-0.7,0c-0.1,0-0.2,0.1-0.2,0.2s0.3,0.3,1.1,0.5c1.1,0.2,2.1,0.7,3,1.4
					c0.6,0.5,0.9,1.3,0.8,2.1c-0.1,0.9-0.6,1.8-1.4,2.2c-1.2,0.6-2.5,0.7-3.8,0.5C95,302.1,94,301.9,93.1,301.5z"/>
			</g>
		</g>
		<text transform="matrix(1 0 0 1 58.57 42.4)" class="st4 st5 st6">S</text>
		<text transform="matrix(1 0 0 1 80.34 42.4)" class="st4 st5 st6">E</text>
		<text transform="matrix(1 0 0 1 102.38 42.4)" class="st4 st5 st6">R</text>
		<text transform="matrix(1 0 0 1 127.31 42.4)" class="st4 st5 st6">U</text>
		<text transform="matrix(1 0 0 1 155.03 42.4)" class="st4 st5 st6">M</text>
	</g>
</g>
</svg>
