<?xml version="1.0" encoding="utf-8"?>
<!-- Generator: Adobe Illustrator 25.2.1, SVG Export Plug-In . SVG Version: 6.00 Build 0)  -->
<svg version="1.1" id="Layer_1" xmlns="http://www.w3.org/2000/svg" xmlns:xlink="http://www.w3.org/1999/xlink" x="0px" y="0px"
	 viewBox="0 0 241.4 364.5" style="enable-background:new 0 0 241.4 364.5;" xml:space="preserve">
<style type="text/css">
	.st0{fill:#F3E9FF;}
	.st1{fill:#AC81FF;}
	.st2{clip-path:url(#SVGID_2_);}
	.st3{fill-rule:evenodd;clip-rule:evenodd;fill:#6BCDDB;}
	.st4{clip-path:url(#SVGID_4_);}
	.st5{clip-path:url(#SVGID_6_);}
	.st6{fill-rule:evenodd;clip-rule:evenodd;fill:#D6E7E7;}
	.st7{fill:none;stroke:#717477;stroke-width:0.95;stroke-linecap:round;stroke-linejoin:round;}
	.st8{fill:none;stroke:#FFFFFF;stroke-width:0.95;stroke-linecap:round;stroke-linejoin:round;}
	.st9{fill:none;stroke:#F9DA06;stroke-width:1.1;stroke-linecap:round;stroke-linejoin:round;}
	.st10{fill:none;stroke:#363535;stroke-width:0.95;stroke-linecap:round;stroke-linejoin:round;}
	.st11{fill:#FFFFFF;}
	.st12{font-family:'OpenSans-Bold';}
	.st13{font-size:25px;}
</style>
<g id="Layer_2_1_">
	<g id="Layer_1-2">
		<rect y="0" class="st0" width="241.4" height="364.5"/>
		<rect x="0" y="1.1" class="st1" width="241.1" height="70.1"/>
		<g>
			<defs>
				<rect id="SVGID_1_" x="38.3" y="175.8" width="134.1" height="152.5"/>
			</defs>
			<clipPath id="SVGID_2_">
				<use xlink:href="#SVGID_1_"  style="overflow:visible;"/>
			</clipPath>
			<g class="st2">
				<path class="st3" d="M38.6,296.3c7.2,15.5,67.5,39.2,87.4,30c4.7-2.2,38.5-88.5,46.4-121.2c0.5-2-19.6-13.2-45.7-19.5
					c-19.4-4.7-38.9-12.3-47.3-8.5C76.1,178.5,34.8,288.2,38.6,296.3"/>
			</g>
		</g>
		<g>
			<defs>
				<rect id="SVGID_3_" x="92.7" y="102.1" width="109.6" height="71.7"/>
			</defs>
			<clipPath id="SVGID_4_">
				<use xlink:href="#SVGID_3_"  style="overflow:visible;"/>
			</clipPath>
			<g class="st4">
				<path class="st3" d="M186.3,173.1c2.9,4.3,17.7-31.4,15.9-36c-0.8-2-17.2-17.1-41.3-26.8c-24.4-9.8-53.4-9.3-55.1-6.8
					c-1.2,1.8-14.2,33.8-12.9,35.4c2,2.7,26.1-1,48.8,6.8C165,153.7,184.9,170.9,186.3,173.1"/>
			</g>
		</g>
		<g>
			<defs>
				<rect id="SVGID_5_" x="38.1" y="102.1" width="164.2" height="226.3"/>
			</defs>
			<clipPath id="SVGID_6_">
				<use xlink:href="#SVGID_5_"  style="overflow:visible;"/>
			</clipPath>
			<g class="st5">
				<path class="st6" d="M121.4,160.2c13.8,0.4,13.2-5.1,13.7-7.1c0.2-0.8,11.1,1.4,10.8,2.7c-0.2,0.9-4.8,8,3.9,14
					c15.5,5.8,28.4,15.2,28.1,18.3c-0.5,6.2-6.6,20.7-8,25.3c-0.4,1.4-95.6-24-92.2-32.5c1.9-4.8,6.5-20.7,9.1-22.8
					C88.6,156.6,104.2,157.1,121.4,160.2"/>
				<path class="st7" d="M136.7,154.5c-0.1,0-0.2,0-0.2,0.3c0.1,1.4,6.6,2.1,7,1.7"/>
				<path class="st8" d="M153.2,174.5c0.2,0.1,0.6,0.6,0.9,0.8c2,1.1,4.1,1.7,6.1,2.7c2.8,1.4,5.6,2.9,8.3,4.5
					c3.1,1.8,6.3,3.9,6,7.9 M174.2,192.9c0.1,0-0.3,1.6-0.3,1.8 M90.9,162.1c-1.3,0.2,2,3.3,3.4,4.2c4.7,2.8,9.6,5,14.7,6.8
					c9.7,3.6,19.7,6.3,29.6,9.4c1.1,0.3,9.3,3.6,10.2,3.3 M162.5,189.6c0,0-0.4-0.1-0.4-0.1c-2.6-0.6-5.2-1.3-7.7-2.1 M170.7,193.6
					c0.2-0.1-0.4-0.1-0.7-0.2c-0.7-0.2-1.4-0.4-2.1-0.6 M101.9,118.7c1.3-3.3,2.2-6.8,3.9-9.9c0.6-1.2,1.2-2.8,2.4-3.5
					c1-0.5,2.1-0.8,3.2-0.8 M113.2,104.7C113.2,104.7,113.3,104.7,113.2,104.7l1.2-0.1c0.9,0.1,1.7,0.1,2.6,0 M196.2,148.7
					c0.1,0-1.2,3.5-1.3,3.7c-1.6,4-3.4,7.8-5.5,11.5c-0.1,0.1-0.4,1-0.6,1 M187.8,166.5c0.1,0.1-0.1,0.1-0.1,0.2
					c-0.1,0.2-1.2,1.9-1.7,1.4 M162.9,217.5c-0.2,0-0.4,0-0.6,0c-0.6-0.1-1.3-0.2-2-0.3c-1.8-0.3-3.7-0.7-5.5-1.1
					c-5.5-1.3-11-2.8-16.3-4.8 M134.3,209.9c-0.3-0.4-3-0.8-3.5-1 M113.6,323.4c1.3,1.6,8.1-2.1,9.2-3.8c5.4-8.6,8.9-18,13.8-26.7
					 M140.5,284.9c-1,1.6-1.8,3.2-2.5,4.9"/>
				<path class="st9" d="M102.7,249.8c-0.1-2.2,2.2-2.1,2.3-2.1c1.7,0.3,2,2.1,1.2,3.4c-1.3,1.9-5.2,2.6-6.2,0
					c-2.5-6.8,11.8-9.1,10,0.1c-0.2,1.2-0.7,2.4-1.3,3.5c-3.6,5.4-14.3,0.7-12.6-5.7c2.6-9.5,18.3-8.9,16.7,2.6
					c-1.8,12.9-19.7,10.2-21-1c-1.4-12,25.4-17.8,25.5-2.2c0,4.9-2.5,9.5-6.5,12.2c-8.9,6-23.2-0.5-22.8-11.3c0.1-3.4,2-6.7,4.2-9.2
					c7.9-9.2,20.1-6.6,24.8-0.5c3.1,4,5.1,10.7-0.7,18.8 M100,220.1c0-0.1,6.2,6.7,10,6.8s12.7-6.3,12.8-6.2s-3.6,11.4-1.3,15
					s15,6.4,15.1,6.5s-0.1,0.1-0.1,0.1c-1.1,0.4-8.6,4-9.5,10.5c-0.8,5.6,4.3,10.7,4.2,11.5c0,0.1-10.4-2.6-15.4,0.8
					c-6,4-6.1,14.9-6.1,14.9s-4.8-12.3-10.4-13.4c-3.9-0.8-14.7,7.8-14.7,7.8c2.4-6.2,4-12.9,1.6-16.2s-15.8-3.7-15.8-3.7
					s12.8-5.4,12.7-10.6c-0.2-6.3-3.8-13.9-3.8-13.9s12.4,3.7,14.6,2.6C96.8,231,99.7,221.7,100,220.1z"/>
				<path class="st10" d="M71.6,285.6c-0.1,0.1-0.2-0.7-0.2-0.7c-0.1-0.8-0.3-1.6-0.6-2.3c-0.6-1.6-2.1-2.8-3.8-1.9
					c-1.2,0.7-2.1,1.8-2.7,3c-2.3,4.7,6.9,5.1,5.3,10.3c-1.6,4.9-8.1,3.2-9.3-1 M78.7,302.3c0.3,0,1.4-3.5,1.5-3.8
					c0.7-1.9,3.8-12.3,6-12.7c7.5-1.4,5.4,12-3.2,7.3 M94,305.6c1.7-3.4,3.1-6.9,4.3-10.5c0.2-0.5,0.8-3.8,1.4-4
					c0.4-0.2,5.1,1.4,6,1.6c1,0.3,2,0.5,3,0.6c0,0,0.2,0,0.1,0 M97.7,296.6c1.1-0.3,6.4,2,8.3,2.2"/>
			</g>
		</g>
		<text transform="matrix(1 0 0 1 13.72 44.63)" class="st11 st12 st13">S</text>
		<text transform="matrix(1 0 0 1 35.49 44.63)" class="st11 st12 st13">U</text>
		<text transform="matrix(1 0 0 1 63.2 44.63)" class="st11 st12 st13">N</text>
		<text transform="matrix(1 0 0 1 92.57 44.63)" class="st11 st12 st13">S</text>
		<text transform="matrix(1 0 0 1 114.34 44.63)" class="st11 st12 st13">C</text>
		<text transform="matrix(1 0 0 1 138.61 44.63)" class="st11 st12 st13">R</text>
		<text transform="matrix(1 0 0 1 163.55 44.63)" class="st11 st12 st13">E</text>
		<text transform="matrix(1 0 0 1 185.59 44.63)" class="st11 st12 st13">E</text>
		<text transform="matrix(1 0 0 1 207.63 44.63)" class="st11 st12 st13">N</text>
	</g>
</g>
</svg>
