<svg xmlns="http://www.w3.org/2000/svg" xmlns:xlink="http://www.w3.org/1999/xlink" viewBox="0 0 304.08 322.44"><defs><style>.cls-1{fill:none;}.cls-2{clip-path:url(#clip-path);}.cls-3{fill:#8fa6ac;}.cls-4{clip-path:url(#clip-path-3);}.cls-5{fill:#50593d;}.cls-6{fill:#50593f;}</style><clipPath id="clip-path" transform="translate(0)"><rect class="cls-1" y="93.19" width="183" height="229.29"/></clipPath><clipPath id="clip-path-3" transform="translate(0)"><rect class="cls-1" x="151.49" width="152.8" height="137.84"/></clipPath></defs><g id="Layer_2" data-name="Layer 2"><g id="Layer_1-2" data-name="Layer 1"><g class="cls-2"><path class="cls-3" d="M70.32,264h43.17v-5.84a57,57,0,0,1,14.14-37.61,46.76,46.76,0,0,0,11.61-27.73,47.46,47.46,0,1,0-83.3,27.46,58.37,58.37,0,0,1,14.38,38Zm46.5,6.69H67a3.39,3.39,0,0,1-3.38-3.38v-9a51.67,51.67,0,0,0-12.76-33.68,54.05,54.05,0,1,1,95.07-31.35A53.44,53.44,0,0,1,132.68,225a50.29,50.29,0,0,0-12.48,33.21v9.15A3.39,3.39,0,0,1,116.82,270.7Z" transform="translate(0)"/><path class="cls-3" d="M66,270.7a2,2,0,0,0-1.93,1.92v.24A2,2,0,0,0,66,274.78h51.77a2,2,0,0,0,1.93-1.92v-.24a2,2,0,0,0-1.93-1.92Zm51.77,10.77H66a8.63,8.63,0,0,1-8.63-8.61v-.24A8.63,8.63,0,0,1,66,264h51.77a8.63,8.63,0,0,1,8.64,8.61v.24A8.63,8.63,0,0,1,117.79,281.47Z" transform="translate(0)"/><path class="cls-3" d="M66,281.47a2,2,0,0,0-1.93,1.93v.23A2,2,0,0,0,66,285.56h51.77a2,2,0,0,0,1.93-1.93v-.23a2,2,0,0,0-1.93-1.93Zm51.77,10.78H66a8.63,8.63,0,0,1-8.63-8.61v-.24A8.63,8.63,0,0,1,66,274.79h51.77a8.63,8.63,0,0,1,8.64,8.61v.24A8.64,8.64,0,0,1,117.79,292.25Z" transform="translate(0)"/><path class="cls-3" d="M66,292.25a2,2,0,0,0-1.93,1.93v.23A2,2,0,0,0,66,296.33h51.77a2,2,0,0,0,1.93-1.92v-.24a2,2,0,0,0-1.93-1.92ZM117.79,303H66a8.63,8.63,0,0,1-8.63-8.61v-.24A8.63,8.63,0,0,1,66,285.56h51.77a8.63,8.63,0,0,1,8.64,8.61v.24A8.63,8.63,0,0,1,117.79,303Z" transform="translate(0)"/><path class="cls-3" d="M78.49,303a13,13,0,0,0,13.05,12.73h.73A13.06,13.06,0,0,0,105.33,303Zm13.78,19.42h-.73a19.76,19.76,0,0,1-19.77-19.71v-3.05a3.36,3.36,0,0,1,3.36-3.35h33.55a3.35,3.35,0,0,1,3.36,3.35v3.05A19.76,19.76,0,0,1,92.27,322.44Z" transform="translate(0)"/><path class="cls-3" d="M93,126.37A3.35,3.35,0,0,1,89.63,123V96.61a3.36,3.36,0,0,1,6.71,0V123A3.35,3.35,0,0,1,93,126.37Z" transform="translate(0)"/><path class="cls-3" d="M136.73,143.67a3.35,3.35,0,0,1-2.37-5.72l17.36-17.32a3.38,3.38,0,0,1,4.75,0,3.34,3.34,0,0,1,0,4.73L139.1,142.69A3.38,3.38,0,0,1,136.73,143.67Z" transform="translate(0)"/><path class="cls-3" d="M179.73,182.34H156a3.35,3.35,0,1,1,0-6.69h23.7a3.35,3.35,0,1,1,0,6.69Z" transform="translate(0)"/><path class="cls-3" d="M46.36,142.35a3.36,3.36,0,0,1-2.37-1L26.62,124a3.34,3.34,0,0,1,0-4.73,3.38,3.38,0,0,1,4.75,0l17.37,17.32a3.35,3.35,0,0,1,0,4.74A3.39,3.39,0,0,1,46.36,142.35Z" transform="translate(0)"/><path class="cls-3" d="M27.05,181H3.35a3.35,3.35,0,1,1,0-6.69h23.7a3.35,3.35,0,1,1,0,6.69Z" transform="translate(0)"/><path class="cls-3" d="M93,199.63a3.28,3.28,0,0,1,1.56.39l10.84,5.68-2.07-12a3.32,3.32,0,0,1,1-3l8.76-8.52-12.11-1.76a3.33,3.33,0,0,1-2.53-1.83L93,167.65l-5.42,10.94A3.33,3.33,0,0,1,85,180.42l-12.11,1.76,8.76,8.52a3.35,3.35,0,0,1,1,3l-2.07,12L91.41,200A3.41,3.41,0,0,1,93,199.63Zm16.85,15.53a3.34,3.34,0,0,1-1.56-.39l-15.29-8-15.28,8a3.35,3.35,0,0,1-4.87-3.52l2.92-17-12.37-12a3.35,3.35,0,0,1,1.86-5.71l17.09-2.47L90,158.62a3.36,3.36,0,0,1,6,0l7.64,15.45,17.1,2.47a3.35,3.35,0,0,1,1.86,5.71l-12.37,12,2.92,17a3.34,3.34,0,0,1-1.34,3.27A3.41,3.41,0,0,1,109.83,215.16Z" transform="translate(0)"/></g><g class="cls-2"><path class="cls-3" d="M70.32,264h43.17v-5.84a57,57,0,0,1,14.14-37.61,46.76,46.76,0,0,0,11.61-27.73,47.46,47.46,0,1,0-83.3,27.46,58.37,58.37,0,0,1,14.38,38Zm46.5,6.69H67a3.39,3.39,0,0,1-3.38-3.38v-9a51.67,51.67,0,0,0-12.76-33.68,54.05,54.05,0,1,1,95.07-31.35A53.44,53.44,0,0,1,132.68,225a50.29,50.29,0,0,0-12.48,33.21v9.15A3.39,3.39,0,0,1,116.82,270.7Z" transform="translate(0)"/><path class="cls-3" d="M66,270.7a2,2,0,0,0-1.93,1.92v.24A2,2,0,0,0,66,274.78h51.77a2,2,0,0,0,1.93-1.92v-.24a2,2,0,0,0-1.93-1.92Zm51.77,10.77H66a8.63,8.63,0,0,1-8.63-8.61v-.24A8.63,8.63,0,0,1,66,264h51.77a8.63,8.63,0,0,1,8.64,8.61v.24A8.63,8.63,0,0,1,117.79,281.47Z" transform="translate(0)"/><path class="cls-3" d="M66,281.47a2,2,0,0,0-1.93,1.93v.23A2,2,0,0,0,66,285.56h51.77a2,2,0,0,0,1.93-1.93v-.23a2,2,0,0,0-1.93-1.93Zm51.77,10.78H66a8.63,8.63,0,0,1-8.63-8.61v-.24A8.63,8.63,0,0,1,66,274.79h51.77a8.63,8.63,0,0,1,8.64,8.61v.24A8.64,8.64,0,0,1,117.79,292.25Z" transform="translate(0)"/><path class="cls-3" d="M66,292.25a2,2,0,0,0-1.93,1.93v.23A2,2,0,0,0,66,296.33h51.77a2,2,0,0,0,1.93-1.92v-.24a2,2,0,0,0-1.93-1.92ZM117.79,303H66a8.63,8.63,0,0,1-8.63-8.61v-.24A8.63,8.63,0,0,1,66,285.56h51.77a8.63,8.63,0,0,1,8.64,8.61v.24A8.63,8.63,0,0,1,117.79,303Z" transform="translate(0)"/><path class="cls-3" d="M78.49,303a13,13,0,0,0,13.05,12.73h.73A13.06,13.06,0,0,0,105.33,303Zm13.78,19.42h-.73a19.76,19.76,0,0,1-19.77-19.71v-3.05a3.36,3.36,0,0,1,3.36-3.35h33.55a3.35,3.35,0,0,1,3.36,3.35v3.05A19.76,19.76,0,0,1,92.27,322.44Z" transform="translate(0)"/><path class="cls-3" d="M93,126.37A3.35,3.35,0,0,1,89.63,123V96.61a3.36,3.36,0,0,1,6.71,0V123A3.35,3.35,0,0,1,93,126.37Z" transform="translate(0)"/><path class="cls-3" d="M136.73,143.67a3.35,3.35,0,0,1-2.37-5.72l17.36-17.32a3.38,3.38,0,0,1,4.75,0,3.34,3.34,0,0,1,0,4.73L139.1,142.69A3.38,3.38,0,0,1,136.73,143.67Z" transform="translate(0)"/><path class="cls-3" d="M179.73,182.34H156a3.35,3.35,0,1,1,0-6.69h23.7a3.35,3.35,0,1,1,0,6.69Z" transform="translate(0)"/><path class="cls-3" d="M46.36,142.35a3.36,3.36,0,0,1-2.37-1L26.62,124a3.34,3.34,0,0,1,0-4.73,3.38,3.38,0,0,1,4.75,0l17.37,17.32a3.35,3.35,0,0,1,0,4.74A3.39,3.39,0,0,1,46.36,142.35Z" transform="translate(0)"/><path class="cls-3" d="M27.05,181H3.35a3.35,3.35,0,1,1,0-6.69h23.7a3.35,3.35,0,1,1,0,6.69Z" transform="translate(0)"/><path class="cls-3" d="M93,199.63a3.28,3.28,0,0,1,1.56.39l10.84,5.68-2.07-12a3.32,3.32,0,0,1,1-3l8.76-8.52-12.11-1.76a3.33,3.33,0,0,1-2.53-1.83L93,167.65l-5.42,10.94A3.33,3.33,0,0,1,85,180.42l-12.11,1.76,8.76,8.52a3.35,3.35,0,0,1,1,3l-2.07,12L91.41,200A3.41,3.41,0,0,1,93,199.63Zm16.85,15.53a3.34,3.34,0,0,1-1.56-.39l-15.29-8-15.28,8a3.35,3.35,0,0,1-4.87-3.52l2.92-17-12.37-12a3.35,3.35,0,0,1,1.86-5.71l17.09-2.47L90,158.62a3.36,3.36,0,0,1,6,0l7.64,15.45,17.1,2.47a3.35,3.35,0,0,1,1.86,5.71l-12.37,12,2.92,17a3.34,3.34,0,0,1-1.34,3.27A3.41,3.41,0,0,1,109.83,215.16Z" transform="translate(0)"/></g><g class="cls-4"><path class="cls-5" d="M180.32,5.27A23.36,23.36,0,0,0,157,28.61V66.42a23.36,23.36,0,0,0,23.33,23.34A2.65,2.65,0,0,1,183,92.38l.23,36.28,36.25-38.09a2.63,2.63,0,0,1,1.91-.81h54.13A23.36,23.36,0,0,0,298.8,66.42V28.61A23.36,23.36,0,0,0,275.48,5.27Zm.28,132.58a2.5,2.5,0,0,1-1-.19,2.65,2.65,0,0,1-1.67-2.43l-.26-40.32a28.65,28.65,0,0,1-26-28.49V28.61A28.63,28.63,0,0,1,180.32,0h95.16a28.63,28.63,0,0,1,28.6,28.61V66.42A28.63,28.63,0,0,1,275.48,95h-53l-40,42A2.67,2.67,0,0,1,180.6,137.85Z" transform="translate(0)"/><path class="cls-6" d="M203.62,31.47A2.53,2.53,0,0,1,201.09,34h-8.32V63.15a2.85,2.85,0,1,1-5.7,0V34h-8.32a2.53,2.53,0,0,1,0-5.06h22.34A2.53,2.53,0,0,1,203.62,31.47Z" transform="translate(0)"/><path class="cls-6" d="M214.16,31.74V63.21a2.9,2.9,0,1,1-5.79,0V31.74a2.9,2.9,0,1,1,5.79,0Z" transform="translate(0)"/><path class="cls-6" d="M241.15,40.64c0-4.63-3.27-6.8-8.12-6.8h-6.85V47.5H233C237.88,47.5,241.15,45.55,241.15,40.64Zm5.53,0c0,6.91-5.22,11.76-13.44,11.76h-7.06V63.26a2.85,2.85,0,1,1-5.69,0V32.05a3,3,0,0,1,3.11-3.11h9.64C241.46,28.94,246.68,34,246.68,40.64Z" transform="translate(0)"/><path class="cls-6" d="M273.25,33.21a4.35,4.35,0,0,1,1.21,2.64,2.27,2.27,0,0,1-2.37,2.26,3.19,3.19,0,0,1-2.43-1.21,7,7,0,0,0-6.11-3.27c-3.74,0-6.06,1.9-6.06,4.8,0,2.32,1.47,4,4.9,5.32l2.58,1c7.43,2.84,11.23,5.53,11.23,10.86,0,7-6.91,10.59-13,10.59-4.48,0-9.07-1.95-11.44-5.59a4.67,4.67,0,0,1-1.11-2.68A2.33,2.33,0,0,1,253,55.46a3.3,3.3,0,0,1,2.74,1.68,8.62,8.62,0,0,0,7.43,4c3.27,0,7.17-1.37,7.17-5.48,0-3.33-2.48-4.64-6.54-6.22L261,48.29c-5.28-2.06-9.18-4.75-9.18-9.91,0-6,5.17-9.81,11.55-9.81A12,12,0,0,1,273.25,33.21Z" transform="translate(0)"/></g><g class="cls-2"><path class="cls-3" d="M70.32,264h43.17v-5.84a57,57,0,0,1,14.14-37.61,46.76,46.76,0,0,0,11.61-27.73,47.46,47.46,0,1,0-83.3,27.46,58.37,58.37,0,0,1,14.38,38Zm46.5,6.69H67a3.39,3.39,0,0,1-3.38-3.38v-9a51.67,51.67,0,0,0-12.76-33.68,54.05,54.05,0,1,1,95.07-31.35A53.44,53.44,0,0,1,132.68,225a50.29,50.29,0,0,0-12.48,33.21v9.15A3.39,3.39,0,0,1,116.82,270.7Z" transform="translate(0)"/><path class="cls-3" d="M66,270.7a2,2,0,0,0-1.93,1.92v.24A2,2,0,0,0,66,274.78h51.77a2,2,0,0,0,1.93-1.92v-.24a2,2,0,0,0-1.93-1.92Zm51.77,10.77H66a8.63,8.63,0,0,1-8.63-8.61v-.24A8.63,8.63,0,0,1,66,264h51.77a8.63,8.63,0,0,1,8.64,8.61v.24A8.63,8.63,0,0,1,117.79,281.47Z" transform="translate(0)"/><path class="cls-3" d="M66,281.47a2,2,0,0,0-1.93,1.93v.23A2,2,0,0,0,66,285.56h51.77a2,2,0,0,0,1.93-1.93v-.23a2,2,0,0,0-1.93-1.93Zm51.77,10.78H66a8.63,8.63,0,0,1-8.63-8.61v-.24A8.63,8.63,0,0,1,66,274.79h51.77a8.63,8.63,0,0,1,8.64,8.61v.24A8.64,8.64,0,0,1,117.79,292.25Z" transform="translate(0)"/><path class="cls-3" d="M66,292.25a2,2,0,0,0-1.93,1.93v.23A2,2,0,0,0,66,296.33h51.77a2,2,0,0,0,1.93-1.92v-.24a2,2,0,0,0-1.93-1.92ZM117.79,303H66a8.63,8.63,0,0,1-8.63-8.61v-.24A8.63,8.63,0,0,1,66,285.56h51.77a8.63,8.63,0,0,1,8.64,8.61v.24A8.63,8.63,0,0,1,117.79,303Z" transform="translate(0)"/><path class="cls-3" d="M78.49,303a13,13,0,0,0,13.05,12.73h.73A13.06,13.06,0,0,0,105.33,303Zm13.78,19.42h-.73a19.76,19.76,0,0,1-19.77-19.71v-3.05a3.36,3.36,0,0,1,3.36-3.35h33.55a3.35,3.35,0,0,1,3.36,3.35v3.05A19.76,19.76,0,0,1,92.27,322.44Z" transform="translate(0)"/><path class="cls-3" d="M93,126.37A3.35,3.35,0,0,1,89.63,123V96.61a3.36,3.36,0,0,1,6.71,0V123A3.35,3.35,0,0,1,93,126.37Z" transform="translate(0)"/><path class="cls-3" d="M136.73,143.67a3.35,3.35,0,0,1-2.37-5.72l17.36-17.32a3.38,3.38,0,0,1,4.75,0,3.34,3.34,0,0,1,0,4.73L139.1,142.69A3.38,3.38,0,0,1,136.73,143.67Z" transform="translate(0)"/><path class="cls-3" d="M179.73,182.34H156a3.35,3.35,0,1,1,0-6.69h23.7a3.35,3.35,0,1,1,0,6.69Z" transform="translate(0)"/><path class="cls-3" d="M46.36,142.35a3.36,3.36,0,0,1-2.37-1L26.62,124a3.34,3.34,0,0,1,0-4.73,3.38,3.38,0,0,1,4.75,0l17.37,17.32a3.35,3.35,0,0,1,0,4.74A3.39,3.39,0,0,1,46.36,142.35Z" transform="translate(0)"/><path class="cls-3" d="M27.05,181H3.35a3.35,3.35,0,1,1,0-6.69h23.7a3.35,3.35,0,1,1,0,6.69Z" transform="translate(0)"/><path class="cls-3" d="M93,199.63a3.28,3.28,0,0,1,1.56.39l10.84,5.68-2.07-12a3.32,3.32,0,0,1,1-3l8.76-8.52-12.11-1.76a3.33,3.33,0,0,1-2.53-1.83L93,167.65l-5.42,10.94A3.33,3.33,0,0,1,85,180.42l-12.11,1.76,8.76,8.52a3.35,3.35,0,0,1,1,3l-2.07,12L91.41,200A3.41,3.41,0,0,1,93,199.63Zm16.85,15.53a3.34,3.34,0,0,1-1.56-.39l-15.29-8-15.28,8a3.35,3.35,0,0,1-4.87-3.52l2.92-17-12.37-12a3.35,3.35,0,0,1,1.86-5.71l17.09-2.47L90,158.62a3.36,3.36,0,0,1,6,0l7.64,15.45,17.1,2.47a3.35,3.35,0,0,1,1.86,5.71l-12.37,12,2.92,17a3.34,3.34,0,0,1-1.34,3.27A3.41,3.41,0,0,1,109.83,215.16Z" transform="translate(0)"/></g><g class="cls-4"><path class="cls-5" d="M180.32,5.27A23.36,23.36,0,0,0,157,28.61V66.42a23.36,23.36,0,0,0,23.33,23.34A2.65,2.65,0,0,1,183,92.38l.23,36.28,36.25-38.09a2.63,2.63,0,0,1,1.91-.81h54.13A23.36,23.36,0,0,0,298.8,66.42V28.61A23.36,23.36,0,0,0,275.48,5.27Zm.28,132.58a2.5,2.5,0,0,1-1-.19,2.65,2.65,0,0,1-1.67-2.43l-.26-40.32a28.65,28.65,0,0,1-26-28.49V28.61A28.63,28.63,0,0,1,180.32,0h95.16a28.63,28.63,0,0,1,28.6,28.61V66.42A28.63,28.63,0,0,1,275.48,95h-53l-40,42A2.67,2.67,0,0,1,180.6,137.85Z" transform="translate(0)"/><path class="cls-6" d="M203.62,31.47A2.53,2.53,0,0,1,201.09,34h-8.32V63.15a2.85,2.85,0,1,1-5.7,0V34h-8.32a2.53,2.53,0,0,1,0-5.06h22.34A2.53,2.53,0,0,1,203.62,31.47Z" transform="translate(0)"/><path class="cls-6" d="M214.16,31.74V63.21a2.9,2.9,0,1,1-5.79,0V31.74a2.9,2.9,0,1,1,5.79,0Z" transform="translate(0)"/><path class="cls-6" d="M241.15,40.64c0-4.63-3.27-6.8-8.12-6.8h-6.85V47.5H233C237.88,47.5,241.15,45.55,241.15,40.64Zm5.53,0c0,6.91-5.22,11.76-13.44,11.76h-7.06V63.26a2.85,2.85,0,1,1-5.69,0V32.05a3,3,0,0,1,3.11-3.11h9.64C241.46,28.94,246.68,34,246.68,40.64Z" transform="translate(0)"/><path class="cls-6" d="M273.25,33.21a4.35,4.35,0,0,1,1.21,2.64,2.27,2.27,0,0,1-2.37,2.26,3.19,3.19,0,0,1-2.43-1.21,7,7,0,0,0-6.11-3.27c-3.74,0-6.06,1.9-6.06,4.8,0,2.32,1.47,4,4.9,5.32l2.58,1c7.43,2.84,11.23,5.53,11.23,10.86,0,7-6.91,10.59-13,10.59-4.48,0-9.07-1.95-11.44-5.59a4.67,4.67,0,0,1-1.11-2.68A2.33,2.33,0,0,1,253,55.46a3.3,3.3,0,0,1,2.74,1.68,8.62,8.62,0,0,0,7.43,4c3.27,0,7.17-1.37,7.17-5.48,0-3.33-2.48-4.64-6.54-6.22L261,48.29c-5.28-2.06-9.18-4.75-9.18-9.91,0-6,5.17-9.81,11.55-9.81A12,12,0,0,1,273.25,33.21Z" transform="translate(0)"/></g><g class="cls-2"><path class="cls-3" d="M70.32,264h43.17v-5.84a57,57,0,0,1,14.14-37.61,46.76,46.76,0,0,0,11.61-27.73,47.46,47.46,0,1,0-83.3,27.46,58.37,58.37,0,0,1,14.38,38Zm46.5,6.69H67a3.39,3.39,0,0,1-3.38-3.38v-9a51.67,51.67,0,0,0-12.76-33.68,54.05,54.05,0,1,1,95.07-31.35A53.44,53.44,0,0,1,132.68,225a50.29,50.29,0,0,0-12.48,33.21v9.15A3.39,3.39,0,0,1,116.82,270.7Z" transform="translate(0)"/><path class="cls-3" d="M66,270.7a2,2,0,0,0-1.93,1.92v.24A2,2,0,0,0,66,274.78h51.77a2,2,0,0,0,1.93-1.92v-.24a2,2,0,0,0-1.93-1.92Zm51.77,10.77H66a8.63,8.63,0,0,1-8.63-8.61v-.24A8.63,8.63,0,0,1,66,264h51.77a8.63,8.63,0,0,1,8.64,8.61v.24A8.63,8.63,0,0,1,117.79,281.47Z" transform="translate(0)"/><path class="cls-3" d="M66,281.47a2,2,0,0,0-1.93,1.93v.23A2,2,0,0,0,66,285.56h51.77a2,2,0,0,0,1.93-1.93v-.23a2,2,0,0,0-1.93-1.93Zm51.77,10.78H66a8.63,8.63,0,0,1-8.63-8.61v-.24A8.63,8.63,0,0,1,66,274.79h51.77a8.63,8.63,0,0,1,8.64,8.61v.24A8.64,8.64,0,0,1,117.79,292.25Z" transform="translate(0)"/><path class="cls-3" d="M66,292.25a2,2,0,0,0-1.93,1.93v.23A2,2,0,0,0,66,296.33h51.77a2,2,0,0,0,1.93-1.92v-.24a2,2,0,0,0-1.93-1.92ZM117.79,303H66a8.63,8.63,0,0,1-8.63-8.61v-.24A8.63,8.63,0,0,1,66,285.56h51.77a8.63,8.63,0,0,1,8.64,8.61v.24A8.63,8.63,0,0,1,117.79,303Z" transform="translate(0)"/><path class="cls-3" d="M78.49,303a13,13,0,0,0,13.05,12.73h.73A13.06,13.06,0,0,0,105.33,303Zm13.78,19.42h-.73a19.76,19.76,0,0,1-19.77-19.71v-3.05a3.36,3.36,0,0,1,3.36-3.35h33.55a3.35,3.35,0,0,1,3.36,3.35v3.05A19.76,19.76,0,0,1,92.27,322.44Z" transform="translate(0)"/><path class="cls-3" d="M93,126.37A3.35,3.35,0,0,1,89.63,123V96.61a3.36,3.36,0,0,1,6.71,0V123A3.35,3.35,0,0,1,93,126.37Z" transform="translate(0)"/><path class="cls-3" d="M136.73,143.67a3.35,3.35,0,0,1-2.37-5.72l17.36-17.32a3.38,3.38,0,0,1,4.75,0,3.34,3.34,0,0,1,0,4.73L139.1,142.69A3.38,3.38,0,0,1,136.73,143.67Z" transform="translate(0)"/><path class="cls-3" d="M179.73,182.34H156a3.35,3.35,0,1,1,0-6.69h23.7a3.35,3.35,0,1,1,0,6.69Z" transform="translate(0)"/><path class="cls-3" d="M46.36,142.35a3.36,3.36,0,0,1-2.37-1L26.62,124a3.34,3.34,0,0,1,0-4.73,3.38,3.38,0,0,1,4.75,0l17.37,17.32a3.35,3.35,0,0,1,0,4.74A3.39,3.39,0,0,1,46.36,142.35Z" transform="translate(0)"/><path class="cls-3" d="M27.05,181H3.35a3.35,3.35,0,1,1,0-6.69h23.7a3.35,3.35,0,1,1,0,6.69Z" transform="translate(0)"/><path class="cls-3" d="M93,199.63a3.28,3.28,0,0,1,1.56.39l10.84,5.68-2.07-12a3.32,3.32,0,0,1,1-3l8.76-8.52-12.11-1.76a3.33,3.33,0,0,1-2.53-1.83L93,167.65l-5.42,10.94A3.33,3.33,0,0,1,85,180.42l-12.11,1.76,8.76,8.52a3.35,3.35,0,0,1,1,3l-2.07,12L91.41,200A3.41,3.41,0,0,1,93,199.63Zm16.85,15.53a3.34,3.34,0,0,1-1.56-.39l-15.29-8-15.28,8a3.35,3.35,0,0,1-4.87-3.52l2.92-17-12.37-12a3.35,3.35,0,0,1,1.86-5.71l17.09-2.47L90,158.62a3.36,3.36,0,0,1,6,0l7.64,15.45,17.1,2.47a3.35,3.35,0,0,1,1.86,5.71l-12.37,12,2.92,17a3.34,3.34,0,0,1-1.34,3.27A3.41,3.41,0,0,1,109.83,215.16Z" transform="translate(0)"/></g><g class="cls-4"><path class="cls-5" d="M180.32,5.27A23.36,23.36,0,0,0,157,28.61V66.42a23.36,23.36,0,0,0,23.33,23.34A2.65,2.65,0,0,1,183,92.38l.23,36.28,36.25-38.09a2.63,2.63,0,0,1,1.91-.81h54.13A23.36,23.36,0,0,0,298.8,66.42V28.61A23.36,23.36,0,0,0,275.48,5.27Zm.28,132.58a2.5,2.5,0,0,1-1-.19,2.65,2.65,0,0,1-1.67-2.43l-.26-40.32a28.65,28.65,0,0,1-26-28.49V28.61A28.63,28.63,0,0,1,180.32,0h95.16a28.63,28.63,0,0,1,28.6,28.61V66.42A28.63,28.63,0,0,1,275.48,95h-53l-40,42A2.67,2.67,0,0,1,180.6,137.85Z" transform="translate(0)"/><path class="cls-6" d="M203.62,31.47A2.53,2.53,0,0,1,201.09,34h-8.32V63.15a2.85,2.85,0,1,1-5.7,0V34h-8.32a2.53,2.53,0,0,1,0-5.06h22.34A2.53,2.53,0,0,1,203.62,31.47Z" transform="translate(0)"/><path class="cls-6" d="M214.16,31.74V63.21a2.9,2.9,0,1,1-5.79,0V31.74a2.9,2.9,0,1,1,5.79,0Z" transform="translate(0)"/><path class="cls-6" d="M241.15,40.64c0-4.63-3.27-6.8-8.12-6.8h-6.85V47.5H233C237.88,47.5,241.15,45.55,241.15,40.64Zm5.53,0c0,6.91-5.22,11.76-13.44,11.76h-7.06V63.26a2.85,2.85,0,1,1-5.69,0V32.05a3,3,0,0,1,3.11-3.11h9.64C241.46,28.94,246.68,34,246.68,40.64Z" transform="translate(0)"/><path class="cls-6" d="M273.25,33.21a4.35,4.35,0,0,1,1.21,2.64,2.27,2.27,0,0,1-2.37,2.26,3.19,3.19,0,0,1-2.43-1.21,7,7,0,0,0-6.11-3.27c-3.74,0-6.06,1.9-6.06,4.8,0,2.32,1.47,4,4.9,5.32l2.58,1c7.43,2.84,11.23,5.53,11.23,10.86,0,7-6.91,10.59-13,10.59-4.48,0-9.07-1.95-11.44-5.59a4.67,4.67,0,0,1-1.11-2.68A2.33,2.33,0,0,1,253,55.46a3.3,3.3,0,0,1,2.74,1.68,8.62,8.62,0,0,0,7.43,4c3.27,0,7.17-1.37,7.17-5.48,0-3.33-2.48-4.64-6.54-6.22L261,48.29c-5.28-2.06-9.18-4.75-9.18-9.91,0-6,5.17-9.81,11.55-9.81A12,12,0,0,1,273.25,33.21Z" transform="translate(0)"/></g></g></g></svg>