<?xml version="1.0" encoding="utf-8"?>
<!-- Generator: Adobe Illustrator 25.2.1, SVG Export Plug-In . SVG Version: 6.00 Build 0)  -->
<svg version="1.1" id="Layer_1" xmlns="http://www.w3.org/2000/svg" xmlns:xlink="http://www.w3.org/1999/xlink" x="0px" y="0px"
	 viewBox="0 0 241.4 364.5" style="enable-background:new 0 0 241.4 364.5;" xml:space="preserve">
<style type="text/css">
	.st0{fill:#EBE0E9;}
	.st1{fill-rule:evenodd;clip-rule:evenodd;fill:#ED74C0;}
	.st2{fill-rule:evenodd;clip-rule:evenodd;fill:#306342;}
	.st3{fill:#100F0D;}
	.st4{fill-rule:evenodd;clip-rule:evenodd;fill:#EBE0E9;}
	.st5{fill:#FF66C4;}
	.st6{fill:#545454;}
	.st7{font-family:'OpenSans-Bold';}
	.st8{font-size:25px;}
</style>
<g id="Layer_2_1_">
	<g id="Layer_1-2">
		<rect y="0" class="st0" width="241.4" height="364.5"/>
		<path class="st1" d="M89.5,122.7c0.2-7.5,10.1-12.2,33.4-11.6c22.5,0.6,32.5,4.2,32.3,13l-1.4,198c-1.9,10.9-22.7,13.8-33.4,13.5
			s-31.3-4.6-31.2-14.9C89.1,317.9,89.5,122.6,89.5,122.7"/>
		<path class="st2" d="M104.2,116.8c0-0.5,0.4-15.8,0.4-16.4c0-4.1,8.3-7.4,18.6-7.4s18.6,3.3,18.6,7.4c0,0.6-0.4,16-0.4,16.4
			c0,4.1-8.4,7.4-18.6,7.4S104.2,120.9,104.2,116.8"/>
		<path class="st3" d="M134.6,130.1c-0.1-0.1-0.1-0.3,0-0.5c0.1-0.2,0.3-0.2,0.5-0.1c0,0,0,0,0,0l0,0l0.3-0.1c0.2,0,0.3-0.1,0.5-0.1
			c0.7-0.1,1.3-0.2,2-0.3c2-0.3,4-0.8,5.9-1.5c0.2,0,0.4,0.1,0.4,0.2c0.1,0.2-0.1,0.4-0.2,0.4c-2,0.7-4,1.1-6,1.5
			c-0.7,0.1-1.4,0.2-2,0.3c-0.1,0-0.3,0.1-0.4,0.1c-0.2,0.1-0.4,0.1-0.6,0.1C134.9,130.3,134.7,130.2,134.6,130.1 M92.5,122.4
			c0.2,0.4,0.4,0.7,0.7,1c3.2,2.7,7.8,3.8,11.9,4.6l0.7,0.2c6.8,1.6,13.7,2.5,20.6,2.6c1.2,0,2.4,0,3.6-0.1c0.2,0,0.3-0.2,0.3-0.3
			c0-0.2-0.2-0.3-0.3-0.3l0,0c-8.8,0.5-17.4-1.1-24-2.5l-0.7-0.2c-4-0.9-8.5-1.9-11.6-4.5c-0.2-0.2-0.4-0.5-0.5-0.8
			c-0.1-0.2-0.2-0.5-0.4-0.7c-0.1-0.1-0.3-0.1-0.5,0c-0.1,0.1-0.1,0.3,0,0.5c0,0,0,0,0,0C92.4,122.1,92.4,122.2,92.5,122.4
			L92.5,122.4z M123.8,313.4c-15.3-0.8-33.5,5.5-34.1,9.3c0,0.2,0.1,0.4,0.3,0.4c0.2,0,0.4-0.1,0.4-0.3c0.4-3.1,18.2-9.5,33.4-8.7
			c8.7,0.5,26.1,3.8,28.9,9.6c0.1,0.1,0.2,0.2,0.3,0.2c0.1,0,0.1,0,0.2,0c0.2-0.1,0.2-0.3,0.2-0.5
			C150.1,317,131.7,313.8,123.8,313.4L123.8,313.4z M153.4,124.2c-0.1-0.2-0.3-0.2-0.5-0.1c-0.8,0.5-1.6,1-2.4,1.4
			c-0.2,0-0.3,0.1-0.5,0.1c-0.4,0.1-0.8,0.2-0.9,0.4c-0.1,0.2,0,0.3,0.1,0.5c0.1,0.1,0.2,0.2,0.3,0.2c0.1,0,0.1,0,0.2-0.1
			c0.1-0.1,0.1-0.2,0.2-0.3l0.4-0.1c0.2,0,0.4-0.1,0.6-0.2c0.9-0.4,1.7-0.9,2.5-1.4C153.5,124.5,153.5,124.4,153.4,124.2
			L153.4,124.2z"/>
		<path class="st4" d="M102.5,158.1c6.7,1.4,13.6,2,20.5,1.9c6.5-0.1,13-1,19.3-2.7l0.6,102.3c-6.8,1.9-13.8,2.8-20.8,2.8
			c-9.1-0.3-20.1-4.8-20.1-4.8L102.5,158.1"/>
		<path class="st3" d="M122.3,105c-10.1,0-15.6-2.8-16.8-4.8c-0.1-0.2-0.1-0.4,0.1-0.5c0,0,0,0,0,0c0.2-0.1,0.4,0,0.5,0.1
			c0,0,0,0,0,0c1.4,2.4,9.1,5.4,21.8,4.2c12.2-1.1,12.8-3.2,12.8-3.2c0-0.2,0.2-0.3,0.3-0.3c0,0,0,0,0,0c0.2,0,0.4,0.2,0.4,0.4
			c0,0.4-0.6,2.8-13.5,3.9C125.9,104.9,124,105,122.3,105"/>
		<path class="st3" d="M113.7,167.4c0,0.2-0.1,0.3-0.3,0.3c0,0,0,0,0,0l-3.4,0.1l0.2,11.1c0,0.2-0.1,0.3-0.3,0.3c0,0,0,0,0,0l0,0
			c-0.2,0-0.3-0.1-0.3-0.3l-0.2-11.1l-2.9,0.1c-0.2,0-0.3-0.1-0.3-0.3l0,0c0-0.2,0.1-0.3,0.3-0.3l6.9-0.2
			C113.6,167.1,113.7,167.2,113.7,167.4 M111.9,189.3c0,3.4-0.9,6.9-2.6,6.9s-2.7-3.6-2.7-6.9s0.9-6.9,2.7-6.9
			S111.9,185.9,111.9,189.3L111.9,189.3z M111.3,189.3c0-3.7-1.1-6.3-2-6.3s-2,2.6-2,6.3s1.1,6.3,2,6.3S111.3,193,111.3,189.3
			L111.3,189.3z M111.4,212.8c0.1,0,0.2-0.1,0.2-0.3v-12.3c0-0.2-0.1-0.3-0.3-0.3c-0.2,0-0.3,0.1-0.3,0.3v10.9l-4.2-9.9
			c-0.1-0.1-0.2-0.2-0.3-0.2c-0.1,0-0.2,0.1-0.2,0.3l0.2,12.1c0,0.1,0.1,0.3,0.3,0.3c0,0,0,0,0,0c0.2,0,0.3-0.1,0.3-0.3l-0.2-10.7
			l4.2,9.8C111.2,212.8,111.3,212.8,111.4,212.8L111.4,212.8z M106.2,216.7l-0.4,12.2c0,0.1,0,0.1,0.1,0.2c0.1,0.1,0.1,0.1,0.2,0.1
			l5.3,0.1c0.2,0,0.3-0.1,0.3-0.3c0-0.1-0.1-0.3-0.3-0.3c0,0,0,0,0,0l-5.1-0.1l0.2-5.8l0,0l3.7-0.2c0.2,0,0.3-0.1,0.3-0.3
			c0-0.1-0.1-0.3-0.3-0.3c0,0,0,0,0,0l-3.7,0.2l0.2-5.3l4.8-0.1c0.1,0,0.3-0.1,0.3-0.3c0-0.1-0.1-0.3-0.3-0.3c0,0,0,0,0,0l0,0
			l-5,0.1C106.3,216.5,106.2,216.6,106.2,216.7C106.2,216.7,106.2,216.7,106.2,216.7L106.2,216.7z M111.8,245.2
			c0.1,0.1,0.1,0.3-0.1,0.4c-0.1,0-0.1,0-0.2,0.1c-0.1,0-0.2,0-0.2-0.1l-4.9-6.3l-0.1,5.8c0,0.2-0.2,0.3-0.3,0.3
			c-0.2,0-0.3-0.1-0.3-0.3c0,0,0,0,0,0l0.3-12.9c0-0.2,0.1-0.3,0.3-0.3c1.3-0.1,2.5,0.2,3.6,0.9c0.6,0.5,1,1.2,1,2
			c0.1,2.1-2.8,3.7-3.8,4.3L111.8,245.2z M106.4,238.6c0,0,3.9-1.8,3.8-3.8c0-0.6-0.3-1.2-0.8-1.6c-0.8-0.6-1.8-0.9-2.9-0.8
			L106.4,238.6L106.4,238.6z M138.4,168.2c-3,1-6.2,1.4-9.4,1.3c-3-0.1-6.1-0.3-9.1-0.7c-0.2,0-0.4,0.1-0.4,0.3s0.1,0.4,0.3,0.4
			c3,0.4,6.1,0.6,9.2,0.7h1c3,0.1,5.9-0.4,8.7-1.4c0.2-0.1,0.3-0.3,0.2-0.5C138.8,168.2,138.6,168.1,138.4,168.2
			C138.4,168.2,138.4,168.2,138.4,168.2L138.4,168.2z M128.6,173.7h1c3,0.1,5.9-0.4,8.7-1.4c0.2-0.1,0.3-0.3,0.2-0.5
			c-0.1-0.2-0.3-0.3-0.5-0.2c0,0,0,0,0,0c-3,1-6.2,1.5-9.4,1.3c-3-0.1-6.1-0.3-9.1-0.7c-0.2,0-0.4,0.1-0.4,0.3c0,0,0,0,0,0
			c0,0.2,0.1,0.4,0.3,0.4C122.5,173.4,125.6,173.6,128.6,173.7L128.6,173.7z M138.1,175.8c-3,1-6.2,1.5-9.4,1.3
			c-3-0.1-6.1-0.3-9.1-0.7c-0.2,0-0.4,0.1-0.4,0.3c0,0,0,0,0,0c0,0.2,0.1,0.4,0.3,0.4c3,0.4,6.1,0.6,9.2,0.7h1
			c3,0.1,5.9-0.4,8.7-1.4c0.2-0.1,0.3-0.3,0.2-0.5c0,0,0,0,0,0C138.5,175.8,138.3,175.7,138.1,175.8
			C138.1,175.8,138.1,175.8,138.1,175.8L138.1,175.8z"/>
		<rect x="0.7" y="0" class="st5" width="240.1" height="70.1"/>
		<text transform="matrix(1 0 0 1 60.46 43.63)" class="st6 st7 st8">T</text>
		<text transform="matrix(1 0 0 1 83.05 43.63)" class="st6 st7 st8">O</text>
		<text transform="matrix(1 0 0 1 111.92 43.63)" class="st6 st7 st8">N</text>
		<text transform="matrix(1 0 0 1 141.29 43.63)" class="st6 st7 st8">E</text>
		<text transform="matrix(1 0 0 1 163.33 43.63)" class="st6 st7 st8">R</text>
	</g>
</g>
</svg>
